solid nappe anycubic
facet normal -0.0 -0.0 1.0
  outer loop
    vertex 151.20295861649194 62.96982704985247 1.9999999999999998
    vertex 76.20295861649194 92.96982704985247 1.9999999999999998
    vertex 76.20295861649194 62.96982704985247 1.9999999999999998
  endloop
endfacet
facet normal -0.0 -0.0 1.0
  outer loop
    vertex 76.20295861649194 92.96982704985247 1.9999999999999998
    vertex 151.20295861649194 62.96982704985247 1.9999999999999998
    vertex 77.20295861649194 93.96982704985247 1.9999999999999998
  endloop
endfacet
facet normal -0.0 -0.0 1.0
  outer loop
    vertex 77.20295861649194 93.96982704985247 1.9999999999999998
    vertex 151.20295861649194 62.96982704985247 1.9999999999999998
    vertex 150.20295861649194 93.96982704985247 1.9999999999999998
  endloop
endfacet
facet normal -0.0 -0.0 1.0
  outer loop
    vertex 150.20295861649194 93.96982704985247 1.9999999999999998
    vertex 151.20295861649194 62.96982704985247 1.9999999999999998
    vertex 151.20295861649194 92.96982704985247 1.9999999999999998
  endloop
endfacet
facet normal 0.0 0.0 -1.0
  outer loop
    vertex 77.20295861649194 93.96982704985247 4.299999999999999
    vertex 76.20295861649194 62.96982704985247 4.299999999999999
    vertex 76.20295861649194 92.96982704985247 4.299999999999999
  endloop
endfacet
facet normal 0.0 0.0 -1.0
  outer loop
    vertex 76.20295861649194 62.96982704985247 4.299999999999999
    vertex 77.20295861649194 93.96982704985247 4.299999999999999
    vertex 151.20295861649194 62.96982704985247 4.299999999999999
  endloop
endfacet
facet normal 0.0 0.0 -1.0
  outer loop
    vertex 151.20295861649194 62.96982704985247 4.299999999999999
    vertex 77.20295861649194 93.96982704985247 4.299999999999999
    vertex 150.20295861649194 93.96982704985247 4.299999999999999
  endloop
endfacet
facet normal 0.0 0.0 -1.0
  outer loop
    vertex 151.20295861649194 62.96982704985247 4.299999999999999
    vertex 150.20295861649194 93.96982704985247 4.299999999999999
    vertex 151.20295861649194 92.96982704985247 4.299999999999999
  endloop
endfacet
facet normal -0.0 -0.0 1.0
  outer loop
    vertex 101.20295861649194 59.96982704985246 5.499999999999998
    vertex 101.54370035360127 66.38163659882727 5.499999999999998
    vertex 101.20295861649194 68.96982704985247 5.499999999999998
  endloop
endfacet
facet normal -0.0 -0.0 1.0
  outer loop
    vertex 101.54370035360127 66.38163659882727 5.499999999999998
    vertex 101.20295861649194 59.96982704985246 5.499999999999998
    vertex 102.54270457864757 63.96982704985247 5.499999999999998
  endloop
endfacet
facet normal -0.0 -0.0 1.0
  outer loop
    vertex 102.54270457864757 63.96982704985247 5.499999999999998
    vertex 101.20295861649194 59.96982704985246 5.499999999999998
    vertex 104.13189080462648 61.89875923798699 5.499999999999998
  endloop
endfacet
facet normal -0.0 -0.0 1.0
  outer loop
    vertex 104.13189080462648 61.89875923798699 5.499999999999998
    vertex 101.20295861649194 59.96982704985246 5.499999999999998
    vertex 106.20295861649194 60.30957301200808 5.499999999999998
  endloop
endfacet
facet normal -0.0 -0.0 1.0
  outer loop
    vertex 106.20295861649194 60.30957301200808 5.499999999999998
    vertex 101.20295861649194 59.96982704985246 5.499999999999998
    vertex 107.02317792608952 59.96982704985246 5.499999999999998
  endloop
endfacet
facet normal -0.0 -0.0 1.0
  outer loop
    vertex 105.20295861649194 62.96982704985247 35.5
    vertex 106.24710955164528 64.01397798500584 35.5
    vertex 105.20295861649194 65.37474197677355 35.5
  endloop
endfacet
facet normal -0.0 -0.0 1.0
  outer loop
    vertex 106.24710955164528 64.01397798500584 35.5
    vertex 105.20295861649194 62.96982704985247 35.5
    vertex 107.60787354341302 62.96982704985247 35.5
  endloop
endfacet
facet normal -0.6087614290087237 -0.7933533402912328 1.5414207594719914e-16
  outer loop
    vertex 106.20295861649196 60.309573012008066 34.50000000000001
    vertex 104.13189080462648 61.89875923798699 5.499999999999998
    vertex 106.20295861649194 60.30957301200808 5.499999999999998
  endloop
endfacet
facet normal -0.6087614290087237 -0.7933533402912328 1.5414207594719914e-16
  outer loop
    vertex 104.13189080462648 61.89875923798699 5.499999999999998
    vertex 106.20295861649196 60.309573012008066 34.50000000000001
    vertex 104.13189080462645 61.89875923798701 34.50000000000001
  endloop
endfacet
facet normal -0.7933533402912357 -0.6087614290087202 -1.900067770370107e-16
  outer loop
    vertex 104.13189080462645 61.89875923798701 34.50000000000001
    vertex 102.54270457864757 63.96982704985247 5.499999999999998
    vertex 104.13189080462648 61.89875923798699 5.499999999999998
  endloop
endfacet
facet normal -0.7933533402912357 -0.6087614290087202 -1.900067770370107e-16
  outer loop
    vertex 102.54270457864757 63.96982704985247 5.499999999999998
    vertex 104.13189080462645 61.89875923798701 34.50000000000001
    vertex 102.54270457864757 63.969827049852455 34.50000000000001
  endloop
endfacet
facet normal -0.923879532511286 -0.38268343236509217 -1.1790681524157153e-16
  outer loop
    vertex 101.54370035360127 66.38163659882723 34.50000000000001
    vertex 102.54270457864757 63.96982704985247 5.499999999999998
    vertex 102.54270457864757 63.969827049852455 34.50000000000001
  endloop
endfacet
facet normal -0.923879532511286 -0.38268343236509217 -1.1790681524157153e-16
  outer loop
    vertex 102.54270457864757 63.96982704985247 5.499999999999998
    vertex 101.54370035360127 66.38163659882723 34.50000000000001
    vertex 101.54370035360127 66.38163659882727 5.499999999999998
  endloop
endfacet
facet normal -0.9914448613738107 -0.13052619222005038 3.704806996875439e-16
  outer loop
    vertex 101.20295861649194 68.96982704985258 34.50000000000001
    vertex 101.54370035360127 66.38163659882727 5.499999999999998
    vertex 101.54370035360127 66.38163659882723 34.50000000000001
  endloop
endfacet
facet normal -0.9914448613738107 -0.13052619222005038 3.704806996875439e-16
  outer loop
    vertex 101.54370035360127 66.38163659882727 5.499999999999998
    vertex 101.20295861649194 68.96982704985258 34.50000000000001
    vertex 101.20295861649194 68.96982704985247 5.499999999999998
  endloop
endfacet
facet normal 0.13052619222005227 0.9914448613738105 -0.0
  outer loop
    vertex 109.65004434587676 63.17427209211807 34.50000000000001
    vertex 111.20295861649197 62.96982704985247 6.499999999999998
    vertex 109.65004434587676 63.17427209211807 6.499999999999998
  endloop
endfacet
facet normal 0.13052619222005227 0.9914448613738105 -0.0
  outer loop
    vertex 111.20295861649197 62.96982704985247 6.499999999999998
    vertex 109.65004434587676 63.17427209211807 34.50000000000001
    vertex 111.20295861649197 62.96982704985247 34.50000000000001
  endloop
endfacet
facet normal 0.3826834323650889 0.9238795325112871 -0.0
  outer loop
    vertex 108.20295861649198 63.77367462714581 34.50000000000001
    vertex 109.65004434587676 63.17427209211807 6.499999999999998
    vertex 108.20295861649198 63.77367462714581 6.499999999999998
  endloop
endfacet
facet normal 0.3826834323650889 0.9238795325112871 -0.0
  outer loop
    vertex 109.65004434587676 63.17427209211807 6.499999999999998
    vertex 108.20295861649198 63.77367462714581 34.50000000000001
    vertex 109.65004434587676 63.17427209211807 34.50000000000001
  endloop
endfacet
facet normal 0.6087614290087214 0.7933533402912345 -0.0
  outer loop
    vertex 106.96031792937264 64.7271863627332 34.50000000000001
    vertex 108.20295861649198 63.77367462714581 6.499999999999998
    vertex 106.96031792937264 64.7271863627332 6.499999999999998
  endloop
endfacet
facet normal 0.6087614290087214 0.7933533402912345 -0.0
  outer loop
    vertex 108.20295861649198 63.77367462714581 6.499999999999998
    vertex 106.96031792937264 64.7271863627332 34.50000000000001
    vertex 108.20295861649198 63.77367462714581 34.50000000000001
  endloop
endfacet
facet normal 0.7933533402912342 0.6087614290087221 -0.0
  outer loop
    vertex 106.00680619378531 65.96982704985247 6.499999999999998
    vertex 106.96031792937264 64.7271863627332 34.50000000000001
    vertex 106.96031792937264 64.7271863627332 6.499999999999998
  endloop
endfacet
facet normal 0.7933533402912342 0.6087614290087221 -0.0
  outer loop
    vertex 106.96031792937264 64.7271863627332 34.50000000000001
    vertex 106.00680619378531 65.96982704985247 6.499999999999998
    vertex 106.00680619378531 65.96982704985247 34.50000000000001
  endloop
endfacet
facet normal 0.9238795325112886 0.38268343236508556 -0.0
  outer loop
    vertex 105.40740365875752 67.41691277923738 6.499999999999998
    vertex 106.00680619378531 65.96982704985247 34.50000000000001
    vertex 106.00680619378531 65.96982704985247 6.499999999999998
  endloop
endfacet
facet normal 0.9238795325112886 0.38268343236508556 -0.0
  outer loop
    vertex 106.00680619378531 65.96982704985247 34.50000000000001
    vertex 105.40740365875752 67.41691277923738 6.499999999999998
    vertex 105.40740365875752 67.41691277923738 34.50000000000001
  endloop
endfacet
facet normal 0.9914448613738114 0.13052619222004366 -0.0
  outer loop
    vertex 105.20295861649194 68.96982704985251 6.499999999999998
    vertex 105.40740365875752 67.41691277923738 34.50000000000001
    vertex 105.40740365875752 67.41691277923738 6.499999999999998
  endloop
endfacet
facet normal 0.9914448613738114 0.13052619222004366 -0.0
  outer loop
    vertex 105.40740365875752 67.41691277923738 34.50000000000001
    vertex 105.20295861649194 68.96982704985251 6.499999999999998
    vertex 105.20295861649194 68.96982704985251 34.50000000000001
  endloop
endfacet
facet normal -1.1776472368428876e-32 4.5811157030173326e-33 1.0
  outer loop
    vertex 106.38166442092496 67.67796516367757 5.499999999999998
    vertex 106.20295861649194 93.96982704985247 5.499999999999998
    vertex 106.20295861649194 69.03537051266767 5.499999999999998
  endloop
endfacet
facet normal -1.1776472368428876e-32 4.5811157030173326e-33 1.0
  outer loop
    vertex 106.20295861649194 93.96982704985247 5.499999999999998
    vertex 106.38166442092496 67.67796516367757 5.499999999999998
    vertex 150.20295861649194 93.96982704985247 5.499999999999998
  endloop
endfacet
facet normal -1.1776472368428876e-32 4.5811157030173326e-33 1.0
  outer loop
    vertex 150.20295861649194 93.96982704985247 5.499999999999998
    vertex 106.38166442092496 67.67796516367757 5.499999999999998
    vertex 106.88030449664043 66.4741415301425 5.499999999999998
  endloop
endfacet
facet normal -1.1776472368428876e-32 4.5811157030173326e-33 1.0
  outer loop
    vertex 150.20295861649194 93.96982704985247 5.499999999999998
    vertex 106.88030449664043 66.4741415301425 5.499999999999998
    vertex 107.6735263071 65.44039474046058 5.499999999999998
  endloop
endfacet
facet normal -1.1776472368428876e-32 4.5811157030173326e-33 1.0
  outer loop
    vertex 150.20295861649194 93.96982704985247 5.499999999999998
    vertex 107.6735263071 65.44039474046058 5.499999999999998
    vertex 108.70727309678203 64.64717293000093 5.499999999999998
  endloop
endfacet
facet normal -1.1776472368428876e-32 4.5811157030173326e-33 1.0
  outer loop
    vertex 150.20295861649194 93.96982704985247 5.499999999999998
    vertex 108.70727309678203 64.64717293000093 5.499999999999998
    vertex 109.91109673031691 64.14853285428553 5.499999999999998
  endloop
endfacet
facet normal -1.1776472368428876e-32 4.5811157030173326e-33 1.0
  outer loop
    vertex 150.20295861649194 93.96982704985247 5.499999999999998
    vertex 109.91109673031691 64.14853285428553 5.499999999999998
    vertex 111.26850207930731 63.969827049852455 5.499999999999998
  endloop
endfacet
facet normal -1.1776472368428876e-32 4.5811157030173326e-33 1.0
  outer loop
    vertex 150.20295861649194 93.96982704985247 5.499999999999998
    vertex 111.26850207930731 63.969827049852455 5.499999999999998
    vertex 150.20295861649194 63.96982704985247 5.499999999999998
  endloop
endfacet
facet normal -1.1776472368428876e-32 4.5811157030173326e-33 1.0
  outer loop
    vertex 150.20295861649194 93.96982704985247 5.499999999999998
    vertex 150.20295861649194 63.96982704985247 5.499999999999998
    vertex 151.20295861649194 62.96982704985247 5.499999999999998
  endloop
endfacet
facet normal -1.1776472368428876e-32 4.5811157030173326e-33 1.0
  outer loop
    vertex 150.20295861649194 93.96982704985247 5.499999999999998
    vertex 151.20295861649194 62.96982704985247 5.499999999999998
    vertex 151.20295861649194 92.96982704985247 5.499999999999998
  endloop
endfacet
facet normal -1.0 0.0 0.0
  outer loop
    vertex 101.20295861649194 68.96982704985258 34.50000000000001
    vertex 101.20295861649194 92.96982704985247 5.499999999999998
    vertex 101.20295861649194 68.96982704985247 5.499999999999998
  endloop
endfacet
facet normal -1.0 0.0 0.0
  outer loop
    vertex 101.20295861649194 92.96982704985247 5.499999999999998
    vertex 101.20295861649194 68.96982704985258 34.50000000000001
    vertex 101.20295861649194 92.96982704985247 34.50000000000001
  endloop
endfacet
facet normal 1.0 -0.0 -0.0
  outer loop
    vertex 105.20295861649194 92.96982704985247 6.499999999999999
    vertex 105.20295861649194 68.96982704985251 34.50000000000001
    vertex 105.20295861649194 68.96982704985251 6.499999999999998
  endloop
endfacet
facet normal 1.0 -0.0 -0.0
  outer loop
    vertex 105.20295861649194 68.96982704985251 34.50000000000001
    vertex 105.20295861649194 92.96982704985247 6.499999999999999
    vertex 105.20295861649194 92.96982704985247 34.50000000000001
  endloop
endfacet
facet normal -0.0 1.0 -0.0
  outer loop
    vertex 77.20295861649194 93.96982704985247 1.9999999999999998
    vertex 150.20295861649194 93.96982704985247 0.9999999999999999
    vertex 77.20295861649194 93.96982704985247 0.9999999999999999
  endloop
endfacet
facet normal -0.0 1.0 -0.0
  outer loop
    vertex 150.20295861649194 93.96982704985247 0.9999999999999999
    vertex 77.20295861649194 93.96982704985247 1.9999999999999998
    vertex 150.20295861649194 93.96982704985247 1.9999999999999998
  endloop
endfacet
facet normal -0.0922959556412573 -0.7010573846499786 0.707106781186547
  outer loop
    vertex 111.20295861649201 58.96982704985246 34.50000000000001
    vertex 108.87582054990683 60.284829549129256 35.5
    vertex 108.61476816546673 59.310568786961795 34.50000000000001
  endloop
endfacet
facet normal -0.0922959556412573 -0.7010573846499786 0.707106781186547
  outer loop
    vertex 108.87582054990683 60.284829549129256 35.5
    vertex 111.20295861649201 58.96982704985246 34.50000000000001
    vertex 111.26850207930724 59.96982704985246 35.5
  endloop
endfacet
facet normal -0.560985526796934 -0.43045933457687896 0.7071067811865454
  outer loop
    vertex 104.13189080462645 61.89875923798701 34.50000000000001
    vertex 103.41620288150267 64.47414153014253 35.5
    vertex 102.54270457864757 63.969827049852455 34.50000000000001
  endloop
endfacet
facet normal -0.560985526796934 -0.43045933457687896 0.7071067811865454
  outer loop
    vertex 103.41620288150267 64.47414153014253 35.5
    vertex 104.13189080462645 61.89875923798701 34.50000000000001
    vertex 104.8450991823538 62.61196761571436 35.5
  endloop
endfacet
facet normal 0.5609855267969327 0.4304593345768816 0.7071067811865449
  outer loop
    vertex 105.20295861649194 65.37474197677355 35.5
    vertex 106.00680619378531 65.96982704985247 34.50000000000001
    vertex 105.13330789093017 65.46551256956243 35.5
  endloop
endfacet
facet normal 0.5609855267969327 0.4304593345768816 0.7071067811865449
  outer loop
    vertex 106.00680619378531 65.96982704985247 34.50000000000001
    vertex 105.20295861649194 65.37474197677355 35.5
    vertex 106.24710955164528 64.01397798500584 35.5
  endloop
endfacet
facet normal 0.5609855267969327 0.4304593345768816 0.7071067811865449
  outer loop
    vertex 106.00680619378531 65.96982704985247 34.50000000000001
    vertex 106.24710955164528 64.01397798500584 35.5
    vertex 106.96031792937264 64.7271863627332 34.50000000000001
  endloop
endfacet
facet normal 0.6532814824381908 0.27059805007309323 0.7071067811865471
  outer loop
    vertex 105.13330789093017 65.46551256956243 35.5
    vertex 105.40740365875752 67.41691277923738 34.50000000000001
    vertex 104.43314289659008 67.1558603947972 35.5
  endloop
endfacet
facet normal 0.6532814824381908 0.27059805007309323 0.7071067811865471
  outer loop
    vertex 105.40740365875752 67.41691277923738 34.50000000000001
    vertex 105.13330789093017 65.46551256956243 35.5
    vertex 106.00680619378531 65.96982704985247 34.50000000000001
  endloop
endfacet
facet normal 0.43045933457688085 0.5609855267969318 0.707106781186546
  outer loop
    vertex 107.60787354341302 62.96982704985247 35.5
    vertex 106.96031792937264 64.7271863627332 34.50000000000001
    vertex 106.24710955164528 64.01397798500584 35.5
  endloop
endfacet
facet normal 0.43045933457688085 0.5609855267969318 0.707106781186546
  outer loop
    vertex 106.96031792937264 64.7271863627332 34.50000000000001
    vertex 107.60787354341302 62.96982704985247 35.5
    vertex 108.20295861649198 63.77367462714581 34.50000000000001
  endloop
endfacet
facet normal 0.43045933457688085 0.5609855267969318 0.707106781186546
  outer loop
    vertex 108.20295861649198 63.77367462714581 34.50000000000001
    vertex 107.60787354341302 62.96982704985247 35.5
    vertex 107.69864413620192 62.9001763242907 35.5
  endloop
endfacet
facet normal -0.4304593345768825 -0.5609855267969328 0.7071067811865444
  outer loop
    vertex 106.20295861649196 60.309573012008066 34.50000000000001
    vertex 104.8450991823538 62.61196761571436 35.5
    vertex 104.13189080462645 61.89875923798701 34.50000000000001
  endloop
endfacet
facet normal -0.4304593345768825 -0.5609855267969328 0.7071067811865444
  outer loop
    vertex 104.8450991823538 62.61196761571436 35.5
    vertex 106.20295861649196 60.309573012008066 34.50000000000001
    vertex 106.707273096782 61.183071314863184 35.5
  endloop
endfacet
facet normal -0.6532814824381865 -0.2705980500730987 0.7071067811865491
  outer loop
    vertex 102.54270457864757 63.969827049852455 34.50000000000001
    vertex 102.51796111576877 66.64268898326728 35.5
    vertex 101.54370035360127 66.38163659882723 34.50000000000001
  endloop
endfacet
facet normal -0.6532814824381865 -0.2705980500730987 0.7071067811865491
  outer loop
    vertex 102.51796111576877 66.64268898326728 35.5
    vertex 102.54270457864757 63.969827049852455 34.50000000000001
    vertex 103.41620288150267 64.47414153014253 35.5
  endloop
endfacet
facet normal -0.7010573846499722 -0.09229595564125614 0.7071067811865533
  outer loop
    vertex 101.54370035360127 66.38163659882723 34.50000000000001
    vertex 102.20295861649194 69.0353705126679 35.5
    vertex 101.20295861649194 68.96982704985258 34.50000000000001
  endloop
endfacet
facet normal -0.7010573846499722 -0.09229595564125614 0.7071067811865533
  outer loop
    vertex 102.20295861649194 69.0353705126679 35.5
    vertex 101.54370035360127 66.38163659882723 34.50000000000001
    vertex 102.51796111576877 66.64268898326728 35.5
  endloop
endfacet
facet normal -0.2705980500730954 -0.6532814824381883 0.7071067811865487
  outer loop
    vertex 108.61476816546673 59.310568786961795 34.50000000000001
    vertex 106.707273096782 61.183071314863184 35.5
    vertex 106.20295861649196 60.309573012008066 34.50000000000001
  endloop
endfacet
facet normal -0.2705980500730954 -0.6532814824381883 0.7071067811865487
  outer loop
    vertex 106.707273096782 61.183071314863184 35.5
    vertex 108.61476816546673 59.310568786961795 34.50000000000001
    vertex 108.87582054990683 60.284829549129256 35.5
  endloop
endfacet
facet normal 0.7071067811865476 -0.0 0.7071067811865476
  outer loop
    vertex 105.20295861649194 68.96982704985251 34.50000000000001
    vertex 104.20295861649194 92.96982704985247 35.5
    vertex 104.20295861649194 68.90428358703727 35.5
  endloop
endfacet
facet normal 0.7071067811865476 -0.0 0.7071067811865476
  outer loop
    vertex 104.20295861649194 92.96982704985247 35.5
    vertex 105.20295861649194 68.96982704985251 34.50000000000001
    vertex 105.20295861649194 92.96982704985247 34.50000000000001
  endloop
endfacet
facet normal 0.27059805007309723 0.6532814824381875 0.7071067811865488
  outer loop
    vertex 109.38899196143664 62.20001132995061 35.5
    vertex 108.20295861649198 63.77367462714581 34.50000000000001
    vertex 107.69864413620192 62.9001763242907 35.5
  endloop
endfacet
facet normal 0.27059805007309723 0.6532814824381875 0.7071067811865488
  outer loop
    vertex 108.20295861649198 63.77367462714581 34.50000000000001
    vertex 109.38899196143664 62.20001132995061 35.5
    vertex 109.65004434587676 63.17427209211807 34.50000000000001
  endloop
endfacet
facet normal 0.09229595564125789 0.7010573846499785 0.707106781186547
  outer loop
    vertex 111.13741515367674 61.96982704985247 35.5
    vertex 109.65004434587676 63.17427209211807 34.50000000000001
    vertex 109.38899196143664 62.20001132995061 35.5
  endloop
endfacet
facet normal 0.09229595564125789 0.7010573846499785 0.707106781186547
  outer loop
    vertex 109.65004434587676 63.17427209211807 34.50000000000001
    vertex 111.13741515367674 61.96982704985247 35.5
    vertex 111.20295861649197 62.96982704985247 34.50000000000001
  endloop
endfacet
facet normal -0.7071067811865476 -0.0 0.7071067811865476
  outer loop
    vertex 102.20295861649194 69.0353705126679 35.5
    vertex 101.20295861649194 92.96982704985247 34.50000000000001
    vertex 101.20295861649194 68.96982704985258 34.50000000000001
  endloop
endfacet
facet normal -0.7071067811865476 -0.0 0.7071067811865476
  outer loop
    vertex 101.20295861649194 92.96982704985247 34.50000000000001
    vertex 102.20295861649194 69.0353705126679 35.5
    vertex 102.20295861649194 92.96982704985247 35.5
  endloop
endfacet
facet normal -0.0 0.7071067811865476 0.7071067811865476
  outer loop
    vertex 102.20295861649194 92.96982704985247 35.5
    vertex 104.20295861649194 93.96982704985247 34.50000000000001
    vertex 102.20295861649194 93.96982704985247 34.50000000000001
  endloop
endfacet
facet normal -0.0 0.7071067811865476 0.7071067811865476
  outer loop
    vertex 104.20295861649194 93.96982704985247 34.50000000000001
    vertex 102.20295861649194 92.96982704985247 35.5
    vertex 104.20295861649194 92.96982704985247 35.5
  endloop
endfacet
facet normal 0.27059805007309545 0.6532814824381873 0.7071067811865496
  outer loop
    vertex 109.65004434587676 63.17427209211807 6.499999999999998
    vertex 108.70727309678203 64.64717293000093 5.499999999999998
    vertex 108.20295861649198 63.77367462714581 6.499999999999998
  endloop
endfacet
facet normal 0.27059805007309545 0.6532814824381873 0.7071067811865496
  outer loop
    vertex 108.70727309678203 64.64717293000093 5.499999999999998
    vertex 109.65004434587676 63.17427209211807 6.499999999999998
    vertex 109.91109673031691 64.14853285428553 5.499999999999998
  endloop
endfacet
facet normal 0.7010573846499825 0.09229595564125923 0.7071067811865428
  outer loop
    vertex 104.43314289659008 67.1558603947972 35.5
    vertex 105.20295861649194 68.96982704985251 34.50000000000001
    vertex 104.20295861649194 68.90428358703727 35.5
  endloop
endfacet
facet normal 0.7010573846499825 0.09229595564125923 0.7071067811865428
  outer loop
    vertex 105.20295861649194 68.96982704985251 34.50000000000001
    vertex 104.43314289659008 67.1558603947972 35.5
    vertex 105.40740365875752 67.41691277923738 34.50000000000001
  endloop
endfacet
facet normal -0.7071067811865476 0.7071067811865476 -0.0
  outer loop
    vertex 102.20295861649194 93.96982704985247 34.50000000000001
    vertex 101.20295861649194 92.96982704985247 5.499999999999998
    vertex 101.20295861649194 92.96982704985247 34.50000000000001
  endloop
endfacet
facet normal -0.7071067811865476 0.7071067811865476 -0.0
  outer loop
    vertex 101.20295861649194 92.96982704985247 5.499999999999998
    vertex 102.20295861649194 93.96982704985247 34.50000000000001
    vertex 102.20295861649194 93.96982704985247 5.499999999999998
  endloop
endfacet
facet normal 0.6532814824381863 0.27059805007309184 0.7071067811865519
  outer loop
    vertex 106.00680619378531 65.96982704985247 6.499999999999998
    vertex 106.38166442092496 67.67796516367757 5.499999999999998
    vertex 105.40740365875752 67.41691277923738 6.499999999999998
  endloop
endfacet
facet normal 0.6532814824381863 0.27059805007309184 0.7071067811865519
  outer loop
    vertex 106.38166442092496 67.67796516367757 5.499999999999998
    vertex 106.00680619378531 65.96982704985247 6.499999999999998
    vertex 106.88030449664043 66.4741415301425 5.499999999999998
  endloop
endfacet
facet normal 0.5609855267969275 0.430459334576882 0.7071067811865487
  outer loop
    vertex 106.96031792937264 64.7271863627332 6.499999999999998
    vertex 106.88030449664043 66.4741415301425 5.499999999999998
    vertex 106.00680619378531 65.96982704985247 6.499999999999998
  endloop
endfacet
facet normal 0.5609855267969275 0.430459334576882 0.7071067811865487
  outer loop
    vertex 106.88030449664043 66.4741415301425 5.499999999999998
    vertex 106.96031792937264 64.7271863627332 6.499999999999998
    vertex 107.6735263071 65.44039474046058 5.499999999999998
  endloop
endfacet
facet normal 0.7071067811865482 -1.977360676235772e-17 0.7071067811865468
  outer loop
    vertex 106.20295861649194 69.03537051266767 5.499999999999998
    vertex 105.20295861649194 92.96982704985247 6.499999999999999
    vertex 105.20295861649194 68.96982704985251 6.499999999999998
  endloop
endfacet
facet normal 0.7071067811865482 -1.977360676235772e-17 0.7071067811865468
  outer loop
    vertex 105.20295861649194 92.96982704985247 6.499999999999999
    vertex 106.20295861649194 69.03537051266767 5.499999999999998
    vertex 106.20295861649194 93.96982704985247 5.499999999999998
  endloop
endfacet
facet normal 0.09229595564125748 0.7010573846499779 0.7071067811865476
  outer loop
    vertex 111.20295861649197 62.96982704985247 6.499999999999998
    vertex 109.91109673031691 64.14853285428553 5.499999999999998
    vertex 109.65004434587676 63.17427209211807 6.499999999999998
  endloop
endfacet
facet normal 0.09229595564125748 0.7010573846499779 0.7071067811865476
  outer loop
    vertex 109.91109673031691 64.14853285428553 5.499999999999998
    vertex 111.20295861649197 62.96982704985247 6.499999999999998
    vertex 111.26850207930731 63.969827049852455 5.499999999999998
  endloop
endfacet
facet normal 0.430459334576882 0.5609855267969285 0.707106781186548
  outer loop
    vertex 108.20295861649198 63.77367462714581 6.499999999999998
    vertex 107.6735263071 65.44039474046058 5.499999999999998
    vertex 106.96031792937264 64.7271863627332 6.499999999999998
  endloop
endfacet
facet normal 0.430459334576882 0.5609855267969285 0.707106781186548
  outer loop
    vertex 107.6735263071 65.44039474046058 5.499999999999998
    vertex 108.20295861649198 63.77367462714581 6.499999999999998
    vertex 108.70727309678203 64.64717293000093 5.499999999999998
  endloop
endfacet
facet normal 0.7010573846499817 0.09229595564125304 0.7071067811865444
  outer loop
    vertex 105.40740365875752 67.41691277923738 6.499999999999998
    vertex 106.20295861649194 69.03537051266767 5.499999999999998
    vertex 105.20295861649194 68.96982704985251 6.499999999999998
  endloop
endfacet
facet normal 0.7010573846499817 0.09229595564125304 0.7071067811865444
  outer loop
    vertex 106.20295861649194 69.03537051266767 5.499999999999998
    vertex 105.40740365875752 67.41691277923738 6.499999999999998
    vertex 106.38166442092496 67.67796516367757 5.499999999999998
  endloop
endfacet
facet normal 0.7071067811865476 0.7071067811865476 -0.0
  outer loop
    vertex 104.20295861649194 93.96982704985247 5.499999999999998
    vertex 105.20295861649194 92.96982704985247 34.50000000000001
    vertex 105.20295861649194 92.96982704985247 6.499999999999999
  endloop
endfacet
facet normal 0.7071067811865476 0.7071067811865476 -0.0
  outer loop
    vertex 105.20295861649194 92.96982704985247 34.50000000000001
    vertex 104.20295861649194 93.96982704985247 5.499999999999998
    vertex 104.20295861649194 93.96982704985247 34.50000000000001
  endloop
endfacet
facet normal 0.5773502691896258 0.5773502691896258 0.5773502691896257
  outer loop
    vertex 104.20295861649194 93.96982704985247 34.50000000000001
    vertex 104.20295861649194 92.96982704985247 35.5
    vertex 105.20295861649194 92.96982704985247 34.50000000000001
  endloop
endfacet
facet normal -0.7071067811865476 0.7071067811865476 -0.0
  outer loop
    vertex 77.20295861649194 93.96982704985247 1.9999999999999998
    vertex 76.20295861649194 92.96982704985247 0.9999999999999999
    vertex 76.20295861649194 92.96982704985247 1.9999999999999998
  endloop
endfacet
facet normal -0.7071067811865476 0.7071067811865476 -0.0
  outer loop
    vertex 76.20295861649194 92.96982704985247 0.9999999999999999
    vertex 77.20295861649194 93.96982704985247 1.9999999999999998
    vertex 77.20295861649194 93.96982704985247 0.9999999999999999
  endloop
endfacet
facet normal -0.5773502691896261 -0.5773502691896261 -0.5773502691896252
  outer loop
    vertex 77.20295861649194 59.96982704985246 0.0
    vertex 77.20295861649194 58.96982704985246 0.9999999999999999
    vertex 76.20295861649194 59.96982704985246 0.9999999999999999
  endloop
endfacet
facet normal -0.5773502691896258 0.5773502691896258 0.5773502691896257
  outer loop
    vertex 102.20295861649194 93.96982704985247 34.50000000000001
    vertex 101.20295861649194 92.96982704985247 34.50000000000001
    vertex 102.20295861649194 92.96982704985247 35.5
  endloop
endfacet
facet normal -0.7071067811865481 0.0 -0.7071067811865469
  outer loop
    vertex 76.20295861649194 92.96982704985247 0.9999999999999999
    vertex 77.20295861649194 59.96982704985246 0.0
    vertex 76.20295861649194 59.96982704985246 0.9999999999999999
  endloop
endfacet
facet normal -0.7071067811865481 0.0 -0.7071067811865469
  outer loop
    vertex 77.20295861649194 59.96982704985246 0.0
    vertex 76.20295861649194 92.96982704985247 0.9999999999999999
    vertex 77.20295861649194 92.96982704985247 0.0
  endloop
endfacet
facet normal 0.7071067811865476 0.7071067811865476 -0.0
  outer loop
    vertex 150.20295861649194 93.96982704985247 0.9999999999999999
    vertex 151.20295861649194 92.96982704985247 1.9999999999999998
    vertex 151.20295861649194 92.96982704985247 0.9999999999999999
  endloop
endfacet
facet normal 0.7071067811865476 0.7071067811865476 -0.0
  outer loop
    vertex 151.20295861649194 92.96982704985247 1.9999999999999998
    vertex 150.20295861649194 93.96982704985247 0.9999999999999999
    vertex 150.20295861649194 93.96982704985247 1.9999999999999998
  endloop
endfacet
facet normal -0.0 -0.0 1.0
  outer loop
    vertex 101.20295861649194 59.96982704985246 5.499999999999998
    vertex 76.20295861649194 92.96982704985247 5.499999999999998
    vertex 76.20295861649194 59.96982704985246 5.499999999999998
  endloop
endfacet
facet normal -0.0 -0.0 1.0
  outer loop
    vertex 76.20295861649194 92.96982704985247 5.499999999999998
    vertex 101.20295861649194 59.96982704985246 5.499999999999998
    vertex 77.20295861649194 93.96982704985247 5.499999999999998
  endloop
endfacet
facet normal -0.0 -0.0 1.0
  outer loop
    vertex 77.20295861649194 93.96982704985247 5.499999999999998
    vertex 101.20295861649194 59.96982704985246 5.499999999999998
    vertex 101.20295861649194 93.96982704985247 5.499999999999998
  endloop
endfacet
facet normal -0.0 -0.0 1.0
  outer loop
    vertex 101.20295861649194 93.96982704985247 5.499999999999998
    vertex 101.20295861649194 59.96982704985246 5.499999999999998
    vertex 101.20295861649194 68.96982704985247 5.499999999999998
  endloop
endfacet
facet normal -0.0 -0.0 1.0
  outer loop
    vertex 101.20295861649194 93.96982704985247 5.499999999999998
    vertex 101.20295861649194 68.96982704985247 5.499999999999998
    vertex 101.20295861649194 92.96982704985247 5.499999999999998
  endloop
endfacet
facet normal -0.0 -0.0 1.0
  outer loop
    vertex 101.20295861649194 93.96982704985247 5.499999999999998
    vertex 101.20295861649194 92.96982704985247 5.499999999999998
    vertex 102.20295861649194 93.96982704985247 5.499999999999998
  endloop
endfacet
facet normal 0.4999999999999993 0.4999999999999994 -0.7071067811865485
  outer loop
    vertex 150.20295861649194 93.96982704985247 0.9999999999999999
    vertex 150.20295861649194 92.55561348747938 0.0
    vertex 149.78874505411883 92.96982704985247 0.0
  endloop
endfacet
facet normal 0.4999999999999993 0.4999999999999994 -0.7071067811865485
  outer loop
    vertex 150.20295861649194 92.55561348747938 0.0
    vertex 150.20295861649194 93.96982704985247 0.9999999999999999
    vertex 151.20295861649194 92.96982704985247 0.9999999999999999
  endloop
endfacet
facet normal -5.292869872123769e-20 0.7071067811865481 -0.7071067811865469
  outer loop
    vertex 77.20295861649194 93.96982704985247 0.9999999999999999
    vertex 149.78874505411883 92.96982704985247 0.0
    vertex 77.20295861649194 92.96982704985247 0.0
  endloop
endfacet
facet normal -5.292869872123769e-20 0.7071067811865481 -0.7071067811865469
  outer loop
    vertex 149.78874505411883 92.96982704985247 0.0
    vertex 77.20295861649194 93.96982704985247 0.9999999999999999
    vertex 150.20295861649194 93.96982704985247 0.9999999999999999
  endloop
endfacet
facet normal -4.88705875484472e-17 -0.7071067811865488 -0.7071067811865462
  outer loop
    vertex 219.9782137451004 58.96982704985246 0.9999999999999922
    vertex 77.20295861649194 59.96982704985246 0.0
    vertex 219.7887450541189 59.96982704985246 -2.1915209199874525e-14
  endloop
endfacet
facet normal -4.88705875484472e-17 -0.7071067811865488 -0.7071067811865462
  outer loop
    vertex 77.20295861649194 59.96982704985246 0.0
    vertex 219.9782137451004 58.96982704985246 0.9999999999999922
    vertex 77.20295861649194 58.96982704985246 0.9999999999999999
  endloop
endfacet
facet normal -0.5773502691896261 0.5773502691896261 -0.5773502691896252
  outer loop
    vertex 77.20295861649194 93.96982704985247 0.9999999999999999
    vertex 77.20295861649194 92.96982704985247 0.0
    vertex 76.20295861649194 92.96982704985247 0.9999999999999999
  endloop
endfacet
facet normal -0.0 0.7071067811865485 0.7071067811865466
  outer loop
    vertex 105.20295861649194 92.96982704985247 6.499999999999999
    vertex 106.20295861649194 93.96982704985247 5.499999999999998
    vertex 104.20295861649194 93.96982704985247 5.499999999999998
  endloop
endfacet
facet normal 0.0 -1.0 0.0
  outer loop
    vertex 219.9782137451004 58.96982704985246 0.9999999999999922
    vertex 111.20295861649196 58.96982704985246 4.299999999999999
    vertex 77.20295861649194 58.96982704985246 0.9999999999999999
  endloop
endfacet
facet normal 0.0 -1.0 0.0
  outer loop
    vertex 111.20295861649196 58.96982704985246 4.299999999999999
    vertex 219.9782137451004 58.96982704985246 0.9999999999999922
    vertex 219.9782137451004 58.96982704985246 34.50000000000001
  endloop
endfacet
facet normal 0.0 -1.0 0.0
  outer loop
    vertex 111.20295861649196 58.96982704985246 4.299999999999999
    vertex 219.9782137451004 58.96982704985246 34.50000000000001
    vertex 111.20295861649201 58.96982704985246 34.50000000000001
  endloop
endfacet
facet normal 0.0 -1.0 0.0
  outer loop
    vertex 77.20295861649194 58.96982704985246 4.299999999999999
    vertex 77.20295861649194 58.96982704985246 0.9999999999999999
    vertex 111.20295861649196 58.96982704985246 4.299999999999999
  endloop
endfacet
facet normal -0.38268343236508656 -0.9238795325112881 -1.9220234031441514e-18
  outer loop
    vertex 108.61476816546673 59.310568786961795 34.50000000000001
    vertex 107.02317792608952 59.96982704985246 5.499999999999998
    vertex 108.61476816546674 59.31056878696178 4.708890084531179
  endloop
endfacet
facet normal -0.38268343236508656 -0.9238795325112881 -1.9220234031441514e-18
  outer loop
    vertex 107.02317792608952 59.96982704985246 5.499999999999998
    vertex 108.61476816546673 59.310568786961795 34.50000000000001
    vertex 106.20295861649194 60.30957301200808 5.499999999999998
  endloop
endfacet
facet normal -0.38268343236508656 -0.9238795325112881 -1.9220234031441514e-18
  outer loop
    vertex 106.20295861649194 60.30957301200808 5.499999999999998
    vertex 108.61476816546673 59.310568786961795 34.50000000000001
    vertex 106.20295861649196 60.309573012008066 34.50000000000001
  endloop
endfacet
facet normal -0.13052619222005174 -0.9914448613738105 2.8387353297883184e-16
  outer loop
    vertex 111.20295861649201 58.96982704985246 34.50000000000001
    vertex 108.61476816546674 59.31056878696178 4.708890084531179
    vertex 111.20295861649196 58.96982704985246 4.299999999999999
  endloop
endfacet
facet normal -0.13052619222005174 -0.9914448613738105 2.8387353297883184e-16
  outer loop
    vertex 108.61476816546674 59.31056878696178 4.708890084531179
    vertex 111.20295861649201 58.96982704985246 34.50000000000001
    vertex 108.61476816546673 59.310568786961795 34.50000000000001
  endloop
endfacet
facet normal -1.0 0.0 0.0
  outer loop
    vertex 76.20295861649194 59.96982704985246 0.9999999999999999
    vertex 76.20295861649194 62.96982704985247 1.9999999999999998
    vertex 76.20295861649194 92.96982704985247 0.9999999999999999
  endloop
endfacet
facet normal -1.0 0.0 0.0
  outer loop
    vertex 76.20295861649194 62.96982704985247 1.9999999999999998
    vertex 76.20295861649194 59.96982704985246 0.9999999999999999
    vertex 76.20295861649194 62.96982704985247 4.299999999999999
  endloop
endfacet
facet normal -1.0 0.0 0.0
  outer loop
    vertex 76.20295861649194 92.96982704985247 0.9999999999999999
    vertex 76.20295861649194 62.96982704985247 1.9999999999999998
    vertex 76.20295861649194 92.96982704985247 1.9999999999999998
  endloop
endfacet
facet normal -1.0 0.0 0.0
  outer loop
    vertex 76.20295861649194 59.96982704985246 5.499999999999998
    vertex 76.20295861649194 62.96982704985247 4.299999999999999
    vertex 76.20295861649194 59.96982704985246 0.9999999999999999
  endloop
endfacet
facet normal -1.0 0.0 0.0
  outer loop
    vertex 76.20295861649194 62.96982704985247 4.299999999999999
    vertex 76.20295861649194 59.96982704985246 5.499999999999998
    vertex 76.20295861649194 92.96982704985247 5.499999999999998
  endloop
endfacet
facet normal -1.0 0.0 0.0
  outer loop
    vertex 76.20295861649194 62.96982704985247 4.299999999999999
    vertex 76.20295861649194 92.96982704985247 5.499999999999998
    vertex 76.20295861649194 92.96982704985247 4.299999999999999
  endloop
endfacet
facet normal -0.0 1.0 -0.0
  outer loop
    vertex 102.20295861649194 93.96982704985247 34.50000000000001
    vertex 104.20295861649194 93.96982704985247 5.499999999999998
    vertex 102.20295861649194 93.96982704985247 5.499999999999998
  endloop
endfacet
facet normal -0.0 1.0 -0.0
  outer loop
    vertex 104.20295861649194 93.96982704985247 5.499999999999998
    vertex 102.20295861649194 93.96982704985247 34.50000000000001
    vertex 104.20295861649194 93.96982704985247 34.50000000000001
  endloop
endfacet
facet normal -0.0 1.0 -0.0
  outer loop
    vertex 77.20295861649194 93.96982704985247 5.499999999999998
    vertex 150.20295861649194 93.96982704985247 4.299999999999999
    vertex 77.20295861649194 93.96982704985247 4.299999999999999
  endloop
endfacet
facet normal -0.0 1.0 -0.0
  outer loop
    vertex 150.20295861649194 93.96982704985247 4.299999999999999
    vertex 77.20295861649194 93.96982704985247 5.499999999999998
    vertex 150.20295861649194 93.96982704985247 5.499999999999998
  endloop
endfacet
facet normal -0.0 1.0 -0.0
  outer loop
    vertex 150.20295861649194 93.96982704985247 5.499999999999998
    vertex 77.20295861649194 93.96982704985247 5.499999999999998
    vertex 101.20295861649194 93.96982704985247 5.499999999999998
  endloop
endfacet
facet normal -0.0 1.0 -0.0
  outer loop
    vertex 150.20295861649194 93.96982704985247 5.499999999999998
    vertex 101.20295861649194 93.96982704985247 5.499999999999998
    vertex 102.20295861649194 93.96982704985247 5.499999999999998
  endloop
endfacet
facet normal -0.0 1.0 -0.0
  outer loop
    vertex 150.20295861649194 93.96982704985247 5.499999999999998
    vertex 102.20295861649194 93.96982704985247 5.499999999999998
    vertex 104.20295861649194 93.96982704985247 5.499999999999998
  endloop
endfacet
facet normal -0.0 1.0 -0.0
  outer loop
    vertex 150.20295861649194 93.96982704985247 5.499999999999998
    vertex 104.20295861649194 93.96982704985247 5.499999999999998
    vertex 106.20295861649194 93.96982704985247 5.499999999999998
  endloop
endfacet
facet normal 1.0 -0.0 -0.0
  outer loop
    vertex 151.20295861649194 62.96982704985248 0.9999999999999999
    vertex 151.20295861649194 92.96982704985247 1.9999999999999998
    vertex 151.20295861649194 62.96982704985247 1.9999999999999998
  endloop
endfacet
facet normal 1.0 -0.0 -0.0
  outer loop
    vertex 151.20295861649194 92.96982704985247 1.9999999999999998
    vertex 151.20295861649194 62.96982704985248 0.9999999999999999
    vertex 151.20295861649194 92.96982704985247 0.9999999999999999
  endloop
endfacet
facet normal -0.7071067811865476 0.7071067811865476 -0.0
  outer loop
    vertex 77.20295861649194 93.96982704985247 5.499999999999998
    vertex 76.20295861649194 92.96982704985247 4.299999999999999
    vertex 76.20295861649194 92.96982704985247 5.499999999999998
  endloop
endfacet
facet normal -0.7071067811865476 0.7071067811865476 -0.0
  outer loop
    vertex 76.20295861649194 92.96982704985247 4.299999999999999
    vertex 77.20295861649194 93.96982704985247 5.499999999999998
    vertex 77.20295861649194 93.96982704985247 4.299999999999999
  endloop
endfacet
facet normal 0.7071067811865476 0.7071067811865476 -0.0
  outer loop
    vertex 150.20295861649194 93.96982704985247 4.299999999999999
    vertex 151.20295861649194 92.96982704985247 5.499999999999998
    vertex 151.20295861649194 92.96982704985247 4.299999999999999
  endloop
endfacet
facet normal 0.7071067811865476 0.7071067811865476 -0.0
  outer loop
    vertex 151.20295861649194 92.96982704985247 5.499999999999998
    vertex 150.20295861649194 93.96982704985247 4.299999999999999
    vertex 150.20295861649194 93.96982704985247 5.499999999999998
  endloop
endfacet
facet normal -0.7071067811865476 -0.7071067811865476 0.0
  outer loop
    vertex 76.20295861649194 59.96982704985246 5.499999999999998
    vertex 77.20295861649194 58.96982704985246 0.9999999999999999
    vertex 77.20295861649194 58.96982704985246 4.299999999999999
  endloop
endfacet
facet normal -0.7071067811865476 -0.7071067811865476 0.0
  outer loop
    vertex 77.20295861649194 58.96982704985246 0.9999999999999999
    vertex 76.20295861649194 59.96982704985246 5.499999999999998
    vertex 76.20295861649194 59.96982704985246 0.9999999999999999
  endloop
endfacet
facet normal 1.1041144177988188e-17 -0.7682212795973763 0.6401843996644794
  outer loop
    vertex 108.61476816546674 59.31056878696178 4.708890084531179
    vertex 77.20295861649194 58.96982704985246 4.299999999999999
    vertex 111.20295861649196 58.96982704985246 4.299999999999999
  endloop
endfacet
facet normal 1.1041144177988188e-17 -0.7682212795973763 0.6401843996644794
  outer loop
    vertex 77.20295861649194 58.96982704985246 4.299999999999999
    vertex 108.61476816546674 59.31056878696178 4.708890084531179
    vertex 76.20295861649194 59.96982704985246 5.499999999999998
  endloop
endfacet
facet normal 1.1041144177988188e-17 -0.7682212795973763 0.6401843996644794
  outer loop
    vertex 76.20295861649194 59.96982704985246 5.499999999999998
    vertex 108.61476816546674 59.31056878696178 4.708890084531179
    vertex 107.02317792608952 59.96982704985246 5.499999999999998
  endloop
endfacet
facet normal 1.1041144177988188e-17 -0.7682212795973763 0.6401843996644794
  outer loop
    vertex 76.20295861649194 59.96982704985246 5.499999999999998
    vertex 107.02317792608952 59.96982704985246 5.499999999999998
    vertex 101.20295861649194 59.96982704985246 5.499999999999998
  endloop
endfacet
facet normal -1.147799311228831e-16 0.7071067811865503 0.7071067811865448
  outer loop
    vertex 111.20295861649197 62.96982704985247 6.499999999999998
    vertex 150.20295861649194 63.96982704985247 5.499999999999998
    vertex 111.26850207930731 63.969827049852455 5.499999999999998
  endloop
endfacet
facet normal -1.147799311228831e-16 0.7071067811865503 0.7071067811865448
  outer loop
    vertex 150.20295861649194 63.96982704985247 5.499999999999998
    vertex 111.20295861649197 62.96982704985247 6.499999999999998
    vertex 150.20295861649194 62.96982704985247 6.499999999999999
  endloop
endfacet
facet normal 1.0 -0.0 -0.0
  outer loop
    vertex 151.20295861649194 92.96982704985247 4.299999999999999
    vertex 151.20295861649194 62.96982704985247 5.499999999999998
    vertex 151.20295861649194 62.96982704985247 4.299999999999999
  endloop
endfacet
facet normal 1.0 -0.0 -0.0
  outer loop
    vertex 151.20295861649194 62.96982704985247 5.499999999999998
    vertex 151.20295861649194 92.96982704985247 4.299999999999999
    vertex 151.20295861649194 92.96982704985247 5.499999999999998
  endloop
endfacet
facet normal 0.7071067811865481 -3.1595581166842495e-19 -0.7071067811865469
  outer loop
    vertex 150.20295861649194 92.55561348747938 0.0
    vertex 151.20295861649194 62.96982704985248 0.9999999999999999
    vertex 150.20295861649194 62.969827049852455 0.0
  endloop
endfacet
facet normal 0.7071067811865481 -3.1595581166842495e-19 -0.7071067811865469
  outer loop
    vertex 151.20295861649194 62.96982704985248 0.9999999999999999
    vertex 150.20295861649194 92.55561348747938 0.0
    vertex 151.20295861649194 92.96982704985247 0.9999999999999999
  endloop
endfacet
facet normal 0.5773502691896264 0.5773502691896264 0.5773502691896247
  outer loop
    vertex 150.20295861649194 63.96982704985247 5.499999999999998
    vertex 150.20295861649194 62.96982704985247 6.499999999999999
    vertex 151.20295861649194 62.96982704985247 5.499999999999998
  endloop
endfacet
facet normal 1.0 -0.0 -0.0
  outer loop
    vertex 221.20295861649194 60.19457192124406 0.9999999999999827
    vertex 221.20295861649194 61.745082178460876 5.992694063822709
    vertex 221.20295861649194 60.19457192124406 33.99269406382271
  endloop
endfacet
facet normal 1.0 -0.0 -0.0
  outer loop
    vertex 221.20295861649194 61.745082178460876 5.992694063822709
    vertex 221.20295861649194 60.19457192124406 0.9999999999999827
    vertex 221.20295861649194 62.96982704985247 1.9999999999999998
  endloop
endfacet
facet normal 1.0 -0.0 -0.0
  outer loop
    vertex 221.20295861649194 62.96982704985247 1.9999999999999998
    vertex 221.20295861649194 60.19457192124406 0.9999999999999827
    vertex 221.20295861649194 66.96982704985251 0.9999999999999383
  endloop
endfacet
facet normal 1.0 -0.0 -0.0
  outer loop
    vertex 221.20295861649194 60.19457192124406 33.99269406382271
    vertex 221.20295861649194 61.745082178460876 5.992694063822709
    vertex 221.20295861649194 60.47713298602976 34.27525512860841
  endloop
endfacet
facet normal 1.0 -0.0 -0.0
  outer loop
    vertex 221.20295861649194 60.47713298602976 34.27525512860841
    vertex 221.20295861649194 61.745082178460876 5.992694063822709
    vertex 221.20295861649194 61.46252111367518 34.27525512860841
  endloop
endfacet
facet normal 1.0 -0.0 -0.0
  outer loop
    vertex 221.20295861649194 61.745082178460876 5.992694063822709
    vertex 221.20295861649194 62.96982704985247 1.9999999999999998
    vertex 221.20295861649194 62.23777624228358 5.500000000000001
  endloop
endfacet
facet normal 1.0 -0.0 -0.0
  outer loop
    vertex 221.20295861649194 62.96982704985247 1.9999999999999998
    vertex 221.20295861649194 66.96982704985251 0.9999999999999383
    vertex 221.20295861649194 66.96982704985247 1.9999999999999434
  endloop
endfacet
facet normal 1.0 -0.0 -0.0
  outer loop
    vertex 221.20295861649194 62.96982704985247 1.9999999999999998
    vertex 221.20295861649194 62.96982704985247 5.499999999999998
    vertex 221.20295861649194 62.23777624228358 5.500000000000001
  endloop
endfacet
facet normal 1.0 -0.0 -0.0
  outer loop
    vertex 221.20295861649194 62.96982704985247 5.499999999999998
    vertex 221.20295861649194 62.96982704985247 1.9999999999999998
    vertex 221.20295861649194 62.96982704985247 4.299999999999999
  endloop
endfacet
facet normal 1.0 -0.0 -0.0
  outer loop
    vertex 221.20295861649194 62.96982704985247 5.499999999999998
    vertex 221.20295861649194 62.96982704985247 4.299999999999999
    vertex 221.20295861649194 66.96982704985247 4.299999999999981
  endloop
endfacet
facet normal 1.0 -0.0 -0.0
  outer loop
    vertex 221.20295861649194 62.96982704985247 5.499999999999998
    vertex 221.20295861649194 66.96982704985247 4.299999999999981
    vertex 221.20295861649194 66.96982704985247 5.4999999999999805
  endloop
endfacet
facet normal 1.0 -0.0 -0.0
  outer loop
    vertex 221.20295861649194 61.745082178460876 33.99269406382271
    vertex 221.20295861649194 61.46252111367518 34.27525512860841
    vertex 221.20295861649194 61.745082178460876 5.992694063822709
  endloop
endfacet
facet normal 6.208371455573472e-19 -4.63928007063032e-15 -1.0
  outer loop
    vertex 172.20295861649194 67.96982704985247 4.299999999999976
    vertex 171.20295861649194 62.969827049852455 4.299999999999999
    vertex 171.20295861649194 66.96982704985247 4.299999999999981
  endloop
endfacet
facet normal 6.208371455573472e-19 -4.63928007063032e-15 -1.0
  outer loop
    vertex 171.20295861649194 62.969827049852455 4.299999999999999
    vertex 172.20295861649194 67.96982704985247 4.299999999999976
    vertex 221.20295861649194 62.96982704985247 4.299999999999999
  endloop
endfacet
facet normal 6.208371455573472e-19 -4.63928007063032e-15 -1.0
  outer loop
    vertex 221.20295861649194 62.96982704985247 4.299999999999999
    vertex 172.20295861649194 67.96982704985247 4.299999999999976
    vertex 220.20295861649194 67.96982704985247 4.299999999999976
  endloop
endfacet
facet normal 6.208371455573472e-19 -4.63928007063032e-15 -1.0
  outer loop
    vertex 221.20295861649194 62.96982704985247 4.299999999999999
    vertex 220.20295861649194 67.96982704985247 4.299999999999976
    vertex 221.20295861649194 66.96982704985247 4.299999999999981
  endloop
endfacet
facet normal -1.0 0.0 0.0
  outer loop
    vertex 171.20295861649194 62.969827049852455 4.299999999999999
    vertex 171.20295861649194 63.96982704985247 5.499999999999994
    vertex 171.20295861649194 66.96982704985247 4.299999999999981
  endloop
endfacet
facet normal -1.0 0.0 0.0
  outer loop
    vertex 171.20295861649194 63.96982704985247 5.499999999999994
    vertex 171.20295861649194 62.969827049852455 4.299999999999999
    vertex 171.20295861649194 62.96982704985247 6.499999999999998
  endloop
endfacet
facet normal -1.0 0.0 0.0
  outer loop
    vertex 171.20295861649194 66.96982704985247 4.299999999999981
    vertex 171.20295861649194 63.96982704985247 5.499999999999994
    vertex 171.20295861649194 66.96982704985247 5.4999999999999805
  endloop
endfacet
facet normal -3.975190957185341e-18 4.586071273462041e-15 1.0
  outer loop
    vertex 219.9782137451004 63.96982704985247 5.499999999999994
    vertex 171.20295861649194 66.96982704985247 5.4999999999999805
    vertex 171.20295861649194 63.96982704985247 5.499999999999994
  endloop
endfacet
facet normal -3.975190957185341e-18 4.586071273462041e-15 1.0
  outer loop
    vertex 171.20295861649194 66.96982704985247 5.4999999999999805
    vertex 219.9782137451004 63.96982704985247 5.499999999999994
    vertex 172.20295861649194 67.96982704985247 5.499999999999975
  endloop
endfacet
facet normal -3.975190957185341e-18 4.586071273462041e-15 1.0
  outer loop
    vertex 172.20295861649194 67.96982704985247 5.499999999999975
    vertex 219.9782137451004 63.96982704985247 5.499999999999994
    vertex 220.20295861649194 67.96982704985247 5.499999999999975
  endloop
endfacet
facet normal -3.975190957185341e-18 4.586071273462041e-15 1.0
  outer loop
    vertex 220.20295861649194 67.96982704985247 5.499999999999975
    vertex 219.9782137451004 63.96982704985247 5.499999999999994
    vertex 221.20295861649194 62.23777624228358 5.500000000000001
  endloop
endfacet
facet normal -3.975190957185341e-18 4.586071273462041e-15 1.0
  outer loop
    vertex 220.20295861649194 67.96982704985247 5.499999999999975
    vertex 221.20295861649194 62.23777624228358 5.500000000000001
    vertex 221.20295861649194 66.96982704985247 5.4999999999999805
  endloop
endfacet
facet normal -3.975190957185341e-18 4.586071273462041e-15 1.0
  outer loop
    vertex 221.20295861649194 66.96982704985247 5.4999999999999805
    vertex 221.20295861649194 62.23777624228358 5.500000000000001
    vertex 221.20295861649194 62.96982704985247 5.499999999999998
  endloop
endfacet
facet normal -1.5496325718677142e-15 1.033025048215396e-14 1.0
  outer loop
    vertex 181.20295861649197 66.96982704985246 1.9999999999999714
    vertex 180.20295861649197 67.96982704985246 1.9999999999999605
    vertex 181.20295861649197 63.96982704985245 1.9999999999999925
  endloop
endfacet
facet normal -1.5496325718677142e-15 1.033025048215396e-14 1.0
  outer loop
    vertex 182.20295861649194 62.96982704985245 1.9999999999999996
    vertex 171.20295861649194 66.96982704985246 1.9999999999999432
    vertex 171.20295861649194 62.96982704985245 1.9999999999999996
  endloop
endfacet
facet normal -1.5496325718677142e-15 1.033025048215396e-14 1.0
  outer loop
    vertex 171.20295861649194 66.96982704985246 1.9999999999999432
    vertex 182.20295861649194 62.96982704985245 1.9999999999999996
    vertex 172.20295861649194 67.96982704985246 1.999999999999929
  endloop
endfacet
facet normal -1.5496325718677142e-15 1.033025048215396e-14 1.0
  outer loop
    vertex 172.20295861649194 67.96982704985246 1.999999999999929
    vertex 182.20295861649194 62.96982704985245 1.9999999999999996
    vertex 181.20295861649197 63.96982704985245 1.9999999999999925
  endloop
endfacet
facet normal -1.5496325718677142e-15 1.033025048215396e-14 1.0
  outer loop
    vertex 172.20295861649194 67.96982704985246 1.999999999999929
    vertex 181.20295861649197 63.96982704985245 1.9999999999999925
    vertex 180.20295861649197 67.96982704985246 1.9999999999999605
  endloop
endfacet
facet normal 0.7071067811865475 0.7071067811865476 1.5991574887136744e-29
  outer loop
    vertex 220.20295861649194 67.96982704985247 5.499999999999975
    vertex 221.20295861649194 66.96982704985247 4.299999999999981
    vertex 220.20295861649194 67.96982704985247 4.299999999999976
  endloop
endfacet
facet normal 0.7071067811865475 0.7071067811865476 1.5991574887136744e-29
  outer loop
    vertex 221.20295861649194 66.96982704985247 4.299999999999981
    vertex 220.20295861649194 67.96982704985247 5.499999999999975
    vertex 221.20295861649194 66.96982704985247 5.4999999999999805
  endloop
endfacet
facet normal 0.7071067811865476 0.7071067811865476 3.187760098829726e-14
  outer loop
    vertex 221.20295861649194 66.96982704985251 0.9999999999999383
    vertex 220.20295861649194 67.96982704985247 1.9999999999999294
    vertex 221.20295861649194 66.96982704985247 1.9999999999999434
  endloop
endfacet
facet normal 0.7071067811865476 0.7071067811865476 3.187760098829726e-14
  outer loop
    vertex 220.20295861649194 67.96982704985247 1.9999999999999294
    vertex 221.20295861649194 66.96982704985251 0.9999999999999383
    vertex 220.202958616492 67.96982704985247 0.9999999999999294
  endloop
endfacet
facet normal 5.322351763192679e-18 0.7071067811865495 0.7071067811865457
  outer loop
    vertex 171.20295861649194 62.96982704985247 6.499999999999998
    vertex 219.9782137451004 63.96982704985247 5.499999999999994
    vertex 171.20295861649194 63.96982704985247 5.499999999999994
  endloop
endfacet
facet normal 5.322351763192679e-18 0.7071067811865495 0.7071067811865457
  outer loop
    vertex 219.9782137451004 63.96982704985247 5.499999999999994
    vertex 171.20295861649194 62.96982704985247 6.499999999999998
    vertex 219.9782137451004 62.96982704985247 6.4999999999999964
  endloop
endfacet
facet normal -0.0 1.0 -0.0
  outer loop
    vertex 172.20295861649194 67.96982704985247 5.499999999999975
    vertex 220.20295861649194 67.96982704985247 4.299999999999976
    vertex 172.20295861649194 67.96982704985247 4.299999999999976
  endloop
endfacet
facet normal -0.0 1.0 -0.0
  outer loop
    vertex 220.20295861649194 67.96982704985247 4.299999999999976
    vertex 172.20295861649194 67.96982704985247 5.499999999999975
    vertex 220.20295861649194 67.96982704985247 5.499999999999975
  endloop
endfacet
facet normal -0.7071067811865476 0.7071067811865476 -0.0
  outer loop
    vertex 172.20295861649194 67.96982704985247 5.499999999999975
    vertex 171.20295861649194 66.96982704985247 4.299999999999981
    vertex 171.20295861649194 66.96982704985247 5.4999999999999805
  endloop
endfacet
facet normal -0.7071067811865476 0.7071067811865476 -0.0
  outer loop
    vertex 171.20295861649194 66.96982704985247 4.299999999999981
    vertex 172.20295861649194 67.96982704985247 5.499999999999975
    vertex 172.20295861649194 67.96982704985247 4.299999999999976
  endloop
endfacet
facet normal -0.7071067811865476 0.7071067811865476 -1.592643524938989e-14
  outer loop
    vertex 171.20295861649194 66.96982704985246 1.9999999999999432
    vertex 172.20295861649194 67.9698270498524 0.9999999999999294
    vertex 171.20295861649194 66.96982704985243 0.9999999999999435
  endloop
endfacet
facet normal -0.7071067811865476 0.7071067811865476 -1.592643524938989e-14
  outer loop
    vertex 172.20295861649194 67.9698270498524 0.9999999999999294
    vertex 171.20295861649194 66.96982704985246 1.9999999999999432
    vertex 172.20295861649194 67.96982704985246 1.999999999999929
  endloop
endfacet
facet normal -2.1149748619108653e-15 1.0 -2.8199664825478257e-14
  outer loop
    vertex 172.20295861649194 67.96982704985246 1.999999999999929
    vertex 180.20295861649197 67.96982704985244 0.9999999999999294
    vertex 172.20295861649194 67.9698270498524 0.9999999999999294
  endloop
endfacet
facet normal -2.1149748619108653e-15 1.0 -2.8199664825478257e-14
  outer loop
    vertex 180.20295861649197 67.96982704985244 0.9999999999999294
    vertex 172.20295861649194 67.96982704985246 1.999999999999929
    vertex 180.20295861649197 67.96982704985246 1.9999999999999605
  endloop
endfacet
facet normal -1.0 0.0 0.0
  outer loop
    vertex 171.20295861649194 62.96982704985245 1.9999999999999996
    vertex 171.20295861649194 66.96982704985243 0.9999999999999435
    vertex 171.20295861649194 62.96982704985243 0.9999999999999999
  endloop
endfacet
facet normal -1.0 0.0 0.0
  outer loop
    vertex 171.20295861649194 66.96982704985243 0.9999999999999435
    vertex 171.20295861649194 62.96982704985245 1.9999999999999996
    vertex 171.20295861649194 66.96982704985246 1.9999999999999432
  endloop
endfacet
facet normal 0.4999999999999989 0.49999999999999145 -0.7071067811865543
  outer loop
    vertex 220.202958616492 67.96982704985247 0.9999999999999294
    vertex 220.20295861649194 66.55561348747939 -6.096082299485245e-14
    vertex 219.7887450541189 66.96982704985246 -6.932582051680372e-14
  endloop
endfacet
facet normal 0.4999999999999989 0.49999999999999145 -0.7071067811865543
  outer loop
    vertex 220.20295861649194 66.55561348747939 -6.096082299485245e-14
    vertex 220.202958616492 67.96982704985247 0.9999999999999294
    vertex 221.20295861649194 66.96982704985251 0.9999999999999383
  endloop
endfacet
facet normal -0.500000000000001 0.49999999999998934 -0.7071067811865545
  outer loop
    vertex 172.20295861649194 67.9698270498524 0.9999999999999294
    vertex 172.20295861649194 66.5556134874793 -5.593189084085196e-14
    vertex 171.20295861649194 66.96982704985243 0.9999999999999435
  endloop
endfacet
facet normal -0.500000000000001 0.49999999999998934 -0.7071067811865545
  outer loop
    vertex 172.20295861649194 66.5556134874793 -5.593189084085196e-14
    vertex 172.20295861649194 67.9698270498524 0.9999999999999294
    vertex 172.61717217886505 66.96982704985241 -6.87914231018993e-14
  endloop
endfacet
facet normal -0.7071067811865492 -1.0409815470425957e-14 -0.7071067811865459
  outer loop
    vertex 171.20295861649194 62.96982704985243 0.9999999999999999
    vertex 172.20295861649194 66.5556134874793 -5.593189084085196e-14
    vertex 172.20295861649194 62.969827049852405 -3.3931201799700053e-16
  endloop
endfacet
facet normal -0.7071067811865492 -1.0409815470425957e-14 -0.7071067811865459
  outer loop
    vertex 172.20295861649194 66.5556134874793 -5.593189084085196e-14
    vertex 171.20295861649194 62.96982704985243 0.9999999999999999
    vertex 171.20295861649194 66.96982704985243 0.9999999999999435
  endloop
endfacet
facet normal 0.7071067811865471 -5.085362177996825e-15 -0.707106781186548
  outer loop
    vertex 221.20295861649194 66.96982704985251 0.9999999999999383
    vertex 220.20295861649194 60.37509270436172 -1.578727122118155e-14
    vertex 220.20295861649194 66.55561348747939 -6.096082299485245e-14
  endloop
endfacet
facet normal 0.7071067811865471 -5.085362177996825e-15 -0.707106781186548
  outer loop
    vertex 220.20295861649194 60.37509270436172 -1.578727122118155e-14
    vertex 221.20295861649194 66.96982704985251 0.9999999999999383
    vertex 221.20295861649194 60.19457192124406 0.9999999999999827
  endloop
endfacet
facet normal -0.0 -0.0 1.0
  outer loop
    vertex 102.51796111576877 66.64268898326728 35.5
    vertex 102.20295861649194 92.96982704985247 35.5
    vertex 102.20295861649194 69.0353705126679 35.5
  endloop
endfacet
facet normal -0.0 -0.0 1.0
  outer loop
    vertex 102.20295861649194 92.96982704985247 35.5
    vertex 102.51796111576877 66.64268898326728 35.5
    vertex 104.20295861649194 92.96982704985247 35.5
  endloop
endfacet
facet normal -0.0 -0.0 1.0
  outer loop
    vertex 104.20295861649194 92.96982704985247 35.5
    vertex 102.51796111576877 66.64268898326728 35.5
    vertex 103.41620288150267 64.47414153014253 35.5
  endloop
endfacet
facet normal -0.0 -0.0 1.0
  outer loop
    vertex 104.20295861649194 92.96982704985247 35.5
    vertex 103.41620288150267 64.47414153014253 35.5
    vertex 104.20295861649194 68.90428358703727 35.5
  endloop
endfacet
facet normal -0.0 -0.0 1.0
  outer loop
    vertex 104.8450991823538 62.61196761571436 35.5
    vertex 104.20295861649194 68.90428358703727 35.5
    vertex 103.41620288150267 64.47414153014253 35.5
  endloop
endfacet
facet normal -0.0 -0.0 1.0
  outer loop
    vertex 104.20295861649194 68.90428358703727 35.5
    vertex 104.8450991823538 62.61196761571436 35.5
    vertex 104.43314289659008 67.1558603947972 35.5
  endloop
endfacet
facet normal -0.0 -0.0 1.0
  outer loop
    vertex 104.43314289659008 67.1558603947972 35.5
    vertex 104.8450991823538 62.61196761571436 35.5
    vertex 105.13330789093017 65.46551256956243 35.5
  endloop
endfacet
facet normal -0.0 -0.0 1.0
  outer loop
    vertex 105.13330789093017 65.46551256956243 35.5
    vertex 104.8450991823538 62.61196761571436 35.5
    vertex 105.20295861649194 62.96982704985247 35.5
  endloop
endfacet
facet normal -0.0 -0.0 1.0
  outer loop
    vertex 105.20295861649194 62.96982704985247 35.5
    vertex 104.8450991823538 62.61196761571436 35.5
    vertex 106.707273096782 61.183071314863184 35.5
  endloop
endfacet
facet normal -0.0 -0.0 1.0
  outer loop
    vertex 105.20295861649194 62.96982704985247 35.5
    vertex 106.707273096782 61.183071314863184 35.5
    vertex 107.60787354341302 62.96982704985247 35.5
  endloop
endfacet
facet normal -0.0 -0.0 1.0
  outer loop
    vertex 107.60787354341302 62.96982704985247 35.5
    vertex 106.707273096782 61.183071314863184 35.5
    vertex 108.87582054990683 60.284829549129256 35.5
  endloop
endfacet
facet normal -0.0 -0.0 1.0
  outer loop
    vertex 107.60787354341302 62.96982704985247 35.5
    vertex 108.87582054990683 60.284829549129256 35.5
    vertex 107.69864413620192 62.9001763242907 35.5
  endloop
endfacet
facet normal -0.0 -0.0 1.0
  outer loop
    vertex 107.69864413620192 62.9001763242907 35.5
    vertex 108.87582054990683 60.284829549129256 35.5
    vertex 109.38899196143664 62.20001132995061 35.5
  endloop
endfacet
facet normal -0.0 -0.0 1.0
  outer loop
    vertex 109.38899196143664 62.20001132995061 35.5
    vertex 108.87582054990683 60.284829549129256 35.5
    vertex 111.26850207930724 59.96982704985246 35.5
  endloop
endfacet
facet normal -0.0 -0.0 1.0
  outer loop
    vertex 109.38899196143664 62.20001132995061 35.5
    vertex 111.26850207930724 59.96982704985246 35.5
    vertex 111.13741515367674 61.96982704985247 35.5
  endloop
endfacet
facet normal -0.0 -0.0 1.0
  outer loop
    vertex 111.13741515367674 61.96982704985247 35.5
    vertex 111.26850207930724 59.96982704985246 35.5
    vertex 219.9782137451004 61.96982704985247 35.5
  endloop
endfacet
facet normal -0.0 -0.0 1.0
  outer loop
    vertex 219.9782137451004 61.96982704985247 35.5
    vertex 111.26850207930724 59.96982704985246 35.5
    vertex 219.9782137451004 59.96982704985246 35.5
  endloop
endfacet
facet normal -0.0 -0.0 1.0
  outer loop
    vertex 105.20295861649194 65.37474197677355 35.5
    vertex 105.13330789093017 65.46551256956243 35.5
    vertex 105.20295861649194 62.96982704985247 35.5
  endloop
endfacet
facet normal -0.0 0.7071067811865476 0.7071067811865476
  outer loop
    vertex 111.13741515367674 61.96982704985247 35.5
    vertex 219.9782137451004 62.96982704985247 34.50000000000001
    vertex 111.20295861649197 62.96982704985247 34.50000000000001
  endloop
endfacet
facet normal -0.0 0.7071067811865476 0.7071067811865476
  outer loop
    vertex 219.9782137451004 62.96982704985247 34.50000000000001
    vertex 111.13741515367674 61.96982704985247 35.5
    vertex 219.9782137451004 61.96982704985247 35.5
  endloop
endfacet
facet normal -0.0 -0.7071067811865476 0.7071067811865476
  outer loop
    vertex 219.9782137451004 59.96982704985246 35.5
    vertex 111.20295861649201 58.96982704985246 34.50000000000001
    vertex 219.9782137451004 58.96982704985246 34.50000000000001
  endloop
endfacet
facet normal -0.0 -0.7071067811865476 0.7071067811865476
  outer loop
    vertex 111.20295861649201 58.96982704985246 34.50000000000001
    vertex 219.9782137451004 59.96982704985246 35.5
    vertex 111.26850207930724 59.96982704985246 35.5
  endloop
endfacet
facet normal 0.7071067811865541 0.707106781186541 1.2719326066031873e-18
  outer loop
    vertex 219.9782137451004 62.96982704985247 6.4999999999999964
    vertex 221.20295861649194 61.745082178460876 33.99269406382271
    vertex 221.20295861649194 61.745082178460876 5.992694063822709
  endloop
endfacet
facet normal 0.7071067811865541 0.707106781186541 1.2719326066031873e-18
  outer loop
    vertex 221.20295861649194 61.745082178460876 33.99269406382271
    vertex 219.9782137451004 62.96982704985247 6.4999999999999964
    vertex 219.9782137451004 62.96982704985247 34.50000000000001
  endloop
endfacet
facet normal 0.7071067811865541 0.49999999999999656 0.49999999999999406
  outer loop
    vertex 221.20295861649194 62.23777624228358 5.500000000000001
    vertex 219.9782137451004 62.96982704985247 6.4999999999999964
    vertex 221.20295861649194 61.745082178460876 5.992694063822709
  endloop
endfacet
facet normal 0.7071067811865541 0.49999999999999656 0.49999999999999406
  outer loop
    vertex 219.9782137451004 62.96982704985247 6.4999999999999964
    vertex 221.20295861649194 62.23777624228358 5.500000000000001
    vertex 219.9782137451004 63.96982704985247 5.499999999999994
  endloop
endfacet
facet normal 0.7071067811865549 -0.4999999999999949 0.49999999999999484
  outer loop
    vertex 221.20295861649194 60.19457192124406 33.99269406382271
    vertex 219.9782137451004 59.96982704985246 35.5
    vertex 219.9782137451004 58.96982704985246 34.50000000000001
  endloop
endfacet
facet normal 0.7071067811865549 -0.4999999999999949 0.49999999999999484
  outer loop
    vertex 219.9782137451004 59.96982704985246 35.5
    vertex 221.20295861649194 60.19457192124406 33.99269406382271
    vertex 221.20295861649194 60.47713298602976 34.27525512860841
  endloop
endfacet
facet normal 0.7071067811865549 0.49999999999999484 0.49999999999999484
  outer loop
    vertex 221.20295861649194 61.745082178460876 33.99269406382271
    vertex 219.9782137451004 61.96982704985247 35.5
    vertex 221.20295861649194 61.46252111367518 34.27525512860841
  endloop
endfacet
facet normal 0.7071067811865549 0.49999999999999484 0.49999999999999484
  outer loop
    vertex 219.9782137451004 61.96982704985247 35.5
    vertex 221.20295861649194 61.745082178460876 33.99269406382271
    vertex 219.9782137451004 62.96982704985247 34.50000000000001
  endloop
endfacet
facet normal 0.7071067811865541 -0.707106781186541 -6.014170798014999e-19
  outer loop
    vertex 221.20295861649194 60.19457192124406 0.9999999999999827
    vertex 219.9782137451004 58.96982704985246 34.50000000000001
    vertex 219.9782137451004 58.96982704985246 0.9999999999999922
  endloop
endfacet
facet normal 0.7071067811865541 -0.707106781186541 -6.014170798014999e-19
  outer loop
    vertex 219.9782137451004 58.96982704985246 34.50000000000001
    vertex 221.20295861649194 60.19457192124406 0.9999999999999827
    vertex 221.20295861649194 60.19457192124406 33.99269406382271
  endloop
endfacet
facet normal 0.707106781186554 -0.0 0.707106781186541
  outer loop
    vertex 221.20295861649194 60.47713298602976 34.27525512860841
    vertex 219.9782137451004 61.96982704985247 35.5
    vertex 219.9782137451004 59.96982704985246 35.5
  endloop
endfacet
facet normal 0.707106781186554 -0.0 0.707106781186541
  outer loop
    vertex 219.9782137451004 61.96982704985247 35.5
    vertex 221.20295861649194 60.47713298602976 34.27525512860841
    vertex 221.20295861649194 61.46252111367518 34.27525512860841
  endloop
endfacet
facet normal 0.5413898261489543 -0.5425811628124106 -0.6422637603847327
  outer loop
    vertex 220.20295861649194 60.37509270436172 -1.578727122118155e-14
    vertex 219.9782137451004 58.96982704985246 0.9999999999999922
    vertex 219.7887450541189 59.96982704985246 -2.1915209199874525e-14
  endloop
endfacet
facet normal 0.5413898261489543 -0.5425811628124106 -0.6422637603847327
  outer loop
    vertex 219.9782137451004 58.96982704985246 0.9999999999999922
    vertex 220.20295861649194 60.37509270436172 -1.578727122118155e-14
    vertex 221.20295861649194 60.19457192124406 0.9999999999999827
  endloop
endfacet
facet normal -1.852652900091402e-15 0.7071067811865426 -0.7071067811865526
  outer loop
    vertex 180.20295861649197 67.96982704985244 0.9999999999999294
    vertex 172.61717217886505 66.96982704985241 -6.87914231018993e-14
    vertex 172.20295861649194 67.9698270498524 0.9999999999999294
  endloop
endfacet
facet normal -1.852652900091402e-15 0.7071067811865426 -0.7071067811865526
  outer loop
    vertex 172.61717217886505 66.96982704985241 -6.87914231018993e-14
    vertex 180.20295861649197 67.96982704985244 0.9999999999999294
    vertex 180.20295861649197 66.96982704985246 -3.0071202308840764e-14
  endloop
endfacet
facet normal 2.1096061543603374e-15 6.492331540290674e-15 1.0
  outer loop
    vertex 221.20295861649194 62.96982704985247 1.9999999999999998
    vertex 206.20295861649194 63.96982704985247 1.9999999999999998
    vertex 205.20295861649194 62.96982704985247 1.9999999999999998
  endloop
endfacet
facet normal 2.1096061543603374e-15 6.492331540290674e-15 1.0
  outer loop
    vertex 206.20295861649194 63.96982704985247 1.9999999999999998
    vertex 221.20295861649194 62.96982704985247 1.9999999999999998
    vertex 206.20295861649194 66.96982704985246 1.9999999999999998
  endloop
endfacet
facet normal 2.1096061543603374e-15 6.492331540290674e-15 1.0
  outer loop
    vertex 206.20295861649194 66.96982704985246 1.9999999999999998
    vertex 221.20295861649194 62.96982704985247 1.9999999999999998
    vertex 207.20295861649194 67.96982704985243 1.999999999999995
  endloop
endfacet
facet normal 2.1096061543603374e-15 6.492331540290674e-15 1.0
  outer loop
    vertex 207.20295861649194 67.96982704985243 1.999999999999995
    vertex 221.20295861649194 62.96982704985247 1.9999999999999998
    vertex 220.20295861649194 67.96982704985247 1.9999999999999294
  endloop
endfacet
facet normal 2.1096061543603374e-15 6.492331540290674e-15 1.0
  outer loop
    vertex 220.20295861649194 67.96982704985247 1.9999999999999294
    vertex 221.20295861649194 62.96982704985247 1.9999999999999998
    vertex 221.20295861649194 66.96982704985247 1.9999999999999434
  endloop
endfacet
facet normal -0.7071067811865435 0.7071067811865516 -7.963217624694382e-15
  outer loop
    vertex 205.20295861649194 62.96982704985247 0.9999999999999644
    vertex 206.20295861649194 63.96982704985247 1.9999999999999998
    vertex 206.20295861649194 63.96982704985245 0.9999999999999615
  endloop
endfacet
facet normal -0.7071067811865435 0.7071067811865516 -7.963217624694382e-15
  outer loop
    vertex 206.20295861649194 63.96982704985247 1.9999999999999998
    vertex 205.20295861649194 62.96982704985247 0.9999999999999644
    vertex 205.20295861649194 62.96982704985247 1.9999999999999998
  endloop
endfacet
facet normal 0.7071067811865476 0.7071067811865476 -0.0
  outer loop
    vertex 181.20295861649197 63.96982704985245 0.9999999999999721
    vertex 182.20295861649194 62.96982704985245 1.9999999999999996
    vertex 182.20295861649194 62.96982704985245 0.9999999999999717
  endloop
endfacet
facet normal 0.7071067811865476 0.7071067811865476 -0.0
  outer loop
    vertex 182.20295861649194 62.96982704985245 1.9999999999999996
    vertex 181.20295861649197 63.96982704985245 0.9999999999999721
    vertex 181.20295861649197 63.96982704985245 1.9999999999999925
  endloop
endfacet
facet normal -1.0 0.0 0.0
  outer loop
    vertex 206.20295861649194 63.96982704985247 1.9999999999999998
    vertex 206.20295861649194 66.96982704985246 0.9999999999999374
    vertex 206.20295861649194 63.96982704985245 0.9999999999999615
  endloop
endfacet
facet normal -1.0 0.0 0.0
  outer loop
    vertex 206.20295861649194 66.96982704985246 0.9999999999999374
    vertex 206.20295861649194 63.96982704985247 1.9999999999999998
    vertex 206.20295861649194 66.96982704985246 1.9999999999999998
  endloop
endfacet
facet normal 4.2618379793392687e-17 1.0 -4.790862507510995e-16
  outer loop
    vertex 150.20295861649194 62.969827049852455 0.0
    vertex 171.20295861649194 62.96982704985243 0.9999999999999999
    vertex 172.20295861649194 62.969827049852405 -3.3931201799700053e-16
  endloop
endfacet
facet normal 4.2618379793392687e-17 1.0 -4.790862507510995e-16
  outer loop
    vertex 171.20295861649194 62.96982704985243 0.9999999999999999
    vertex 150.20295861649194 62.969827049852455 0.0
    vertex 151.20295861649194 62.96982704985248 0.9999999999999999
  endloop
endfacet
facet normal 4.2618379793392687e-17 1.0 -4.790862507510995e-16
  outer loop
    vertex 171.20295861649194 62.96982704985243 0.9999999999999999
    vertex 151.20295861649194 62.96982704985248 0.9999999999999999
    vertex 151.20295861649194 62.96982704985247 1.9999999999999998
  endloop
endfacet
facet normal 4.2618379793392687e-17 1.0 -4.790862507510995e-16
  outer loop
    vertex 171.20295861649194 62.96982704985243 0.9999999999999999
    vertex 151.20295861649194 62.96982704985247 1.9999999999999998
    vertex 171.20295861649194 62.96982704985245 1.9999999999999996
  endloop
endfacet
facet normal 4.2618379793392687e-17 1.0 -4.790862507510995e-16
  outer loop
    vertex 171.20295861649194 62.96982704985245 1.9999999999999996
    vertex 151.20295861649194 62.96982704985247 1.9999999999999998
    vertex 182.20295861649194 62.96982704985245 1.9999999999999996
  endloop
endfacet
facet normal 4.2618379793392687e-17 1.0 -4.790862507510995e-16
  outer loop
    vertex 76.20295861649194 62.96982704985247 4.299999999999999
    vertex 151.20295861649194 62.96982704985247 1.9999999999999998
    vertex 76.20295861649194 62.96982704985247 1.9999999999999998
  endloop
endfacet
facet normal 4.2618379793392687e-17 1.0 -4.790862507510995e-16
  outer loop
    vertex 151.20295861649194 62.96982704985247 1.9999999999999998
    vertex 76.20295861649194 62.96982704985247 4.299999999999999
    vertex 205.20295861649194 62.96982704985247 1.9999999999999998
  endloop
endfacet
facet normal 4.2618379793392687e-17 1.0 -4.790862507510995e-16
  outer loop
    vertex 205.20295861649194 62.96982704985247 1.9999999999999998
    vertex 76.20295861649194 62.96982704985247 4.299999999999999
    vertex 221.20295861649194 62.96982704985247 1.9999999999999998
  endloop
endfacet
facet normal 4.2618379793392687e-17 1.0 -4.790862507510995e-16
  outer loop
    vertex 221.20295861649194 62.96982704985247 1.9999999999999998
    vertex 76.20295861649194 62.96982704985247 4.299999999999999
    vertex 221.20295861649194 62.96982704985247 4.299999999999999
  endloop
endfacet
facet normal 4.2618379793392687e-17 1.0 -4.790862507510995e-16
  outer loop
    vertex 221.20295861649194 62.96982704985247 4.299999999999999
    vertex 76.20295861649194 62.96982704985247 4.299999999999999
    vertex 151.20295861649194 62.96982704985247 4.299999999999999
  endloop
endfacet
facet normal 4.2618379793392687e-17 1.0 -4.790862507510995e-16
  outer loop
    vertex 221.20295861649194 62.96982704985247 4.299999999999999
    vertex 151.20295861649194 62.96982704985247 4.299999999999999
    vertex 171.20295861649194 62.969827049852455 4.299999999999999
  endloop
endfacet
facet normal 4.2618379793392687e-17 1.0 -4.790862507510995e-16
  outer loop
    vertex 182.20295861649194 62.96982704985245 0.9999999999999717
    vertex 205.20295861649194 62.96982704985247 1.9999999999999998
    vertex 205.20295861649194 62.96982704985247 0.9999999999999644
  endloop
endfacet
facet normal 4.2618379793392687e-17 1.0 -4.790862507510995e-16
  outer loop
    vertex 205.20295861649194 62.96982704985247 1.9999999999999998
    vertex 182.20295861649194 62.96982704985245 0.9999999999999717
    vertex 182.20295861649194 62.96982704985245 1.9999999999999996
  endloop
endfacet
facet normal 4.2618379793392687e-17 1.0 -4.790862507510995e-16
  outer loop
    vertex 205.20295861649194 62.96982704985247 1.9999999999999998
    vertex 182.20295861649194 62.96982704985245 1.9999999999999996
    vertex 151.20295861649194 62.96982704985247 1.9999999999999998
  endloop
endfacet
facet normal 4.2618379793392687e-17 1.0 -4.790862507510995e-16
  outer loop
    vertex 151.20295861649194 62.96982704985247 5.499999999999998
    vertex 171.20295861649194 62.969827049852455 4.299999999999999
    vertex 151.20295861649194 62.96982704985247 4.299999999999999
  endloop
endfacet
facet normal 4.2618379793392687e-17 1.0 -4.790862507510995e-16
  outer loop
    vertex 171.20295861649194 62.969827049852455 4.299999999999999
    vertex 151.20295861649194 62.96982704985247 5.499999999999998
    vertex 171.20295861649194 62.96982704985247 6.499999999999998
  endloop
endfacet
facet normal 4.2618379793392687e-17 1.0 -4.790862507510995e-16
  outer loop
    vertex 171.20295861649194 62.96982704985247 6.499999999999998
    vertex 151.20295861649194 62.96982704985247 5.499999999999998
    vertex 150.20295861649194 62.96982704985247 6.499999999999999
  endloop
endfacet
facet normal 4.2618379793392687e-17 1.0 -4.790862507510995e-16
  outer loop
    vertex 111.20295861649197 62.96982704985247 34.50000000000001
    vertex 150.20295861649194 62.96982704985247 6.499999999999999
    vertex 111.20295861649197 62.96982704985247 6.499999999999998
  endloop
endfacet
facet normal 4.2618379793392687e-17 1.0 -4.790862507510995e-16
  outer loop
    vertex 171.20295861649194 62.96982704985247 6.499999999999998
    vertex 219.9782137451004 62.96982704985247 34.50000000000001
    vertex 219.9782137451004 62.96982704985247 6.4999999999999964
  endloop
endfacet
facet normal 4.2618379793392687e-17 1.0 -4.790862507510995e-16
  outer loop
    vertex 219.9782137451004 62.96982704985247 34.50000000000001
    vertex 171.20295861649194 62.96982704985247 6.499999999999998
    vertex 150.20295861649194 62.96982704985247 6.499999999999999
  endloop
endfacet
facet normal 4.2618379793392687e-17 1.0 -4.790862507510995e-16
  outer loop
    vertex 219.9782137451004 62.96982704985247 34.50000000000001
    vertex 150.20295861649194 62.96982704985247 6.499999999999999
    vertex 111.20295861649197 62.96982704985247 34.50000000000001
  endloop
endfacet
facet normal 1.0 -0.0 -0.0
  outer loop
    vertex 181.20295861649197 66.96982704985246 0.99999999999994
    vertex 181.20295861649197 63.96982704985245 1.9999999999999925
    vertex 181.20295861649197 63.96982704985245 0.9999999999999721
  endloop
endfacet
facet normal 1.0 -0.0 -0.0
  outer loop
    vertex 181.20295861649197 63.96982704985245 1.9999999999999925
    vertex 181.20295861649197 66.96982704985246 0.99999999999994
    vertex 181.20295861649197 66.96982704985246 1.9999999999999714
  endloop
endfacet
facet normal -3.222643716335383e-16 1.9576474864851167e-16 -1.0
  outer loop
    vertex 172.61717217886505 66.96982704985241 -6.87914231018993e-14
    vertex 172.20295861649194 62.969827049852405 -3.3931201799700053e-16
    vertex 172.20295861649194 66.5556134874793 -5.593189084085196e-14
  endloop
endfacet
facet normal -3.222643716335383e-16 1.9576474864851167e-16 -1.0
  outer loop
    vertex 219.7887450541189 66.96982704985246 -6.932582051680372e-14
    vertex 207.20295861649194 63.55561348747934 -3.8519116506436645e-14
    vertex 207.20295861649194 66.96982704985246 -4.6381238894870424e-14
  endloop
endfacet
facet normal -3.222643716335383e-16 1.9576474864851167e-16 -1.0
  outer loop
    vertex 149.78874505411883 92.96982704985247 0.0
    vertex 77.20295861649194 59.96982704985246 0.0
    vertex 77.20295861649194 92.96982704985247 0.0
  endloop
endfacet
facet normal -3.222643716335383e-16 1.9576474864851167e-16 -1.0
  outer loop
    vertex 77.20295861649194 59.96982704985246 0.0
    vertex 149.78874505411883 92.96982704985247 0.0
    vertex 150.20295861649194 62.969827049852455 0.0
  endloop
endfacet
facet normal -3.222643716335383e-16 1.9576474864851167e-16 -1.0
  outer loop
    vertex 77.20295861649194 59.96982704985246 0.0
    vertex 150.20295861649194 62.969827049852455 0.0
    vertex 219.7887450541189 59.96982704985246 -2.1915209199874525e-14
  endloop
endfacet
facet normal -3.222643716335383e-16 1.9576474864851167e-16 -1.0
  outer loop
    vertex 150.20295861649194 62.969827049852455 0.0
    vertex 149.78874505411883 92.96982704985247 0.0
    vertex 150.20295861649194 92.55561348747938 0.0
  endloop
endfacet
facet normal -3.222643716335383e-16 1.9576474864851167e-16 -1.0
  outer loop
    vertex 219.7887450541189 59.96982704985246 -2.1915209199874525e-14
    vertex 150.20295861649194 62.969827049852455 0.0
    vertex 181.78874505411886 61.96982704985245 -2.8225467553052198e-14
  endloop
endfacet
facet normal -3.222643716335383e-16 1.9576474864851167e-16 -1.0
  outer loop
    vertex 181.78874505411886 61.96982704985245 -2.8225467553052198e-14
    vertex 150.20295861649194 62.969827049852455 0.0
    vertex 172.20295861649194 62.969827049852405 -3.3931201799700053e-16
  endloop
endfacet
facet normal -3.222643716335383e-16 1.9576474864851167e-16 -1.0
  outer loop
    vertex 181.78874505411886 61.96982704985245 -2.8225467553052198e-14
    vertex 172.20295861649194 62.969827049852405 -3.3931201799700053e-16
    vertex 172.61717217886505 66.96982704985241 -6.87914231018993e-14
  endloop
endfacet
facet normal -3.222643716335383e-16 1.9576474864851167e-16 -1.0
  outer loop
    vertex 181.78874505411886 61.96982704985245 -2.8225467553052198e-14
    vertex 172.61717217886505 66.96982704985241 -6.87914231018993e-14
    vertex 180.20295861649197 63.55561348747934 -2.7594689664310898e-14
  endloop
endfacet
facet normal -3.222643716335383e-16 1.9576474864851167e-16 -1.0
  outer loop
    vertex 180.20295861649197 63.55561348747934 -2.7594689664310898e-14
    vertex 172.61717217886505 66.96982704985241 -6.87914231018993e-14
    vertex 180.20295861649197 66.96982704985246 -3.0071202308840764e-14
  endloop
endfacet
facet normal -3.222643716335383e-16 1.9576474864851167e-16 -1.0
  outer loop
    vertex 219.7887450541189 59.96982704985246 -2.1915209199874525e-14
    vertex 181.78874505411886 61.96982704985245 -2.8225467553052198e-14
    vertex 205.61717217886505 61.96982704985247 -3.557840673344877e-14
  endloop
endfacet
facet normal -3.222643716335383e-16 1.9576474864851167e-16 -1.0
  outer loop
    vertex 219.7887450541189 59.96982704985246 -2.1915209199874525e-14
    vertex 205.61717217886505 61.96982704985247 -3.557840673344877e-14
    vertex 207.20295861649194 63.55561348747934 -3.8519116506436645e-14
  endloop
endfacet
facet normal -3.222643716335383e-16 1.9576474864851167e-16 -1.0
  outer loop
    vertex 219.7887450541189 59.96982704985246 -2.1915209199874525e-14
    vertex 207.20295861649194 63.55561348747934 -3.8519116506436645e-14
    vertex 219.7887450541189 66.96982704985246 -6.932582051680372e-14
  endloop
endfacet
facet normal -3.222643716335383e-16 1.9576474864851167e-16 -1.0
  outer loop
    vertex 219.7887450541189 59.96982704985246 -2.1915209199874525e-14
    vertex 219.7887450541189 66.96982704985246 -6.932582051680372e-14
    vertex 220.20295861649194 66.55561348747939 -6.096082299485245e-14
  endloop
endfacet
facet normal -3.222643716335383e-16 1.9576474864851167e-16 -1.0
  outer loop
    vertex 219.7887450541189 59.96982704985246 -2.1915209199874525e-14
    vertex 220.20295861649194 66.55561348747939 -6.096082299485245e-14
    vertex 220.20295861649194 60.37509270436172 -1.578727122118155e-14
  endloop
endfacet
facet normal 0.4999999999999991 0.49999999999999956 -0.7071067811865485
  outer loop
    vertex 181.20295861649197 63.96982704985245 0.9999999999999721
    vertex 181.78874505411886 61.96982704985245 -2.8225467553052198e-14
    vertex 180.20295861649197 63.55561348747934 -2.7594689664310898e-14
  endloop
endfacet
facet normal 0.4999999999999991 0.49999999999999956 -0.7071067811865485
  outer loop
    vertex 181.78874505411886 61.96982704985245 -2.8225467553052198e-14
    vertex 181.20295861649197 63.96982704985245 0.9999999999999721
    vertex 182.20295861649194 62.96982704985245 0.9999999999999717
  endloop
endfacet
facet normal -9.048054040615506e-16 0.7071067811865481 -0.7071067811865469
  outer loop
    vertex 181.78874505411886 61.96982704985245 -2.8225467553052198e-14
    vertex 205.20295861649194 62.96982704985247 0.9999999999999644
    vertex 205.61717217886505 61.96982704985247 -3.557840673344877e-14
  endloop
endfacet
facet normal -9.048054040615506e-16 0.7071067811865481 -0.7071067811865469
  outer loop
    vertex 205.20295861649194 62.96982704985247 0.9999999999999644
    vertex 181.78874505411886 61.96982704985245 -2.8225467553052198e-14
    vertex 182.20295861649194 62.96982704985245 0.9999999999999717
  endloop
endfacet
facet normal -0.499999999999996 0.5000000000000029 -0.7071067811865485
  outer loop
    vertex 206.20295861649194 63.96982704985245 0.9999999999999615
    vertex 205.61717217886505 61.96982704985247 -3.557840673344877e-14
    vertex 205.20295861649194 62.96982704985247 0.9999999999999644
  endloop
endfacet
facet normal -0.499999999999996 0.5000000000000029 -0.7071067811865485
  outer loop
    vertex 205.61717217886505 61.96982704985247 -3.557840673344877e-14
    vertex 206.20295861649194 63.96982704985245 0.9999999999999615
    vertex 207.20295861649194 63.55561348747934 -3.8519116506436645e-14
  endloop
endfacet
facet normal -1.258859752076917e-15 0.7071067811865399 -0.7071067811865552
  outer loop
    vertex 220.202958616492 67.96982704985247 0.9999999999999294
    vertex 207.20295861649194 66.96982704985246 -4.6381238894870424e-14
    vertex 207.20295861649194 67.96982704985246 0.9999999999999294
  endloop
endfacet
facet normal -1.258859752076917e-15 0.7071067811865399 -0.7071067811865552
  outer loop
    vertex 207.20295861649194 66.96982704985246 -4.6381238894870424e-14
    vertex 220.202958616492 67.96982704985247 0.9999999999999294
    vertex 219.7887450541189 66.96982704985246 -6.932582051680372e-14
  endloop
endfacet
facet normal -0.7071067811865457 -3.394286665924644e-15 -0.7071067811865495
  outer loop
    vertex 207.20295861649194 66.96982704985246 -4.6381238894870424e-14
    vertex 206.20295861649194 63.96982704985245 0.9999999999999615
    vertex 206.20295861649194 66.96982704985246 0.9999999999999374
  endloop
endfacet
facet normal -0.7071067811865457 -3.394286665924644e-15 -0.7071067811865495
  outer loop
    vertex 206.20295861649194 63.96982704985245 0.9999999999999615
    vertex 207.20295861649194 66.96982704985246 -4.6381238894870424e-14
    vertex 207.20295861649194 63.55561348747934 -3.8519116506436645e-14
  endloop
endfacet
facet normal -2.603045983890328e-15 1.0 1.1279865930191531e-14
  outer loop
    vertex 207.20295861649194 67.96982704985243 1.999999999999995
    vertex 220.202958616492 67.96982704985247 0.9999999999999294
    vertex 207.20295861649194 67.96982704985246 0.9999999999999294
  endloop
endfacet
facet normal -2.603045983890328e-15 1.0 1.1279865930191531e-14
  outer loop
    vertex 220.202958616492 67.96982704985247 0.9999999999999294
    vertex 207.20295861649194 67.96982704985243 1.999999999999995
    vertex 220.20295861649194 67.96982704985247 1.9999999999999294
  endloop
endfacet
facet normal -0.5773502691896246 0.5773502691896201 -0.5773502691896328
  outer loop
    vertex 207.20295861649194 66.96982704985246 -4.6381238894870424e-14
    vertex 206.20295861649194 66.96982704985246 0.9999999999999374
    vertex 207.20295861649194 67.96982704985246 0.9999999999999294
  endloop
endfacet
facet normal -0.7071067811865436 0.7071067811865516 7.963217624694011e-15
  outer loop
    vertex 206.20295861649194 66.96982704985246 0.9999999999999374
    vertex 207.20295861649194 67.96982704985243 1.999999999999995
    vertex 207.20295861649194 67.96982704985246 0.9999999999999294
  endloop
endfacet
facet normal -0.7071067811865436 0.7071067811865516 7.963217624694011e-15
  outer loop
    vertex 207.20295861649194 67.96982704985243 1.999999999999995
    vertex 206.20295861649194 66.96982704985246 0.9999999999999374
    vertex 206.20295861649194 66.96982704985246 1.9999999999999998
  endloop
endfacet
facet normal 0.7071067811865456 0.7071067811865496 -3.9816088123471884e-15
  outer loop
    vertex 180.20295861649197 67.96982704985246 1.9999999999999605
    vertex 181.20295861649197 66.96982704985246 0.99999999999994
    vertex 180.20295861649197 67.96982704985244 0.9999999999999294
  endloop
endfacet
facet normal 0.7071067811865456 0.7071067811865496 -3.9816088123471884e-15
  outer loop
    vertex 181.20295861649197 66.96982704985246 0.99999999999994
    vertex 180.20295861649197 67.96982704985246 1.9999999999999605
    vertex 181.20295861649197 66.96982704985246 1.9999999999999714
  endloop
endfacet
facet normal 0.7071067811865432 -3.587383862919481e-15 -0.7071067811865518
  outer loop
    vertex 181.20295861649197 66.96982704985246 0.99999999999994
    vertex 180.20295861649197 63.55561348747934 -2.7594689664310898e-14
    vertex 180.20295861649197 66.96982704985246 -3.0071202308840764e-14
  endloop
endfacet
facet normal 0.7071067811865432 -3.587383862919481e-15 -0.7071067811865518
  outer loop
    vertex 180.20295861649197 63.55561348747934 -2.7594689664310898e-14
    vertex 181.20295861649197 66.96982704985246 0.99999999999994
    vertex 181.20295861649197 63.96982704985245 0.9999999999999721
  endloop
endfacet
facet normal 0.5773502691896203 0.5773502691896207 -0.5773502691896365
  outer loop
    vertex 181.20295861649197 66.96982704985246 0.99999999999994
    vertex 180.20295861649197 66.96982704985246 -3.0071202308840764e-14
    vertex 180.20295861649197 67.96982704985244 0.9999999999999294
  endloop
endfacet
endsolid nappe anycubic
