<?xml version="1.0" encoding="utf-8"?>
<!-- Generator: Fusion 360, Shaper Origin Export Add-In, Version 1.4  -->
<svg enable-background="new 0 0 82.5898671 49.9805661" height="49.9805661cm" shaper:fusionaddin="version:1.4" version="1.1" viewBox="0 0 82.5898671 49.9805661" width="82.5898671cm" x="0cm" xml:space="preserve" xmlns="http://www.w3.org/2000/svg" xmlns:shaper="http://www.shapertools.com/namespaces/shaper" xmlns:xlink="http://www.w3.org/1999/xlink" y="0cm"><title>Title</title><desc>Description</desc><g id="Body_Body1"><path d="M85.3875187,31.500421 L85.3875187,46.9057319 A3.81,3.81 0 0,1 81.8573492,50.7054417 A228.6,228.6 85.7880428 0,1 48.2776882,50.7054417 A3.81,3.81 94.2119572 0,1 44.7475187,46.9057319 L44.7475187,31.500421 A3.81,3.81 180 0,1 48.8015089,27.6982416 A254,254 93.6717004 0,0 81.3335286,27.6982416 A3.81,3.81 266.3282996 0,1 85.3875187,31.500421z" fill="rgb(0,0,0)" shaper:cutDepth="0.012192" shaper:pathType="exterior" transform="matrix(1,0,0,-1,-2.8525516,51.3228512)" vector-effect="non-scaling-stroke" /><path d="M73.7755783,39.7961756 A0.32258,0.32258 46.162593 0,1 73.3225187,39.3369455 L73.3225187,39.0300071 A0.32258,0.32258 134.612469 1,1 73.7817488,38.5769475 L74.7744591,38.5903771 A0.32258,0.32258 226.162593 0,1 75.2275187,39.0496072 L75.2275187,39.3565457 A0.32258,0.32258 314.612469 1,1 74.7682886,39.8096052 L73.7755783,39.7961756z" fill="rgb(178,178,178)" fill-rule="nonzero" shaper:cutDepth="0.009525" shaper:pathType="hogging" transform="matrix(1,0,0,-1,-2.8525516,51.3228512)" vector-effect="non-scaling-stroke" /><path d="M56.8125187,39.0300071 A0.32258,0.32258 45.387531 1,0 56.3532886,38.5769475 L55.3605783,38.5903771 A0.32258,0.32258 313.837407 0,0 54.9075187,39.0496072 L54.9075187,39.3565457 A0.32258,0.32258 225.387531 1,0 55.3667488,39.8096052 L56.3594591,39.7961756 A0.32258,0.32258 133.837407 0,0 56.8125187,39.3369455 L56.8125187,39.0300071z" fill="rgb(178,178,178)" fill-rule="nonzero" shaper:cutDepth="0.009525" shaper:pathType="hogging" transform="matrix(1,0,0,-1,-2.8525516,51.3228512)" vector-effect="non-scaling-stroke" /><path d="M70.1475187,42.4698764 A1.27,1.27 0 0,1 68.8775187,43.7398764 L61.2575187,43.7398764 A1.27,1.27 90 0,1 59.9875187,42.4698764 L59.9875187,41.1998764 A1.27,1.27 180 0,1 61.2575187,39.9298764 L68.8775187,39.9298764 A1.27,1.27 270 0,1 70.1475187,41.1998764 L70.1475187,42.4698764z" fill="rgb(255,255,255)" shaper:cutDepth="0.012192" shaper:pathType="interior" stroke="rgb(0,0,0)" stroke-width="2" transform="matrix(1,0,0,-1,-2.8525516,51.3228512)" vector-effect="non-scaling-stroke" /></g><g id="Body_Body1"><path d="M39.8878094,29.2492855 A0.3302,0.3302 238.1014412 1,0 40.3246686,29.7300972 L41.8088958,29.7300972 A0.543281,0.543281 268.2205341 0,1 42.3445249,30.4344964 L41.1733612,37.0764958 A0.5486635,0.5486635 9.0472091 0,1 40.6407564,37.5388052 L38.8418379,37.5388052 A0.3302,0.3302 309.0101919 0,0 38.3509238,37.9653971 L37.989803,40.0134147 33.7735601,40.0134147 A0.3302008,0.3302008 315.0000003 1,0 33.3065857,40.4803891 L33.3065857,40.8071647 A0.15875,0.15875 0 0,1 33.1478357,40.9659147 L31.5603357,40.9659147 A0.15875,0.15875 90 0,1 31.4015857,40.8071647 L31.4015857,40.4803888 A0.3302005,0.3302005 45 1,0 30.9346116,40.0134147 L15.3585589,40.0134147 A0.3302,0.3302 315 0,0 14.8915856,40.480388 L14.8915856,40.8071647 A0.15875,0.15875 0 0,1 14.7328356,40.9659147 L13.1453356,40.9659147 A0.15875,0.15875 90 0,1 12.9865856,40.8071647 L12.9865856,40.480388 A0.3302,0.3302 45 1,0 12.5196123,40.0134147 L8.3033681,40.0134147 7.9395668,37.9501947 A0.3302,0.3302 30.8497694 0,0 7.4476115,37.524804 L5.410766,37.524804 A0.5405443,0.5405443 90.1824223 0,1 4.9113672,37.1869125 L3.7299469,30.4867449 A0.5489226,0.5489226 157.1618039 0,1 4.2420727,29.7248044 L5.9433477,29.7248044 A0.3302,0.3302 145.7470605 1,0 6.4091836,29.2709605 L6.0503993,27.2361936 40.2427719,27.2361936 39.8878094,29.2492855z" fill="rgb(0,0,0)" shaper:cutDepth="0.012192" shaper:pathType="exterior" transform="matrix(1,0,0,-1,-2.8525516,51.3228512)" vector-effect="non-scaling-stroke" /><path d="M5.440934,35.3163052 a0.635,0.635 0 1,1 1.27,0 a0.635,0.635 0 1,1 -1.27,0z" fill="rgb(255,255,255)" shaper:cutDepth="0.012192" shaper:pathType="interior" stroke="rgb(0,0,0)" stroke-width="2" transform="matrix(1,0,0,-1,-2.8525516,51.3228512)" vector-effect="non-scaling-stroke" /><path d="M40.1753498,31.9525972 a0.635,0.635 0 1,1 1.27,0 a0.635,0.635 0 1,1 -1.27,0z" fill="rgb(255,255,255)" shaper:cutDepth="0.012192" shaper:pathType="interior" stroke="rgb(0,0,0)" stroke-width="2" transform="matrix(1,0,0,-1,-2.8525516,51.3228512)" vector-effect="non-scaling-stroke" /><path d="M39.5822373,35.3163052 a0.635,0.635 0 1,1 1.27,0 a0.635,0.635 0 1,1 -1.27,0z" fill="rgb(255,255,255)" shaper:cutDepth="0.012192" shaper:pathType="interior" stroke="rgb(0,0,0)" stroke-width="2" transform="matrix(1,0,0,-1,-2.8525516,51.3228512)" vector-effect="non-scaling-stroke" /><path d="M34.6294461,36.9479319 A1.0019024,1.0019024 87.1310757 0,0 35.5686,36.1056935 L36.3806899,31.5001029 A1.0054951,1.0054951 14.8945764 0,0 35.4001553,30.2361927 L10.6432911,30.2361927 A1.0063061,1.0063061 270 0,0 9.652273,31.4172421 L10.4850232,36.1400034 A1.0011508,1.0011508 168.9484633 0,0 11.4164123,36.9479319 L34.6294461,36.9479319z" fill="rgb(255,255,255)" shaper:cutDepth="0.012192" shaper:pathType="interior" stroke="rgb(0,0,0)" stroke-width="2" transform="matrix(1,0,0,-1,-2.8525516,51.3228512)" vector-effect="non-scaling-stroke" /><path d="M4.8478215,31.9525972 a0.635,0.635 0 1,1 1.27,0 a0.635,0.635 0 1,1 -1.27,0z" fill="rgb(255,255,255)" shaper:cutDepth="0.012192" shaper:pathType="interior" stroke="rgb(0,0,0)" stroke-width="2" transform="matrix(1,0,0,-1,-2.8525516,51.3228512)" vector-effect="non-scaling-stroke" /></g><g id="Body_Body1"><path d="M2.8525516,24.1965342 A88.5568615,88.5568615 260.2848681 0,1 43.4925516,26.7365354 L43.4925516,1.6062859 A88.5568612,88.5568612 73.1321977 0,1 2.8525516,4.1462859 L2.8525516,24.1965342z" fill="rgb(0,0,0)" shaper:cutDepth="0.012192" shaper:pathType="exterior" transform="matrix(1,0,0,-1,-2.8525516,51.3228512)" vector-effect="non-scaling-stroke" /><path d="M12.8626089,8.359554 L12.8626089,8.359554 13.0318346,8.5713454 13.1619334,8.7869717 13.2118788,8.8956649 13.2515708,9.0046506 13.2809002,9.1137103 13.2997811,9.2226275 13.3081506,9.3311876 13.3059695,9.4391783 13.2932217,9.5463895 13.2699146,9.6526133 13.2360792,9.7576444 13.1917699,9.8612801 13.1370649,9.9633203 13.0720663,10.0635678 12.9969008,10.1618281 12.9117199,10.2579099 12.7120445,10.4427876 12.474763,10.6167329 12.2020079,10.7783333 11.89631,10.9262377 11.5605828,11.0591627 11.1980956,11.1759005 10.8124264,11.2753293 10.4074085,11.3564243 9.9870803,11.4182681 9.5556409,11.4600622 9.1174087,11.4811367 8.6767794,11.4809614 8.2381811,11.4591583 7.8060285,11.4155137 7.3846774,11.3499909 6.9783804,11.2627432 6.5912436,11.1541251 6.2271841,11.0247047 5.889884,10.8752784 5.5827413,10.7068883 5.3088207,10.5208393 5.1851737,10.4216762 5.0708076,10.3187139 4.9659921,10.2121948 4.8709689,10.1023794 4.7859497,9.9895468 4.7111156,9.873994 4.6466182,9.7560347 4.5925794,9.6359974 4.5490931,9.5142232 4.5162257,9.3910643 4.494017,9.2668817 4.482481,9.1420432 4.4816068,9.0169222 4.4913588,8.8918956 4.5116776,8.7673423 4.5424801,8.6436419 4.5836605,8.5211727 4.6350903,8.4003106 4.6966195,8.2814268 4.7680763,8.1648868 4.939983,7.9402567 5.1490304,7.7291487 5.3931301,7.5340747 5.6699023,7.3572767 5.976692,7.2006809 6.3105863,7.0658538 6.6684362,6.9539823 7.0468874,6.8658934 7.4424142,6.8020849 7.8513518,6.7627545 8.2699269,6.7478215 8.6942882,6.7569474 9.1205362,6.7895562 9.5447541,6.8448559 9.963038,6.9218604 10.3715281,7.0194114 10.7664393,7.1361994 11.1440915,7.2707828 11.5009409,7.4216079 11.8336107,7.587028 12.1389232,7.7653228 12.4139325,7.9547179 12.6559563,8.1534036 12.8626089,8.359554z" fill="rgb(255,255,255)" shaper:cutDepth="0.012192" shaper:pathType="interior" stroke="rgb(0,0,0)" stroke-width="2" transform="matrix(1,0,0,-1,-2.8525516,51.3228512)" vector-effect="non-scaling-stroke" /><path d="M4.901899,18.5793455 L4.901899,18.5793455 5.0896744,18.4379726 5.2978074,18.3002369 5.5258663,18.1668505 5.773318,18.0384835 6.0395341,17.915764 6.3237964,17.7992788 6.6253032,17.6895734 6.9431747,17.5871518 7.2764589,17.4924775 7.6241374,17.4059731 7.9851307,17.3280208 8.3583043,17.2589623 8.7424743,17.1990992 9.1364129,17.148693 9.5388541,17.107965 9.9484996,17.0770965 10.3640241,17.0562287 10.784081,17.0454632 11.2073078,17.0448615 11.6323316,17.0544457 12.0577745,17.0741981 12.4822592,17.1040615 12.9044144,17.1439394 13.3228809,17.1936952 13.736317,17.2531522 14.1434047,17.3220934 14.5428553,17.400261 14.933415,17.4873566 15.3138698,17.5830414 15.6830506,17.6869367 16.0398384,17.7986239 16.3831692,17.917645 16.71204,18.0435023 17.0255155,18.1756572 17.3227358,18.3135285 17.6029231,18.4564914 17.865389,18.6038754 18.1095396,18.7549656 18.3348766,18.9090055 18.5409978,19.0652016 18.7275965,19.2227281 18.8944623,19.3807312 19.0414787,19.5383351 19.1686174,19.6946511 19.2759302,19.8487882 19.3635415,19.9998637 19.4316407,20.1470133 19.4804745,20.2894019 19.5103405,20.4262334 19.5215817,20.556761 19.5145801,20.6802973 19.4897512,20.7962239 19.4475381,20.9040015 19.3884057,21.0031778 19.3128356,21.0933952 19.2213199,21.1743979 19.1143565,21.2460398 18.9924438,21.3082893 18.8560792,21.3612266 18.7057593,21.405034 18.541981,21.439986 18.3652423,21.466439 18.1760425,21.4848214 17.9748829,21.4956252 17.7622666,21.4993979 17.5386981,21.4967356 17.3046835,21.4882751 17.0607303,21.4746864 16.5450446,21.434923 15.9957311,21.3831594 15.4169131,21.3251054 14.8127529,21.266201 14.1874563,21.2113659 13.5452758,21.1647482 12.8905158,21.1294512 12.2275394,21.1072465 11.560772,21.0983974 10.8946995,21.1017511 10.2338638,21.1149299 9.5828579,21.1345465 8.9463212,21.1564388 8.3289343,21.1759049 7.7354141,21.1879266 7.1705088,21.1873892 6.9002777,21.1808406 6.6389924,21.1693036 6.3872527,21.1522111 6.1456597,21.1290327 5.914815,21.099281 5.6953209,21.0625189 5.4877801,21.0183667 5.2927953,20.9665089 5.1109693,20.9067016 4.9429045,20.8387791 4.789203,20.7626618 4.6504662,20.6783634 4.5272948,20.585998 4.4202882,20.4857873 4.3300417,20.3780602 4.2571397,20.2632447 4.2021488,20.1418576 4.1656103,20.0144948 4.1480337,19.8818206 4.149889,19.744558 4.1715995,19.6034787 4.2135345,19.4593923 4.2760021,19.3131369 4.3592419,19.1655684 4.4634174,19.0175506 4.5886088,18.8699451 4.7348057,18.7236011 4.901899,18.5793455z" fill="rgb(255,255,255)" shaper:cutDepth="0.012192" shaper:pathType="interior" stroke="rgb(0,0,0)" stroke-width="2" transform="matrix(1,0,0,-1,-2.8525516,51.3228512)" vector-effect="non-scaling-stroke" /><path d="M33.2030459,10.1606129 L33.2030459,10.1606129 32.9972551,10.2339156 32.7925189,10.2854943 32.5903513,10.3150274 32.392107,10.3224662 32.1989999,10.3080143 32.012122,10.2721067 31.8324618,10.2153911 31.6609224,10.1387078 31.4983389,10.0430714 31.3454934,9.9296521 31.2031306,9.7997579 31.0719764,9.6548166 30.9527593,9.4963576 30.8462322,9.3259938 30.7531864,9.1454049 30.6744517,8.9563224 30.610893,8.7605153 30.5634002,8.5597764 30.5328616,8.355912 30.520131,8.1507311 30.5259949,7.9460356 30.5511426,7.7436092 30.5961367,7.5452061 30.6613853,7.3525399 30.7471135,7.1672724 30.853337,6.9910033 30.9798344,6.8252594 31.1261133,6.6714831 31.2913694,6.5310197 31.474445,6.4051041 31.6738092,6.2948508 31.8875729,6.2012471 32.1135148,6.1251474 32.3491144,6.0672691 32.5916054,6.02819 32.8380359,6.0083468 33.0853281,6.0080329 33.3303327,6.0273951 33.5698796,6.0664287 33.8008296,6.1249728 34.0201243,6.2027064 34.2248377,6.2991452 34.4122271,6.413638 34.5797892,6.5453608 34.7253225,6.6933078 34.8469892,6.8562823 34.9433654,7.0328919 35.0134711,7.2215517 35.0567925,7.4204899 35.0732884,7.6277593 35.0633517,7.841266 35.0277536,8.0588032 34.9675906,8.2780854 34.8842407,8.4967785 34.7793275,8.7125275 34.654682,8.9229847 34.5123033,9.1258391 34.3543162,9.318847 34.1829288,9.4998624 34.0003918,9.6668674 33.8089589,9.8180027 33.6108477,9.9515976 33.4082009,10.066201 33.2030459,10.1606129z" fill="rgb(255,255,255)" shaper:cutDepth="0.012192" shaper:pathType="interior" stroke="rgb(0,0,0)" stroke-width="2" transform="matrix(1,0,0,-1,-2.8525516,51.3228512)" vector-effect="non-scaling-stroke" /><path d="M32.2078711,15.9329431 L32.2078711,15.9329431 31.8486979,15.9716868 31.455018,16.0062204 31.0313481,16.036186 30.583636,16.0602617 30.1189887,16.0763609 29.6454021,16.0818301 29.1714915,16.0736476 28.7062226,16.0486211 28.258644,16.0035849 27.8376205,15.9355961 27.6397206,15.8921848 27.4515634,15.8421339 27.274085,15.7852275 27.108159,15.7213007 26.9545889,15.6502463 26.8140994,15.5720204 26.6873281,15.4866487 26.5748172,15.3942332 26.4770036,15.2949585 26.3942101,15.1890997 26.3266361,15.0770286 26.2743534,14.959216 26.2373119,14.8362244 26.2153485,14.7086976 26.2081954,14.5773507 26.2154893,14.4429595 26.2367808,14.3063496 26.2715439,14.1683851 26.3191859,14.0299574 26.3790569,13.8919741 26.4504593,13.7553475 26.5326571,13.6209844 26.6248849,13.4897745 26.7263574,13.3625805 26.9538498,13.1234859 27.208802,12.9096312 27.4851572,12.7257992 27.7774308,12.5752714 28.0809864,12.4595053 28.392139,12.378086 28.7080516,12.3290065 29.0265976,12.3089997 29.3462263,12.3138639 29.6658285,12.3387897 29.9845979,12.3786967 30.301895,12.4285636 30.9295844,12.5402452 31.542127,12.6469996 32.1269885,12.743496 32.4030695,12.7931653 32.6643949,12.8489745 32.9079566,12.9154615 33.1308475,12.9971372 33.3304174,13.0980498 33.5044287,13.2213472 33.6512274,13.3688023 33.7699375,13.5402859 33.8605625,13.7334594 33.9238664,13.9439971 33.9611596,14.1660369 33.9740275,14.3927646 33.9640412,14.6170429 33.9324896,14.8319924 33.8801202,15.031552 33.8068623,15.2110722 33.7115801,15.3678654 33.5921215,15.5012892 33.4456452,15.612388 33.2689939,15.7034645 33.0590775,15.7776372 32.8132564,15.8383997 32.5297207,15.8891872 32.2078711,15.9329431z" fill="rgb(255,255,255)" shaper:cutDepth="0.012192" shaper:pathType="interior" stroke="rgb(0,0,0)" stroke-width="2" transform="matrix(1,0,0,-1,-2.8525516,51.3228512)" vector-effect="non-scaling-stroke" /><path d="M38.9949717,22.7963415 L38.9949717,22.7963415 38.8796857,22.6889479 38.7736017,22.5570339 38.67696,22.4011849 38.5897087,22.2222067 38.5115324,22.0211024 38.4418817,21.799051 38.3800024,21.5573846 38.3249661,21.2975658 38.2757002,21.0211651 38.2310181,20.7298384 38.1896489,20.425304 38.1502679,20.1093206 38.0720815,19.4501054 37.9859157,18.7662058 37.8822536,18.07085 37.753532,17.375784 37.5951264,16.6905309 37.4063383,16.0216478 37.1907408,15.3724614 36.955639,14.7434656 36.7113053,14.1328847 36.470137,13.5372957 36.245798,12.9522617 36.0523743,12.3729558 35.9715688,12.083987 35.9035473,11.7947723 35.8498273,11.5048655 35.8118024,11.2139064 35.7907147,10.9216414 35.7876236,10.6279467 35.8033749,10.3328512 35.8385703,10.0365595 35.8935453,9.7394679 35.9683576,9.4421715 36.062778,9.1454704 36.1762819,8.8503746 36.3080511,8.5581003 36.4570014,8.2700472 36.6218171,7.9877684 36.8009872,7.7129405 36.9928389,7.4473345 37.1955684,7.1927901 37.4072676,6.951192 37.6259512,6.7244464 37.8495841,6.5144575 38.0761086,6.323104 38.303472,6.1522153 38.5296539,6.0035475 38.7526944,5.8787604 38.9707235,5.7793906 39.1819952,5.7068231 39.3849211,5.6622612 39.5781048,5.6466969 39.7603692,5.660887 39.9307668,5.7053445 40.0885845,5.780335 40.2333463,5.885874 40.3648143,6.0217272 40.4829743,6.1874229 40.5880122,6.3822735 40.6802893,6.6053972 40.7603186,6.8557394 40.8287446,7.1320907 40.8863266,7.4331018 40.9339232,7.7572979 40.9724759,8.1030924 41.0029929,8.4688029 41.0265285,8.852668 41.0441638,9.2528647 41.0569866,9.6675269 41.0660717,10.0947615 41.0724644,10.5326644 41.0811069,11.4328909 41.0900582,12.353312 41.1048554,13.2798598 41.1287273,14.1998896 41.1621597,15.1025959 41.2029669,15.979081 41.2466235,16.8222482 41.267615,17.2295405 41.2868782,17.6265034 41.303473,18.0126167 41.3164299,18.3874158 41.3247659,18.750484 41.3275018,19.1014453 41.3236811,19.4399549 41.3123898,19.7656896 41.292778,20.078338 41.2640801,20.3775901 41.2256329,20.6631292 41.1768913,20.9346246 41.1174427,21.1917251 41.0470222,21.4340524 40.9655304,21.6611927 40.8730597,21.8726843 40.7699224,22.0680034 40.6566793,22.2465506 40.5341598,22.4076417 40.4034499,22.550515 40.2658627,22.6743486 40.1229071,22.7782787 39.9762548,22.8614182 39.8276918,22.9228844 39.6790572,22.9618328 39.5321792,22.9774928 39.3888117,22.9692029 39.2505747,22.936444 39.1188987,22.8788709 38.9949717,22.7963415z" fill="rgb(255,255,255)" shaper:cutDepth="0.012192" shaper:pathType="interior" stroke="rgb(0,0,0)" stroke-width="2" transform="matrix(1,0,0,-1,-2.8525516,51.3228512)" vector-effect="non-scaling-stroke" /><path d="M5.8451565,14.7810101 A0.32004,0.32004 45.0000001 0,1 5.3925516,14.3284052 L5.3925516,14.014415 A0.32004,0.32004 135.000001 0,1 5.8451565,13.5618101 L13.144277,13.5618101 A0.32004,0.32004 225.3833767 0,1 13.5949508,14.0163352 L13.5949508,14.3280043 A0.3200402,0.3200402 315.1352272 0,1 13.1427514,14.7810101 L5.8451565,14.7810101z" fill="rgb(255,255,255)" shaper:cutDepth="0.012192" shaper:pathType="interior" stroke="rgb(0,0,0)" stroke-width="2" transform="matrix(1,0,0,-1,-2.8525516,51.3228512)" vector-effect="non-scaling-stroke" /><path d="M24.244994,20.8020799 L24.244994,20.8020799 24.1422452,20.6828331 24.0563087,20.5573107 23.9872472,20.4263815 23.9350399,20.2910414 23.8995892,20.1523864 23.880728,20.0115867 23.8782264,19.8698614 23.8917978,19.7284549 23.9211059,19.5886128 23.965771,19.4515579 24.025377,19.318463 24.0994789,19.1904203 24.1876106,19.0684103 24.2892921,18.9532719 24.4040356,18.8456815 24.5313482,18.7461499 24.6707341,18.6550225 24.8216963,18.5724811 24.9837386,18.4985481 25.1563653,18.4330998 25.33908,18.3758851 25.531385,18.3265433 25.7327804,18.2846215 25.9427637,18.2495898 26.3864703,18.1977695 26.8584304,18.1657926 27.3545214,18.1479772 27.8705607,18.1387099 28.4022943,18.132913 28.9453854,18.1265073 30.0478256,18.1032375 31.1412891,18.0716157 31.6729424,18.0618015 32.1883253,18.0633995 32.6828865,18.0827556 33.1522295,18.1262852 33.3761268,18.1590189 33.5921699,18.199987 33.799878,18.2497989 33.9987899,18.3089823 34.1884663,18.3779698 34.368491,18.4570832 34.5384736,18.5465155 34.6980513,18.6463127 34.846891,18.7563556 34.9846911,18.8763476 35.1111823,19.0058095 35.226128,19.144076 35.3293257,19.2902934 35.4206062,19.4434244 35.499832,19.602273 35.5668943,19.7655176 35.6217108,19.931744 35.6642222,20.0994774 35.6943909,20.267209 35.7121988,20.4334194 35.7176457,20.5966013 35.7107478,20.7552831 35.691535,20.9080567 35.6600486,21.0536101 35.6163387,21.1907605 35.5604613,21.3184868 35.4924766,21.4359547 35.4124485,21.5425268 35.320445,21.6377703 35.2165382,21.7214635 35.1008047,21.7935966 34.9733287,21.8543554 34.8342047,21.9040969 34.6835411,21.9433253 34.5214635,21.9726675 34.3481178,21.9928534 34.1636729,22.0046978 33.9683234,22.0090839 33.7622927,22.0069447 33.5458357,21.9992463 33.3192412,21.9869691 33.0828345,21.9710899 32.5820856,21.9323012 32.0470361,21.8898849 31.4819337,21.8494755 30.8919194,21.814753 30.2830133,21.7872316 29.0364315,21.7494915 28.4140933,21.73306 27.8031509,21.7122747 27.2118154,21.68182 26.6482009,21.6361538 26.3792533,21.6059199 26.120142,21.5699028 25.8717728,21.527521 25.6350113,21.4782515 25.4106777,21.4216414 25.1995408,21.3573202 25.0023123,21.2850112 24.8196413,21.204544 24.6521084,21.1158665 24.5002197,21.0190568 24.3644016,20.9143358 24.244994,20.8020799z" fill="rgb(255,255,255)" shaper:cutDepth="0.012192" shaper:pathType="interior" stroke="rgb(0,0,0)" stroke-width="2" transform="matrix(1,0,0,-1,-2.8525516,51.3228512)" vector-effect="non-scaling-stroke" /><path d="M18.1020917,15.1133772 L18.1020917,15.1133772 17.7550015,14.8344528 17.4378184,14.5635047 17.151869,14.2976196 16.8974696,14.0317922 16.6741631,13.7596994 16.4809543,13.4744731 16.3165335,13.169434 16.1794983,12.838816 16.120846,12.6625601 16.0685965,12.4785761 15.982981,12.0872475 15.9224017,11.6665643 15.8873156,11.221791 15.8788542,10.7615314 15.898613,10.2968879 15.9484226,9.8405578 15.9851844,9.6197212 16.030153,9.4060516 16.0835375,9.2012412 16.1455254,9.0069377 16.2162771,8.824721 16.2959194,8.6560776 16.3845384,8.5023738 16.482172,8.3648255 16.5888027,8.2444701 16.7043503,8.1421382 16.8286676,8.0584357 16.961538,7.9937332 17.1026731,7.9481566 17.2517114,7.9215785 17.40822,7.9136249 17.5717023,7.9237006 17.7416066,7.951019 17.9173346,7.9946321 18.0982492,8.0534577 18.2836816,8.1263036 18.4729379,8.2118894 18.6653051,8.3088684 19.0564658,8.5314222 19.4513328,8.7827192 19.844197,9.0519039 20.2297004,9.3292981 20.6030839,9.6072604 20.9603938,9.8808897 21.2985935,10.1483746 21.6155809,10.4109919 21.9100387,10.6724785 22.1812277,10.938195 22.4288125,11.214402 22.6527027,11.5075977 22.8528938,11.8238517 23.029303,12.1681201 23.1084969,12.3518153 23.1815833,12.5434715 23.3089288,12.9502823 23.4099604,13.3857342 23.4827061,13.8436779 23.5246943,14.3149333 23.5331816,14.7881071 23.5239901,15.0214612 23.505391,15.2504475 23.4770661,15.4733798 23.4387208,15.6885767 23.3900904,15.8943841 23.3309464,16.0891976 23.2611024,16.2714849 23.1804212,16.4398096 23.0888224,16.5928569 22.9862901,16.7294621 22.8728819,16.8486378 22.7487358,16.9496001 22.6140749,17.031785 22.4692085,17.0948551 22.3145331,17.1387066 22.1505333,17.1634745 21.9777781,17.1695252 21.7969119,17.1574335 21.6086444,17.1279548 21.4137401,17.0819981 21.2130093,17.0206014 21.0072996,16.9449106 20.7974889,16.8561611 20.5844775,16.7556588 20.1525224,16.5248529 19.7187914,16.2635777 19.2904817,15.9826969 18.874364,15.6921632 18.476522,15.4003491 18.1020917,15.1133772z" fill="rgb(255,255,255)" shaper:cutDepth="0.012192" shaper:pathType="interior" stroke="rgb(0,0,0)" stroke-width="2" transform="matrix(1,0,0,-1,-2.8525516,51.3228512)" vector-effect="non-scaling-stroke" /><path d="M22.3569752,7.6075776 L22.3569752,7.6075776 22.3700165,7.534227 22.3910034,7.4675255 22.4198753,7.4074082 22.4565466,7.353748 22.5528278,7.2650112 22.6787085,7.1992593 22.8327235,7.1537907 23.0131154,7.1254313 23.217868,7.1107062 23.4447399,7.1060118 23.6912973,7.1077897 23.9549464,7.1127017 24.2329658,7.1178051 24.522538,7.1207239 25.1247787,7.1143306 25.7383616,7.0913262 26.3401763,7.062836 26.6296529,7.0526563 26.9079202,7.0492261 27.1724164,7.0558259 27.4207067,7.0757772 27.6505024,7.11231 27.8596808,7.1684283 28.0463054,7.2467736 28.2086476,7.3494849 28.3452078,7.4780599 28.4547365,7.6332213 28.5362549,7.8147908 28.5890741,8.0215695 28.612804,8.2513051 28.6073418,8.5008073 28.5728563,8.7661028 28.5097723,9.0425865 28.4187572,9.325161 28.3007088,9.6083706 28.1567426,9.8865379 27.98818,10.1539048 27.796537,10.4047782 27.5835126,10.6336739 27.3509777,10.835454 27.1009642,11.005459 26.9700793,11.077253 26.8356543,11.1396407 26.697984,11.1922359 26.5573715,11.2347101 26.4141277,11.2667982 26.2685717,11.2883034 26.1210299,11.2991019 25.9718359,11.2991453 25.8213296,11.2884575 25.6698562,11.267132 25.5177661,11.2353288 25.3654134,11.1932714 25.0613518,11.079587 24.7605539,10.9290101 24.4659121,10.7452475 24.1803013,10.5326404 23.9065501,10.2960244 23.6474135,10.0406007 23.405545,9.7718135 23.1834694,9.4952261 22.983554,9.2163954 22.8079801,8.9407423 22.6587137,8.6734228 22.537476,8.4191993 22.4457134,8.1823129 22.384567,7.9663559 22.3657406,7.8671394 22.354842,7.7741426 22.3519143,7.6875742 22.3569752,7.6075776z" fill="rgb(255,255,255)" shaper:cutDepth="0.012192" shaper:pathType="interior" stroke="rgb(0,0,0)" stroke-width="2" transform="matrix(1,0,0,-1,-2.8525516,51.3228512)" vector-effect="non-scaling-stroke" /></g><g id="Body_Body1"><path d="M44.8024187,26.4725345 A88.5568615,88.5568615 253.1321962 0,1 85.4424187,23.9325334 L85.4424187,3.8822851 A88.5568612,88.5568612 80.2848665 0,1 44.8024187,1.3422851 L44.8024187,26.4725345z" fill="rgb(0,0,0)" shaper:cutDepth="0.012192" shaper:pathType="exterior" transform="matrix(1,0,0,-1,-2.8525516,51.3228512)" vector-effect="non-scaling-stroke" /><path d="M75.4323615,8.0955532 L75.4323615,8.0955532 75.2631358,8.3073446 75.133037,8.5229708 75.0830916,8.6316641 75.0433996,8.7406497 75.0140701,8.8497094 74.9951893,8.9586266 74.9868197,9.0671868 74.9890009,9.1751775 75.0017487,9.2823887 75.0250557,9.3886125 75.0588911,9.4936436 75.1032004,9.5972793 75.1579055,9.6993195 75.2229041,9.799567 75.2980696,9.8978273 75.3832505,9.9939091 75.5829259,10.1787867 75.8202074,10.3527321 76.0929624,10.5143325 76.3986603,10.6622369 76.7343876,10.7951619 77.0968748,10.9118997 77.482544,11.0113285 77.8875618,11.0924234 78.3078901,11.1542673 78.7393295,11.1960614 79.1775616,11.2171358 79.6181909,11.2169606 80.0567893,11.1951575 80.4889419,11.1515128 80.9102929,11.0859901 81.31659,10.9987424 81.7037268,10.8901243 82.0677863,10.7607039 82.4050863,10.6112776 82.7122291,10.4428875 82.9861497,10.2568385 83.1097967,10.1576754 83.2241628,10.0547131 83.3289782,9.948194 83.4240014,9.8383786 83.5090207,9.725546 83.5838547,9.6099931 83.6483522,9.4920339 83.702391,9.3719965 83.7458773,9.2502224 83.7787447,9.1270635 83.8009534,9.0028809 83.8124894,8.8780424 83.8133636,8.7529214 83.8036116,8.6278948 83.7832928,8.5033415 83.7524903,8.3796411 83.7113099,8.2571719 83.6598801,8.1363098 83.5983509,8.017426 83.5268941,7.9008859 83.3549874,7.6762559 83.14594,7.4651479 82.9018403,7.2700739 82.6250681,7.0932759 82.3182784,6.93668 81.9843841,6.801853 81.6265342,6.6899815 81.248083,6.6018925 80.8525561,6.5380841 80.4436186,6.4987537 80.0250435,6.4838206 79.6006822,6.4929466 79.1744342,6.5255554 78.7502163,6.5808551 78.3319324,6.6578596 77.9234423,6.7554106 77.5285311,6.8721986 77.1508788,7.006782 76.7940295,7.1576071 76.4613597,7.3230272 76.1560471,7.501322 75.8810378,7.6907171 75.6390141,7.8894028 75.4323615,8.0955532z" fill="rgb(255,255,255)" shaper:cutDepth="0.012192" shaper:pathType="interior" stroke="rgb(0,0,0)" stroke-width="2" transform="matrix(1,0,0,-1,-2.8525516,51.3228512)" vector-effect="non-scaling-stroke" /><path d="M83.3930714,18.3153446 L83.3930714,18.3153446 83.205296,18.1739718 82.997163,18.0362361 82.7691041,17.9028497 82.5216524,17.7744826 82.2554363,17.6517632 81.971174,17.535278 81.6696672,17.4255725 81.3517957,17.323151 81.0185114,17.2284767 80.670833,17.1419723 80.3098397,17.06402 79.9366661,16.9949615 79.5524961,16.9350984 79.1585575,16.8846922 78.7561163,16.8439642 78.3464707,16.8130956 77.9309462,16.7922279 77.5108894,16.7814624 77.0876626,16.7808607 76.6626388,16.7904449 76.2371959,16.8101972 75.8127112,16.8400607 75.390556,16.8799386 74.9720895,16.9296944 74.5586534,16.9891514 74.1515657,17.0580926 73.752115,17.1362602 73.3615553,17.2233558 72.9811006,17.3190406 72.6119198,17.4229359 72.255132,17.534623 71.9118012,17.6536441 71.5829304,17.7795015 71.2694549,17.9116564 70.9722346,18.0495277 70.6920473,18.1924905 70.4295814,18.3398746 70.1854308,18.4909648 69.9600937,18.6450046 69.7539726,18.8012008 69.5673738,18.9587273 69.4005081,19.1167304 69.2534916,19.2743343 69.126353,19.4306503 69.0190402,19.5847874 68.9314289,19.7358629 68.8633296,19.8830125 68.8144959,20.025401 68.7846298,20.1622325 68.7733887,20.2927602 68.7803903,20.4162965 68.8052192,20.5322231 68.8474323,20.6400007 68.9065646,20.739177 68.9821348,20.8293943 69.0736505,20.9103971 69.1806139,20.982039 69.3025265,21.0442884 69.4388912,21.0972257 69.5892111,21.1410332 69.7529893,21.1759852 69.9297281,21.2024382 70.1189279,21.2208206 70.3200875,21.2316244 70.5327038,21.2353971 70.7562723,21.2327348 70.9902869,21.2242742 71.23424,21.2106856 71.7499258,21.1709222 72.2992392,21.1191586 72.8780573,21.0611045 73.4822175,21.0022002 74.1075141,20.9473651 74.7496946,20.9007473 75.4044546,20.8654504 76.067431,20.8432457 76.7341984,20.8343966 77.4002708,20.8377503 78.0611066,20.8509291 78.7121125,20.8705457 79.3486492,20.892438 79.9660361,20.911904 80.5595562,20.9239258 81.1244616,20.9233884 81.3946926,20.9168398 81.655978,20.9053027 81.9077177,20.8882103 82.1493107,20.8650319 82.3801554,20.8352801 82.5996495,20.798518 82.8071903,20.7543658 83.0021751,20.7025081 83.1840011,20.6427008 83.3520659,20.5747783 83.5057674,20.498661 83.6445042,20.4143626 83.7676756,20.3219972 83.8746822,20.2217865 83.9649286,20.1140593 84.0378306,19.9992438 84.0928216,19.8778568 84.1293601,19.750494 84.1469366,19.6178197 84.1450814,19.4805572 84.1233709,19.3394778 84.0814359,19.1953915 84.0189683,19.0491361 83.9357285,18.9015676 83.831553,18.7535498 83.7063616,18.6059443 83.5601647,18.4596003 83.3930714,18.3153446z" fill="rgb(255,255,255)" shaper:cutDepth="0.012192" shaper:pathType="interior" stroke="rgb(0,0,0)" stroke-width="2" transform="matrix(1,0,0,-1,-2.8525516,51.3228512)" vector-effect="non-scaling-stroke" /><path d="M55.0919245,9.896612 L55.0919245,9.896612 55.2977153,9.9699148 55.5024514,10.0214934 55.7046191,10.0510265 55.9028634,10.0584654 56.0959705,10.0440134 56.2828484,10.0081058 56.4625086,9.9513902 56.634048,9.874707 56.7966315,9.7790706 56.949477,9.6656512 57.0918398,9.5357571 57.222994,9.3908158 57.3422111,9.2323568 57.4487381,9.061993 57.5417839,8.8814041 57.6205186,8.6923216 57.6840773,8.4965144 57.7315701,8.2957756 57.7621087,8.0919112 57.7748394,7.8867303 57.7689754,7.6820348 57.7438278,7.4796084 57.6988337,7.2812053 57.6335851,7.0885391 57.5478569,6.9032716 57.4416334,6.7270024 57.315136,6.5612585 57.1688571,6.4074823 57.003601,6.2670188 56.8205253,6.1411033 56.6211612,6.03085 56.4073975,5.9372462 56.1814556,5.8611465 55.945856,5.8032683 55.703365,5.7641892 55.4569345,5.7443459 55.2096423,5.744032 54.9646377,5.7633943 54.7250907,5.8024279 54.4941408,5.860972 54.2748461,5.9387056 54.0701327,6.0351443 53.8827433,6.1496372 53.7151811,6.28136 53.5696478,6.429307 53.4479812,6.5922815 53.3516049,6.7688911 53.2814993,6.9575509 53.2381779,7.1564891 53.221682,7.3637585 53.2316187,7.5772652 53.2672167,7.7948024 53.3273798,8.0140846 53.4107296,8.2327777 53.5156429,8.4485267 53.6402884,8.6589838 53.7826671,8.8618383 53.9406542,9.0548462 54.1120415,9.2358616 54.2945785,9.4028665 54.4860115,9.5540018 54.6841227,9.6875968 54.8867694,9.8022002 55.0919245,9.896612z" fill="rgb(255,255,255)" shaper:cutDepth="0.012192" shaper:pathType="interior" stroke="rgb(0,0,0)" stroke-width="2" transform="matrix(1,0,0,-1,-2.8525516,51.3228512)" vector-effect="non-scaling-stroke" /><path d="M56.0870993,15.6689423 L56.0870993,15.6689423 56.4462725,15.707686 56.8399524,15.7422196 57.2636223,15.7721852 57.7113343,15.7962609 58.1759816,15.81236 58.6495683,15.8178293 59.1234789,15.8096468 59.5887478,15.7846203 60.0363264,15.739584 60.4573499,15.6715953 60.6552498,15.6281839 60.843407,15.5781331 61.0208854,15.5212267 61.1868114,15.4572999 61.3403815,15.3862455 61.480871,15.3080195 61.6076423,15.2226479 61.7201532,15.1302324 61.8179668,15.0309577 61.9007602,14.9250989 61.9683343,14.8130278 62.020617,14.6952152 62.0576585,14.5722236 62.0796219,14.4446968 62.086775,14.3133499 62.0794811,14.1789586 62.0581896,14.0423487 62.0234265,13.9043842 61.9757845,13.7659566 61.9159135,13.6279733 61.8445111,13.4913467 61.7623133,13.3569835 61.6700854,13.2257737 61.5686129,13.0985797 61.3411206,12.8594851 61.0861684,12.6456304 60.8098132,12.4617984 60.5175395,12.3112706 60.213984,12.1955044 59.9028314,12.1140851 59.5869188,12.0650056 59.2683728,12.0449989 58.9487441,12.0498631 58.6291418,12.0747889 58.3103725,12.1146959 57.9930754,12.1645628 57.365386,12.2762444 56.7528434,12.3829988 56.1679818,12.4794952 55.8919009,12.5291644 55.6305754,12.5849736 55.3870138,12.6514607 55.1641229,12.7331364 54.964553,12.834049 54.7905417,12.9573464 54.6437429,13.1048014 54.5250328,13.2762851 54.4344079,13.4694586 54.371104,13.6799963 54.3338108,13.9020361 54.3209429,14.1287638 54.3309292,14.353042 54.3624808,14.5679916 54.4148502,14.7675512 54.4881081,14.9470714 54.5833903,15.1038645 54.7028489,15.2372883 54.8493252,15.3483871 55.0259765,15.4394637 55.2358929,15.5136364 55.481714,15.5743989 55.7652497,15.6251864 56.0870993,15.6689423z" fill="rgb(255,255,255)" shaper:cutDepth="0.012192" shaper:pathType="interior" stroke="rgb(0,0,0)" stroke-width="2" transform="matrix(1,0,0,-1,-2.8525516,51.3228512)" vector-effect="non-scaling-stroke" /><path d="M49.2999986,22.5323407 L49.2999986,22.5323407 49.4152846,22.4249471 49.5213687,22.293033 49.6180104,22.1371841 49.7052617,21.9582058 49.7834379,21.7571015 49.8530887,21.5350502 49.914968,21.2933838 49.9700043,21.033565 50.0192701,20.7571643 50.0639523,20.4658376 50.1053215,20.1613032 50.1447025,19.8453198 50.2228888,19.1861046 50.3090547,18.502205 50.4127168,17.8068491 50.5414384,17.1117832 50.699844,16.4265301 50.8886321,15.7576469 51.1042295,15.1084606 51.3393314,14.4794648 51.5836651,13.8688839 51.8248333,13.2732949 52.0491724,12.6882608 52.2425961,12.108955 52.3234016,11.8199862 52.3914231,11.5307715 52.4451431,11.2408647 52.4831679,10.9499056 52.5042557,10.6576406 52.5073468,10.3639458 52.4915955,10.0688504 52.4564001,9.7725587 52.4014251,9.475467 52.3266128,9.1781707 52.2321924,8.8814696 52.1186885,8.5863738 51.9869193,8.2940995 51.837969,8.0060463 51.6731532,7.7237676 51.4939832,7.4489397 51.3021315,7.1833337 51.0994019,6.9287893 50.8877028,6.6871912 50.6690192,6.4604455 50.4453863,6.2504567 50.2188617,6.0591032 49.9914984,5.8882144 49.7653165,5.7395467 49.542276,5.6147596 49.3242469,5.5153898 49.1129752,5.4428223 48.9100493,5.3982604 48.7168656,5.3826961 48.5346012,5.3968862 48.3642035,5.4413437 48.2063859,5.5163342 48.0616241,5.6218732 47.9301561,5.7577264 47.8119961,5.9234221 47.7069582,6.1182727 47.6146811,6.3413964 47.5346518,6.5917386 47.4662257,6.8680898 47.4086437,7.169101 47.3610472,7.493297 47.3224944,7.8390916 47.2919775,8.2048021 47.2684419,8.5886671 47.2508066,8.9888639 47.2379838,9.4035261 47.2288986,9.8307606 47.222506,10.2686636 47.2138635,11.1688901 47.2049122,12.0893112 47.190115,13.015859 47.1662431,13.9358888 47.1328107,14.838595 47.0920035,15.7150802 47.0483469,16.5582474 47.0273554,16.9655396 47.0080922,17.3625026 46.9914973,17.7486159 46.9785405,18.123415 46.9702045,18.4864832 46.9674685,18.8374445 46.9712893,19.175954 46.9825806,19.5016888 47.0021924,19.8143372 47.0308903,20.1135893 47.0693375,20.3991284 47.1180791,20.6706238 47.1775277,20.9277242 47.2479482,21.1700516 47.3294399,21.3971919 47.4219107,21.6086835 47.525048,21.8040025 47.638291,21.9825498 47.7608106,22.1436409 47.8915205,22.2865142 48.0291077,22.4103478 48.1720632,22.5142778 48.3187156,22.5974174 48.4672786,22.6588835 48.6159131,22.6978319 48.7627912,22.7134919 48.9061586,22.705202 49.0443957,22.6724432 49.1760717,22.61487 49.2999986,22.5323407z" fill="rgb(255,255,255)" shaper:cutDepth="0.012192" shaper:pathType="interior" stroke="rgb(0,0,0)" stroke-width="2" transform="matrix(1,0,0,-1,-2.8525516,51.3228512)" vector-effect="non-scaling-stroke" /><path d="M75.1506934,13.2978092 A0.32004,0.32004 314.6166233 0,0 74.7000196,13.7523344 L74.7000196,14.0640034 A0.3200402,0.3200402 224.8647728 0,0 75.1522189,14.5170092 L82.4498138,14.5170092 A0.32004,0.32004 135 0,0 82.9024187,14.0644043 L82.9024187,13.7504141 A0.32004,0.32004 45 0,0 82.4498138,13.2978092 L75.1506934,13.2978092z" fill="rgb(255,255,255)" shaper:cutDepth="0.012192" shaper:pathType="interior" stroke="rgb(0,0,0)" stroke-width="2" transform="matrix(1,0,0,-1,-2.8525516,51.3228512)" vector-effect="non-scaling-stroke" /><path d="M64.0499764,20.5380791 L64.0499764,20.5380791 64.1527252,20.4188322 64.2386617,20.2933099 64.3077232,20.1623807 64.3599305,20.0270406 64.3953812,19.8883856 64.4142424,19.7475859 64.416744,19.6058606 64.4031726,19.464454 64.3738644,19.3246119 64.3291993,19.1875571 64.2695934,19.0544622 64.1954914,18.9264194 64.1073598,18.8044094 64.0056783,18.689271 63.8909348,18.5816807 63.7636221,18.4821491 63.6242363,18.3910217 63.4732741,18.3084803 63.3112318,18.2345472 63.1386051,18.169099 62.9558904,18.1118843 62.7635854,18.0625425 62.56219,18.0206206 62.3522067,17.9855889 61.9085001,17.9337687 61.43654,17.9017918 60.940449,17.8839763 60.4244097,17.8747091 59.8926761,17.8689122 59.349585,17.8625064 58.2471448,17.8392367 57.1536812,17.8076149 56.622028,17.7978007 56.1066451,17.7993987 55.6120839,17.8187548 55.1427409,17.8622844 54.9188436,17.895018 54.7028005,17.9359862 54.4950924,17.9857981 54.2961805,18.0449815 54.1065041,18.113969 53.9264794,18.1930824 53.7564968,18.2825147 53.5969191,18.3823118 53.4480794,18.4923547 53.3102793,18.6123468 53.1837881,18.7418086 53.0688423,18.8800751 52.9656446,19.0262926 52.8743641,19.1794236 52.7951384,19.3382722 52.728076,19.5015168 52.6732596,19.6677432 52.6307482,19.8354765 52.6005795,20.0032082 52.5827716,20.1694186 52.5773246,20.3326005 52.5842226,20.4912823 52.6034354,20.6440559 52.6349218,20.7896093 52.6786316,20.9267596 52.734509,21.054486 52.8024938,21.1719538 52.8825219,21.278526 52.9745254,21.3737695 53.0784322,21.4574627 53.1941657,21.5295958 53.3216417,21.5903545 53.4607657,21.6400961 53.6114293,21.6793245 53.7735069,21.7086667 53.9468526,21.7288525 54.1312975,21.740697 54.326647,21.745083 54.5326777,21.7429438 54.7491347,21.7352454 54.9757292,21.7229683 55.2121358,21.7070891 55.7128847,21.6683004 56.2479343,21.6258841 56.8130367,21.5854746 57.4030509,21.5507522 58.0119571,21.5232307 59.2585389,21.4854907 59.8808771,21.4690592 60.4918195,21.4482739 61.083155,21.4178192 61.6467694,21.372153 61.9157171,21.3419191 62.1748284,21.305902 62.4231976,21.2635202 62.6599591,21.2142507 62.8842927,21.1576406 63.0954296,21.0933193 63.2926581,21.0210103 63.4753291,20.9405432 63.642862,20.8518657 63.7947506,20.755056 63.9305688,20.650335 64.0499764,20.5380791z" fill="rgb(255,255,255)" shaper:cutDepth="0.012192" shaper:pathType="interior" stroke="rgb(0,0,0)" stroke-width="2" transform="matrix(1,0,0,-1,-2.8525516,51.3228512)" vector-effect="non-scaling-stroke" /><path d="M70.1928787,14.8493764 L70.1928787,14.8493764 70.5399688,14.570452 70.857152,14.2995038 71.1431014,14.0336188 71.3975008,13.7677914 71.6208072,13.4956986 71.8140161,13.2104723 71.9784369,12.9054332 72.1154721,12.5748151 72.1741244,12.3985593 72.2263739,12.2145753 72.3119894,11.8232467 72.3725687,11.4025635 72.4076548,10.9577901 72.4161161,10.4975306 72.3963573,10.032887 72.3465478,9.576557 72.309786,9.3557203 72.2648173,9.1420508 72.2114329,8.9372403 72.149445,8.7429369 72.0786933,8.5607201 71.999051,8.3920768 71.910432,8.2383729 71.8127984,8.1008247 71.7061677,7.9804693 71.5906201,7.8781374 71.4663028,7.7944349 71.3334324,7.7297324 71.1922973,7.6841557 71.043259,7.6575777 70.8867504,7.6496241 70.7232681,7.6596998 70.5533637,7.6870182 70.3776358,7.7306312 70.1967212,7.7894569 70.0112888,7.8623028 69.8220325,7.9478886 69.6296653,8.0448676 69.2385045,8.2674213 68.8436376,8.5187183 68.4507734,8.7879031 68.06527,9.0652973 67.6918865,9.3432596 67.3345765,9.6168889 66.9963769,9.8843738 66.6793894,10.146991 66.3849317,10.4084776 66.1137427,10.6741941 65.8661579,10.9504012 65.6422677,11.2435968 65.4420766,11.5598509 65.2656673,11.9041193 65.1864735,12.0878145 65.1133871,12.2794706 64.9860416,12.6862815 64.88501,13.1217334 64.8122643,13.5796771 64.7702761,14.0509324 64.7617887,14.5241063 64.7709803,14.7574603 64.7895794,14.9864467 64.8179043,15.209379 64.8562496,15.4245759 64.9048799,15.6303833 64.964024,15.8251967 65.033868,16.0074841 65.1145492,16.1758087 65.206148,16.3288561 65.3086802,16.4654613 65.4220885,16.5846369 65.5462345,16.6855993 65.6808954,16.7677842 65.8257619,16.8308543 65.9804373,16.8747058 66.1444371,16.8994736 66.3171923,16.9055244 66.4980585,16.8934327 66.686326,16.863954 66.8812303,16.8179973 67.0819611,16.7566006 67.2876708,16.6809098 67.4974815,16.5921603 67.7104928,16.4916579 68.142448,16.2608521 68.576179,15.9995769 69.0044887,15.7186961 69.4206063,15.4281624 69.8184484,15.1363483 70.1928787,14.8493764z" fill="rgb(255,255,255)" shaper:cutDepth="0.012192" shaper:pathType="interior" stroke="rgb(0,0,0)" stroke-width="2" transform="matrix(1,0,0,-1,-2.8525516,51.3228512)" vector-effect="non-scaling-stroke" /><path d="M65.9379952,7.3435768 L65.9379952,7.3435768 65.9249539,7.2702262 65.903967,7.2035247 65.8750951,7.1434074 65.8384238,7.0897472 65.7421425,7.0010104 65.6162618,6.9352585 65.4622468,6.8897899 65.281855,6.8614305 65.0771024,6.8467053 64.8502305,6.8420109 64.6036731,6.8437888 64.340024,6.8487009 64.0620046,6.8538043 63.7724324,6.8567231 63.1701917,6.8503298 62.5566088,6.8273253 61.9547941,6.7988352 61.6653175,6.7886555 61.3870502,6.7852253 61.122554,6.791825 60.8742637,6.8117764 60.644468,6.8483092 60.4352896,6.9044275 60.2486649,6.9827727 60.0863227,7.0854841 59.9497626,7.2140591 59.8402338,7.3692205 59.7587155,7.5507899 59.7058962,7.7575686 59.6821664,7.9873043 59.6876285,8.2368065 59.722114,8.502102 59.7851981,8.7785857 59.8762132,9.0611601 59.9942616,9.3443698 60.1382278,9.6225371 60.3067904,9.889904 60.4984334,10.1407774 60.7114577,10.3696731 60.9439927,10.5714531 61.1940062,10.7414582 61.3248911,10.8132522 61.4593161,10.8756399 61.5969863,10.928235 61.7375989,10.9707093 61.8808427,11.0027974 62.0263987,11.0243025 62.1739404,11.0351011 62.3231344,11.0351445 62.4736408,11.0244567 62.6251142,11.0031311 62.7772043,10.9713279 62.929557,10.9292706 63.2336186,10.8155862 63.5344165,10.6650092 63.8290583,10.4812467 64.1146691,10.2686396 64.3884203,10.0320236 64.6475569,9.7765999 64.8894254,9.5078126 65.111501,9.2312253 65.3114164,8.9523946 65.4869903,8.6767415 65.6362567,8.409422 65.7574944,8.1551985 65.849257,7.918312 65.9104033,7.7023551 65.9292298,7.6031386 65.9401284,7.5101418 65.9430561,7.4235734 65.9379952,7.3435768z" fill="rgb(255,255,255)" shaper:cutDepth="0.012192" shaper:pathType="interior" stroke="rgb(0,0,0)" stroke-width="2" transform="matrix(1,0,0,-1,-2.8525516,51.3228512)" vector-effect="non-scaling-stroke" /></g></svg>