solid OpenSCAD_Model
  facet normal 0 1 -0
    outer loop
      vertex 7.75 5 5.75
      vertex 6.25 5 9.25
      vertex 9.75 5 6.45001
    endloop
  endfacet
  facet normal 0 1 0
    outer loop
      vertex 6.25 5 9.25
      vertex 7.75 5 5.75
      vertex 3.75 5 9.25
    endloop
  endfacet
  facet normal 0 1 0
    outer loop
      vertex 7.75 5 5.75
      vertex 9.75 5 6.45001
      vertex 9.75 5 5.75
    endloop
  endfacet
  facet normal 0 1 0
    outer loop
      vertex 2.25 5 5.75
      vertex 3.75 5 9.25
      vertex 7.75 5 5.75
    endloop
  endfacet
  facet normal 0 1 0
    outer loop
      vertex 3.75 5 9.25
      vertex 2.25 5 5.75
      vertex 0.25 5 6.45001
    endloop
  endfacet
  facet normal 0 1 0
    outer loop
      vertex 0.25 5 6.45001
      vertex 2.25 5 5.75
      vertex 0.25 5 5.75
    endloop
  endfacet
  facet normal 0 1 -0
    outer loop
      vertex 7.75 5 4
      vertex 2.25 5 5.75
      vertex 7.75 5 5.75
    endloop
  endfacet
  facet normal 0 1 0
    outer loop
      vertex 2.25 5 5.75
      vertex 7.75 5 4
      vertex 2.25 5 4
    endloop
  endfacet
  facet normal 0 -1 0
    outer loop
      vertex 0 0 0
      vertex 2.25 0 2
      vertex 0 0 2
    endloop
  endfacet
  facet normal 0 -1 -0
    outer loop
      vertex 2.25 0 2
      vertex 0 0 0
      vertex 7.75 0 2
    endloop
  endfacet
  facet normal 0 -1 0
    outer loop
      vertex 10 0 0
      vertex 7.75 0 2
      vertex 0 0 0
    endloop
  endfacet
  facet normal 0 -1 0
    outer loop
      vertex 7.75 0 2
      vertex 10 0 0
      vertex 10 0 2
    endloop
  endfacet
  facet normal 0 -1 0
    outer loop
      vertex 2.25 0 2
      vertex 7.75 0 5.75
      vertex 2.25 0 5.75
    endloop
  endfacet
  facet normal 0 -1 -0
    outer loop
      vertex 7.75 0 5.75
      vertex 2.25 0 2
      vertex 7.75 0 2
    endloop
  endfacet
  facet normal 0 -1 0
    outer loop
      vertex 2.25 0 5.75
      vertex 3.75 0 9.25
      vertex 0.25 0 6.45001
    endloop
  endfacet
  facet normal 0 -1 -0
    outer loop
      vertex 3.75 0 9.25
      vertex 2.25 0 5.75
      vertex 6.25 0 9.25
    endloop
  endfacet
  facet normal 0 -1 0
    outer loop
      vertex 2.25 0 5.75
      vertex 0.25 0 6.45001
      vertex 0.25 0 5.75
    endloop
  endfacet
  facet normal 0 -1 0
    outer loop
      vertex 7.75 0 5.75
      vertex 6.25 0 9.25
      vertex 2.25 0 5.75
    endloop
  endfacet
  facet normal 0 -1 0
    outer loop
      vertex 6.25 0 9.25
      vertex 7.75 0 5.75
      vertex 9.75 0 6.45001
    endloop
  endfacet
  facet normal 0 -1 -0
    outer loop
      vertex 9.75 0 6.45001
      vertex 7.75 0 5.75
      vertex 9.75 0 5.75
    endloop
  endfacet
  facet normal 0 0 -1
    outer loop
      vertex 7.75 0 5.75
      vertex 9.75 5 5.75
      vertex 9.75 0 5.75
    endloop
  endfacet
  facet normal -0 0 -1
    outer loop
      vertex 9.75 5 5.75
      vertex 7.75 0 5.75
      vertex 7.75 5 5.75
    endloop
  endfacet
  facet normal 1 -0 0
    outer loop
      vertex 9.75 0 6.45001
      vertex 9.75 5 5.75
      vertex 9.75 5 6.45001
    endloop
  endfacet
  facet normal 1 0 0
    outer loop
      vertex 9.75 5 5.75
      vertex 9.75 0 6.45001
      vertex 9.75 0 5.75
    endloop
  endfacet
  facet normal 0.624694 0 0.78087
    outer loop
      vertex 6.25 5 9.25
      vertex 9.75 0 6.45001
      vertex 9.75 5 6.45001
    endloop
  endfacet
  facet normal 0.624694 0 0.78087
    outer loop
      vertex 9.75 0 6.45001
      vertex 6.25 5 9.25
      vertex 6.25 0 9.25
    endloop
  endfacet
  facet normal -0 0 1
    outer loop
      vertex 3.75 5 9.25
      vertex 6.25 0 9.25
      vertex 6.25 5 9.25
    endloop
  endfacet
  facet normal 0 0 1
    outer loop
      vertex 6.25 0 9.25
      vertex 3.75 5 9.25
      vertex 3.75 0 9.25
    endloop
  endfacet
  facet normal -0.624694 0 0.78087
    outer loop
      vertex 0.25 5 6.45001
      vertex 3.75 0 9.25
      vertex 3.75 5 9.25
    endloop
  endfacet
  facet normal -0.624694 0 0.78087
    outer loop
      vertex 3.75 0 9.25
      vertex 0.25 5 6.45001
      vertex 0.25 0 6.45001
    endloop
  endfacet
  facet normal -1 0 0
    outer loop
      vertex 0.25 0 5.75
      vertex 0.25 5 6.45001
      vertex 0.25 5 5.75
    endloop
  endfacet
  facet normal -1 -0 0
    outer loop
      vertex 0.25 5 6.45001
      vertex 0.25 0 5.75
      vertex 0.25 0 6.45001
    endloop
  endfacet
  facet normal 0 0 -1
    outer loop
      vertex 0.25 0 5.75
      vertex 2.25 5 5.75
      vertex 2.25 0 5.75
    endloop
  endfacet
  facet normal -0 0 -1
    outer loop
      vertex 2.25 5 5.75
      vertex 0.25 0 5.75
      vertex 0.25 5 5.75
    endloop
  endfacet
  facet normal -1 0 -0
    outer loop
      vertex 2.25 5 4
      vertex 2.25 5 2
      vertex 2.25 0 2
    endloop
  endfacet
  facet normal -1 0 0
    outer loop
      vertex 2.25 0 5.75
      vertex 2.25 5 4
      vertex 2.25 0 2
    endloop
  endfacet
  facet normal -1 0 0
    outer loop
      vertex 2.25 5 4
      vertex 2.25 0 5.75
      vertex 2.25 5 5.75
    endloop
  endfacet
  facet normal 1 0 0
    outer loop
      vertex 7.75 5 5.75
      vertex 7.75 0 5.75
      vertex 7.75 5 4
    endloop
  endfacet
  facet normal 1 0 0
    outer loop
      vertex 7.75 0 2
      vertex 7.75 5 4
      vertex 7.75 0 5.75
    endloop
  endfacet
  facet normal 1 0 0
    outer loop
      vertex 7.75 5 4
      vertex 7.75 0 2
      vertex 7.75 5 2
    endloop
  endfacet
  facet normal 0 0 -1
    outer loop
      vertex 0 0 0
      vertex 10 5 0
      vertex 10 0 0
    endloop
  endfacet
  facet normal -0 0 -1
    outer loop
      vertex 10 5 0
      vertex 0 0 0
      vertex 0 5 0
    endloop
  endfacet
  facet normal 1 -0 0
    outer loop
      vertex 10 0 2
      vertex 10 5 0
      vertex 10 5 2
    endloop
  endfacet
  facet normal 1 0 0
    outer loop
      vertex 10 5 0
      vertex 10 0 2
      vertex 10 0 0
    endloop
  endfacet
  facet normal -1 0 0
    outer loop
      vertex 0 0 0
      vertex 0 5 2
      vertex 0 5 0
    endloop
  endfacet
  facet normal -1 -0 0
    outer loop
      vertex 0 5 2
      vertex 0 0 0
      vertex 0 0 2
    endloop
  endfacet
  facet normal 0 1 -0
    outer loop
      vertex 10 5 0
      vertex 7.75 5 2
      vertex 10 5 2
    endloop
  endfacet
  facet normal 0 1 0
    outer loop
      vertex 7.75 5 2
      vertex 10 5 0
      vertex 2.25 5 2
    endloop
  endfacet
  facet normal 0 1 0
    outer loop
      vertex 0 5 0
      vertex 2.25 5 2
      vertex 10 5 0
    endloop
  endfacet
  facet normal 0 1 0
    outer loop
      vertex 2.25 5 2
      vertex 0 5 0
      vertex 0 5 2
    endloop
  endfacet
  facet normal 0 1 -0
    outer loop
      vertex 7.75 5 2
      vertex 2.25 5 4
      vertex 7.75 5 4
    endloop
  endfacet
  facet normal 0 1 0
    outer loop
      vertex 2.25 5 4
      vertex 7.75 5 2
      vertex 2.25 5 2
    endloop
  endfacet
  facet normal -0 0 1
    outer loop
      vertex 0 5 2
      vertex 2.25 0 2
      vertex 2.25 5 2
    endloop
  endfacet
  facet normal 0 0 1
    outer loop
      vertex 2.25 0 2
      vertex 0 5 2
      vertex 0 0 2
    endloop
  endfacet
  facet normal -0 0 1
    outer loop
      vertex 7.75 5 2
      vertex 10 0 2
      vertex 10 5 2
    endloop
  endfacet
  facet normal 0 0 1
    outer loop
      vertex 10 0 2
      vertex 7.75 5 2
      vertex 7.75 0 2
    endloop
  endfacet
endsolid OpenSCAD_Model
