  0
SECTION
  2
HEADER
  9
$ACADVER
  1
AC1009
  9
$INSBASE
 10
0.0
 20
0.0
 30
0.0
  9
$EXTMIN
 10
0.0
 20
0.0
 30
0.0
  9
$EXTMAX
 10
0.0
 20
0.0
 30
0.0
  0
ENDSEC
  0
SECTION
  2
TABLES
  0
TABLE
  2
VPORT
 70
0
  0
ENDTAB
  0
TABLE
  2
LTYPE
 70
1
  0
LTYPE
  2
CONTINUOUS
 70
0
  3
Solid line
 72
65
 73
0
 40
0.0
  0
ENDTAB
  0
TABLE
  2
LAYER
 70
1
  0
LAYER
  2
0
 70
64
 62
7
  6
continuous
  0
ENDTAB
  0
TABLE
  2
STYLE
 70
1
  0
STYLE
  2
STANDARD
 70
0
 40
0
 41
1.0
 50
0.0
 71
0
 42
1
 3
ARIAL.TTF
 4

  0
ENDTAB
  0
TABLE
  2
VIEW
 70
0
  0
ENDTAB
  0
ENDSEC
  0
SECTION
  2
BLOCKS
  0
BLOCK
  8
0
  2
ENDER_3___Z_AXIS_BEARING_SUPPORT001_SOLID001
 70
0
 10
0.0
 20
0.0
 30
0.0
  3
ENDER_3___Z_AXIS_BEARING_SUPPORT001_SOLID001
  0
LINE
  8
0
 62
0
 10
2.1970000267
 20
-9.75477981567
 30
0.0
 11
2.1970000267
 21
-4.57999992371
 31
0.0
  0
LINE
  8
0
 62
0
 10
2.1970000267
 20
-4.57999992371
 30
0.0
 11
1.13900005817
 21
-3.52200007439
 31
0.0
  0
LINE
  8
0
 62
0
 10
1.13900005817
 20
-3.52200007439
 30
0.0
 11
0.216000005603
 21
-1.70899999142
 31
0.0
  0
LINE
  8
0
 62
0
 10
0.216000005603
 20
-1.70899999142
 30
0.0
 11
-0.101999998093
 21
0.300000011921
 31
0.0
  0
LINE
  8
0
 62
0
 10
-0.101999998093
 20
0.300000011921
 30
0.0
 11
0.216000005603
 21
2.30900001526
 31
0.0
  0
LINE
  8
0
 62
0
 10
0.216000005603
 20
2.30900001526
 30
0.0
 11
1.13900005817
 21
4.12200021744
 31
0.0
  0
LINE
  8
0
 62
0
 10
2.57800006866
 20
5.5609998703
 30
0.0
 11
1.13900005817
 21
4.12200021744
 31
0.0
  0
LINE
  8
0
 62
0
 10
4.39099979401
 20
6.48400020599
 30
0.0
 11
2.57800006866
 21
5.5609998703
 31
0.0
  0
LINE
  8
0
 62
0
 10
6.40000009537
 20
6.80200004578
 30
0.0
 11
4.39099979401
 21
6.48400020599
 31
0.0
  0
LINE
  8
0
 62
0
 10
8.40900039673
 20
6.48400020599
 30
0.0
 11
6.40000009537
 21
6.80200004578
 31
0.0
  0
LINE
  8
0
 62
0
 10
10.2220001221
 20
5.5609998703
 30
0.0
 11
8.40900039673
 21
6.48400020599
 31
0.0
  0
LINE
  8
0
 62
0
 10
11.6610002518
 20
4.12200021744
 30
0.0
 11
10.2220001221
 21
5.5609998703
 31
0.0
  0
LINE
  8
0
 62
0
 10
12.5839996338
 20
2.30900001526
 30
0.0
 11
11.6610002518
 21
4.12200021744
 31
0.0
  0
LINE
  8
0
 62
0
 10
12.9029998779
 20
0.300000011921
 30
0.0
 11
12.5839996338
 21
2.30900001526
 31
0.0
  0
LINE
  8
0
 62
0
 10
12.5839996338
 20
-1.70899999142
 30
0.0
 11
12.9029998779
 21
0.300000011921
 31
0.0
  0
LINE
  8
0
 62
0
 10
12.5839996338
 20
-1.70899999142
 30
0.0
 11
11.6610002518
 21
-3.52200007439
 31
0.0
  0
LINE
  8
0
 62
0
 10
11.6610002518
 20
-3.52200007439
 30
0.0
 11
10.7019996643
 21
-4.48099994659
 31
0.0
  0
LINE
  8
0
 62
0
 10
10.7019996643
 20
-4.48099994659
 30
0.0
 11
10.7019996643
 21
-9.70431995392
 31
0.0
  0
LINE
  8
0
 62
0
 10
-2.50099992752
 20
6.76700019836
 30
0.0
 11
-0.0670000016689
 21
9.20100021362
 31
0.0
  0
LINE
  8
0
 62
0
 10
-0.0670000016689
 20
9.20100021362
 30
0.0
 11
3.0
 21
10.763999939
 31
0.0
  0
LINE
  8
0
 62
0
 10
3.0
 20
10.763999939
 30
0.0
 11
6.40000009537
 21
11.3030004501
 31
0.0
  0
LINE
  8
0
 62
0
 10
6.40000009537
 20
11.3030004501
 30
0.0
 11
9.80000019073
 21
10.763999939
 31
0.0
  0
LINE
  8
0
 62
0
 10
9.80000019073
 20
10.763999939
 30
0.0
 11
12.8669996262
 21
9.20100021362
 31
0.0
  0
LINE
  8
0
 62
0
 10
12.8669996262
 20
9.20100021362
 30
0.0
 11
15.3009996414
 21
6.76700019836
 31
0.0
  0
LINE
  8
0
 62
0
 10
16.8640003204
 20
3.70000004768
 30
0.0
 11
15.3009996414
 21
6.76700019836
 31
0.0
  0
LINE
  8
0
 62
0
 10
17.4029998779
 20
0.300000011921
 30
0.0
 11
16.8640003204
 21
3.70000004768
 31
0.0
  0
LINE
  8
0
 62
0
 10
16.8640003204
 20
-3.09999990463
 30
0.0
 11
17.4029998779
 21
0.300000011921
 31
0.0
  0
LINE
  8
0
 62
0
 10
15.3009996414
 20
-6.16699981689
 30
0.0
 11
16.8640003204
 21
-3.09999990463
 31
0.0
  0
LINE
  8
0
 62
0
 10
15.3009996414
 20
-6.16699981689
 30
0.0
 11
12.8669996262
 21
-8.60099983215
 31
0.0
  0
LINE
  8
0
 62
0
 10
12.8669996262
 20
-8.60099983215
 30
0.0
 11
10.7019996643
 21
-9.70431995392
 31
0.0
  0
LINE
  8
0
 62
0
 10
10.7019996643
 20
-9.70431995392
 30
0.0
 11
10.7019996643
 21
-12.1999998093
 31
0.0
  0
LINE
  8
0
 62
0
 10
10.7019996643
 20
-12.1999998093
 30
0.0
 11
19.7000007629
 21
-12.1999998093
 31
0.0
  0
LINE
  8
0
 62
0
 10
19.7000007629
 20
14.8000001907
 30
0.0
 11
19.7000007629
 21
-12.1999998093
 31
0.0
  0
LINE
  8
0
 62
0
 10
19.7000007629
 20
14.8000001907
 30
0.0
 11
-15.0
 21
14.8000001907
 31
0.0
  0
LINE
  8
0
 62
0
 10
-15.0
 20
14.8000001907
 30
0.0
 11
-15.0
 21
-12.1999998093
 31
0.0
  0
LINE
  8
0
 62
0
 10
2.1970000267
 20
-12.1999998093
 30
0.0
 11
-15.0
 21
-12.1999998093
 31
0.0
  0
LINE
  8
0
 62
0
 10
2.1970000267
 20
-9.75477981567
 30
0.0
 11
2.1970000267
 21
-12.1999998093
 31
0.0
  0
LINE
  8
0
 62
0
 10
-0.0670000016689
 20
-8.60099983215
 30
0.0
 11
2.1970000267
 21
-9.75477981567
 31
0.0
  0
LINE
  8
0
 62
0
 10
-0.0670000016689
 20
-8.60099983215
 30
0.0
 11
-2.50099992752
 21
-6.16699981689
 31
0.0
  0
LINE
  8
0
 62
0
 10
-4.0640001297
 20
-3.09999990463
 30
0.0
 11
-2.50099992752
 21
-6.16699981689
 31
0.0
  0
LINE
  8
0
 62
0
 10
-4.0640001297
 20
-3.09999990463
 30
0.0
 11
-4.60200023651
 21
0.300000011921
 31
0.0
  0
LINE
  8
0
 62
0
 10
-4.60200023651
 20
0.300000011921
 30
0.0
 11
-4.0640001297
 21
3.70000004768
 31
0.0
  0
LINE
  8
0
 62
0
 10
-4.0640001297
 20
3.70000004768
 30
0.0
 11
-2.50099992752
 21
6.76700019836
 31
0.0
  0
LINE
  8
0
 62
0
 10
-17.0
 20
-12.1999998093
 30
0.0
 11
-15.0
 21
-12.1999998093
 31
0.0
  0
LINE
  8
0
 62
0
 10
-18.2024002075
 20
-12.1999998093
 30
0.0
 11
-17.0
 21
-12.1999998093
 31
0.0
  0
LINE
  8
0
 62
0
 10
-18.2024002075
 20
-12.1999998093
 30
0.0
 11
-20.9979991913
 21
-12.1999998093
 31
0.0
  0
LINE
  8
0
 62
0
 10
-18.2024002075
 20
14.8000001907
 30
0.0
 11
-20.9979991913
 21
14.8000001907
 31
0.0
  0
LINE
  8
0
 62
0
 10
-17.0
 20
14.8000001907
 30
0.0
 11
-18.2024002075
 21
14.8000001907
 31
0.0
  0
LINE
  8
0
 62
0
 10
-15.0
 20
14.8000001907
 30
0.0
 11
-17.0
 21
14.8000001907
 31
0.0
  0
LINE
  8
0
 62
0
 10
-17.0
 20
14.8000001907
 30
0.0
 11
-17.0
 21
-12.1999998093
 31
0.0
  0
LINE
  8
0
 62
0
 10
-18.2024002075
 20
14.8000001907
 30
0.0
 11
-18.2024002075
 21
-12.1999998093
 31
0.0
  0
LINE
  8
0
 62
0
 10
-20.9979991913
 20
14.8000001907
 30
0.0
 11
-20.9979991913
 21
-12.1999998093
 31
0.0
  0
ENDBLK
  0
ENDSEC
  0
SECTION
  2
ENTITIES
  0
INSERT
  2
ENDER_3___Z_AXIS_BEARING_SUPPORT001_SOLID001
  8
0
 62
0
 10
0.0
 20
0.0
 30
0.0
  0
ENDSEC
  0
EOF
