<svg xmlns="http://www.w3.org/2000/svg" viewBox="0 0 519.43 165.98"><defs><style>.cls-1,.cls-3{fill:none;}.cls-1,.cls-2,.cls-4,.cls-5,.cls-6,.cls-7,.cls-8,.cls-9{stroke:#000;}.cls-1,.cls-2,.cls-3,.cls-4,.cls-5,.cls-6,.cls-7,.cls-8,.cls-9{stroke-linejoin:round;}.cls-1{stroke-dasharray:3;}.cls-3{stroke:#fff;}.cls-4{fill:#fff;}.cls-5{fill:#29abe2;}.cls-6{fill:#22b573;}.cls-7{fill:#d9e021;}.cls-8{fill:#fbb03b;}.cls-9{fill:#f15a24;}</style></defs><title>NeckFinishes</title><g id="Layer_2" data-name="Layer 2"><g id="Layer_1-2" data-name="Layer 1"><line class="cls-1" y1="54.02" x2="519.43" y2="54.02"/><rect class="cls-2" x="226.87" y="0.5" width="62.37" height="53.52"/><line class="cls-3" x1="231.6" y1="3.66" x2="231.6" y2="51.11"/><line class="cls-3" x1="236.1" y1="3.66" x2="236.1" y2="51.11"/><line class="cls-3" x1="240.6" y1="3.66" x2="240.6" y2="51.11"/><line class="cls-3" x1="245.1" y1="3.66" x2="245.1" y2="51.11"/><line class="cls-3" x1="263.1" y1="3.66" x2="263.1" y2="51.11"/><line class="cls-3" x1="267.6" y1="3.66" x2="267.6" y2="51.11"/><line class="cls-3" x1="272.1" y1="3.66" x2="272.1" y2="51.11"/><line class="cls-3" x1="276.6" y1="3.66" x2="276.6" y2="51.11"/><line class="cls-3" x1="281.1" y1="3.66" x2="281.1" y2="51.11"/><rect class="cls-2" x="343.15" y="14.43" width="45.85" height="39.59"/><line class="cls-3" x1="346.45" y1="18.21" x2="346.45" y2="51.11"/><line class="cls-3" x1="350.95" y1="18.21" x2="350.95" y2="51.11"/><line class="cls-3" x1="355.45" y1="18.21" x2="355.45" y2="51.11"/><line class="cls-3" x1="371.45" y1="18.21" x2="371.45" y2="51.11"/><line class="cls-3" x1="375.95" y1="18.21" x2="375.95" y2="51.11"/><line class="cls-3" x1="380.45" y1="18.21" x2="380.45" y2="51.11"/><line class="cls-3" x1="384.95" y1="18.21" x2="384.95" y2="51.11"/><rect class="cls-2" x="440.36" y="9.45" width="62.19" height="44.57"/><line class="cls-3" x1="444.46" y1="12.76" x2="444.46" y2="51.11"/><line class="cls-3" x1="448.96" y1="12.76" x2="448.96" y2="51.11"/><line class="cls-3" x1="453.46" y1="12.76" x2="453.46" y2="51.11"/><line class="cls-3" x1="457.96" y1="12.76" x2="457.96" y2="51.11"/><line class="cls-3" x1="477.46" y1="12.76" x2="477.46" y2="51.11"/><line class="cls-3" x1="481.96" y1="12.76" x2="481.96" y2="51.11"/><line class="cls-3" x1="486.46" y1="12.76" x2="486.46" y2="51.11"/><line class="cls-3" x1="490.96" y1="12.76" x2="490.96" y2="51.11"/><line class="cls-3" x1="495.46" y1="12.76" x2="495.46" y2="51.11"/><rect class="cls-4" x="231.68" y="138.69" width="52.75" height="26.8"/><path class="cls-4" d="M282.56,138.78l-48.74-.09s0-15,0-15V91.5a2,2,0,0,1,2-2h44.74a2,2,0,0,1,2,2v47.28Z"/><rect class="cls-5" x="231.32" y="92.93" width="29.22" height="6" rx="3" transform="translate(-6.09 17.39) rotate(-4)"/><rect class="cls-5" x="255.82" y="106.68" width="29.22" height="6" rx="3" transform="translate(-6.99 19.13) rotate(-4)"/><rect class="cls-5" x="231.05" y="99.8" width="54.02" height="6" rx="3" transform="translate(-6.54 18.25) rotate(-4)"/><path class="cls-4" d="M351,90.23h31a2,2,0,0,1,2,2v20a0,0,0,0,1,0,0H349a0,0,0,0,1,0,0v-20A2,2,0,0,1,351,90.23Z"/><rect class="cls-6" x="346.98" y="92.51" width="20.87" height="4.28" rx="2.14" transform="translate(-5.73 25.16) rotate(-4)"/><rect class="cls-6" x="364.47" y="102.33" width="20.87" height="4.28" rx="2.14" transform="translate(-6.37 26.41) rotate(-4)"/><rect class="cls-6" x="346.79" y="97.41" width="38.57" height="4.28" rx="2.14" transform="translate(-6.05 25.78) rotate(-4)"/><rect class="cls-4" x="347.37" y="112" width="37.41" height="19.55"/><path class="cls-4" d="M495.83,105.73H447.08v-.83l2.83-6.17h43.38l2.54,6.17Z"/><rect class="cls-4" x="445.08" y="130.81" width="52.75" height="26.8"/><path class="cls-4" d="M495.69,131H446.94V105.62h48.75V131Z"/><rect class="cls-7" x="444.64" y="108.74" width="29.22" height="6" rx="3" transform="translate(-6.68 32.31) rotate(-4)"/><rect class="cls-7" x="469.05" y="114.74" width="29.22" height="6" rx="3" transform="translate(-7.04 34.03) rotate(-4)"/><rect class="cls-4" x="448.44" y="90.73" width="46.03" height="8"/><rect class="cls-2" x="7.82" y="23.75" width="62.37" height="30.27"/><line class="cls-3" x1="11.69" y1="26.22" x2="11.69" y2="51.47"/><line class="cls-3" x1="16.19" y1="26.22" x2="16.19" y2="51.47"/><line class="cls-3" x1="20.69" y1="26.22" x2="20.69" y2="51.47"/><line class="cls-3" x1="25.19" y1="26.22" x2="25.19" y2="51.47"/><line class="cls-3" x1="41.19" y1="26.22" x2="41.19" y2="51.47"/><line class="cls-3" x1="45.69" y1="26.22" x2="45.69" y2="51.47"/><line class="cls-3" x1="50.19" y1="26.22" x2="50.19" y2="51.47"/><line class="cls-3" x1="54.69" y1="26.22" x2="54.69" y2="51.47"/><line class="cls-3" x1="59.19" y1="26.22" x2="59.19" y2="51.47"/><rect class="cls-4" x="12.63" y="113.5" width="52.75" height="26.8"/><path class="cls-4" d="M63.43,113.69H14.68V90.32a2,2,0,0,1,2-2H61.43a2,2,0,0,1,2,2v20.38C63.43,112.34,63.44,112.2,63.43,113.69Z"/><rect class="cls-8" x="12.19" y="91.43" width="29.22" height="6" rx="3" transform="translate(-6.52 2.1) rotate(-4)"/><rect class="cls-8" x="36.6" y="97.43" width="29.22" height="6" rx="3" transform="translate(-6.88 3.82) rotate(-4)"/><path d="M34.8,75.1v1.31H33.48v1.81H31.85V76.41h-4V75.17L32.14,69h1.34V75.1Zm-5.4,0h2.45V71.58Z"/><path d="M36.49,77.12a6.12,6.12,0,0,1-.86-3.54,6,6,0,0,1,.86-3.5A2.93,2.93,0,0,1,39,68.87a2.9,2.9,0,0,1,2.51,1.21,5.93,5.93,0,0,1,.87,3.5,6.09,6.09,0,0,1-.87,3.54A2.88,2.88,0,0,1,39,78.34,2.91,2.91,0,0,1,36.49,77.12Zm3.82-.92a6.11,6.11,0,0,0,.41-2.62A5.94,5.94,0,0,0,40.31,71a1.35,1.35,0,0,0-1.3-.81A1.38,1.38,0,0,0,37.7,71a6.09,6.09,0,0,0-.41,2.58,6.27,6.27,0,0,0,.41,2.62A1.38,1.38,0,0,0,39,77,1.36,1.36,0,0,0,40.31,76.2Z"/><path d="M44.29,77.12a6.12,6.12,0,0,1-.86-3.54,6,6,0,0,1,.86-3.5,2.93,2.93,0,0,1,2.52-1.21,2.9,2.9,0,0,1,2.51,1.21,5.93,5.93,0,0,1,.87,3.5,6.09,6.09,0,0,1-.87,3.54,2.88,2.88,0,0,1-2.51,1.22A2.91,2.91,0,0,1,44.29,77.12Zm3.82-.92a6.11,6.11,0,0,0,.41-2.62A5.94,5.94,0,0,0,48.11,71a1.35,1.35,0,0,0-1.3-.81A1.37,1.37,0,0,0,45.5,71a6.09,6.09,0,0,0-.41,2.58,6.27,6.27,0,0,0,.41,2.62,1.44,1.44,0,0,0,2.61,0Z"/><rect class="cls-2" x="113.7" y="13.45" width="62.37" height="40.57"/><line class="cls-3" x1="118.69" y1="16.85" x2="118.69" y2="51.11"/><line class="cls-3" x1="123.19" y1="16.85" x2="123.19" y2="51.11"/><line class="cls-3" x1="127.69" y1="16.85" x2="127.69" y2="51.11"/><line class="cls-3" x1="132.19" y1="16.85" x2="132.19" y2="51.11"/><line class="cls-3" x1="148.19" y1="16.85" x2="148.19" y2="51.11"/><line class="cls-3" x1="152.69" y1="16.85" x2="152.69" y2="51.11"/><line class="cls-3" x1="157.19" y1="16.85" x2="157.19" y2="51.11"/><line class="cls-3" x1="161.69" y1="16.85" x2="161.69" y2="51.11"/><line class="cls-3" x1="166.19" y1="16.85" x2="166.19" y2="51.11"/><rect class="cls-4" x="118.51" y="123.73" width="52.75" height="26.8"/><path class="cls-4" d="M169.47,123.73H120.73V91.55a2,2,0,0,1,2-2h44.74a2,2,0,0,1,2,2v32.18Z"/><rect class="cls-9" x="118.24" y="92.93" width="29.22" height="6" rx="3" transform="translate(-6.37 9.5) rotate(-4)"/><rect class="cls-9" x="117.88" y="99.8" width="54.02" height="6" rx="3" transform="translate(-6.82 10.36) rotate(-4)"/><path d="M140.68,75.1v1.31h-1.32v1.81h-1.63V76.41h-4V75.17L138,69h1.34V75.1Zm-5.4,0h2.45V71.58Z"/><path d="M146.14,76.86h2v1.36h-5.71V76.86h2v-6L142.59,72V70.53L145.16,69h1Z"/><path d="M150.17,77.12a6.12,6.12,0,0,1-.86-3.54,6,6,0,0,1,.86-3.5,2.93,2.93,0,0,1,2.52-1.21,2.9,2.9,0,0,1,2.51,1.21,5.93,5.93,0,0,1,.87,3.5,6.09,6.09,0,0,1-.87,3.54,2.88,2.88,0,0,1-2.51,1.22A2.91,2.91,0,0,1,150.17,77.12ZM154,76.2a6.11,6.11,0,0,0,.41-2.62A5.94,5.94,0,0,0,154,71a1.35,1.35,0,0,0-1.3-.81,1.37,1.37,0,0,0-1.31.81,6.09,6.09,0,0,0-.41,2.58,6.27,6.27,0,0,0,.41,2.62,1.44,1.44,0,0,0,2.61,0Z"/><path d="M253.85,75.11v1.32h-1.32v1.81H250.9V76.43h-4V75.18L251.2,69h1.33v6.13Zm-5.4,0h2.45V71.59Z"/><path d="M259.31,76.87h2v1.37h-5.7V76.87h2v-6L255.76,72V70.54L258.33,69h1Z"/><path d="M267.89,72.69a2.55,2.55,0,0,1,1,1,3.11,3.11,0,0,1,.37,1.54,3.07,3.07,0,0,1-.42,1.61A2.84,2.84,0,0,1,267.67,78a4.15,4.15,0,0,1-1.81.38,5.4,5.4,0,0,1-1.72-.29,4.15,4.15,0,0,1-1.39-.79l.56-1.22a4.22,4.22,0,0,0,2.57,1,1.84,1.84,0,0,0,1.34-.44,1.61,1.61,0,0,0,.46-1.24,1.67,1.67,0,0,0-.47-1.23,1.78,1.78,0,0,0-1.27-.46,2.7,2.7,0,0,0-1,.2,2.49,2.49,0,0,0-.84.6h-1V69h5.8v1.3h-4.16V72.8a2.87,2.87,0,0,1,1.66-.48A3.08,3.08,0,0,1,267.89,72.69Z"/><path d="M361.86,75.11v1.32h-1.32v1.81h-1.63V76.43h-4V75.18L359.2,69h1.34v6.13Zm-5.4,0h2.45V71.59Z"/><path d="M369.3,76.87v1.37h-6.21V77l3.15-3.39a5.71,5.71,0,0,0,.82-1.12,2.22,2.22,0,0,0,.26-1,1.21,1.21,0,0,0-.37-1,1.56,1.56,0,0,0-1.06-.33,4.19,4.19,0,0,0-2.51,1l-.56-1.22a4,4,0,0,1,1.4-.79,5.46,5.46,0,0,1,1.73-.29,3.33,3.33,0,0,1,2.2.68,2.27,2.27,0,0,1,.82,1.84,3.37,3.37,0,0,1-.35,1.5,6.78,6.78,0,0,1-1.15,1.57l-2.27,2.42Z"/><path d="M375.91,72.69a2.64,2.64,0,0,1,1,1,3.21,3.21,0,0,1,.36,1.54,3.07,3.07,0,0,1-.42,1.61A2.78,2.78,0,0,1,375.69,78a4.12,4.12,0,0,1-1.81.38,5.29,5.29,0,0,1-1.71-.29,4.1,4.1,0,0,1-1.4-.79l.56-1.22a4.22,4.22,0,0,0,2.58,1,1.83,1.83,0,0,0,1.33-.44,1.61,1.61,0,0,0,.46-1.24,1.67,1.67,0,0,0-.47-1.23,1.78,1.78,0,0,0-1.27-.46,2.7,2.7,0,0,0-1,.2,2.49,2.49,0,0,0-.84.6h-1V69h5.8v1.3h-4.16V72.8a2.88,2.88,0,0,1,1.67-.48A3,3,0,0,1,375.91,72.69Z"/><path d="M467.24,75.1v1.31h-1.31v1.81h-1.64V76.41h-4V75.17l4.33-6.2h1.34V75.1Zm-5.39,0h2.44V71.58Z"/><path d="M474.14,74.27a2.34,2.34,0,0,1,.43,1.44,2.27,2.27,0,0,1-.89,1.91,3.75,3.75,0,0,1-2.4.71,5.75,5.75,0,0,1-1.8-.29,4,4,0,0,1-1.42-.79l.57-1.22a4.18,4.18,0,0,0,2.59,1,2.1,2.1,0,0,0,1.32-.35,1.3,1.3,0,0,0,.43-1.07,1.18,1.18,0,0,0-.44-1,2.26,2.26,0,0,0-1.36-.34h-1.23V72.87h1c1.19,0,1.79-.46,1.79-1.37a1.21,1.21,0,0,0-.39-1,1.58,1.58,0,0,0-1.09-.34,4.1,4.1,0,0,0-2.5,1l-.56-1.22a4.25,4.25,0,0,1,1.41-.79,5.49,5.49,0,0,1,1.75-.29,3.3,3.3,0,0,1,2.18.67,2.2,2.2,0,0,1,.81,1.79,2.45,2.45,0,0,1-.39,1.33,2.18,2.18,0,0,1-1.08.82A2.24,2.24,0,0,1,474.14,74.27Z"/><path d="M476.74,77.12a6,6,0,0,1-.87-3.54,6,6,0,0,1,.87-3.5,2.9,2.9,0,0,1,2.51-1.21,2.93,2.93,0,0,1,2.52,1.21,6,6,0,0,1,.86,3.5,6.17,6.17,0,0,1-.86,3.54,2.91,2.91,0,0,1-2.52,1.22A2.88,2.88,0,0,1,476.74,77.12Zm3.82-.92a6.27,6.27,0,0,0,.41-2.62,6.09,6.09,0,0,0-.41-2.58,1.37,1.37,0,0,0-1.31-.81A1.35,1.35,0,0,0,478,71a5.94,5.94,0,0,0-.41,2.58A6.11,6.11,0,0,0,478,76.2a1.44,1.44,0,0,0,2.61,0Z"/></g></g></svg>