solid OpenSCAD_Model
  facet normal -1 0 0
    outer loop
      vertex -15 -4 21.5
      vertex -15 4 23
      vertex -15 4 21.5
    endloop
  endfacet
  facet normal -1 -0 0
    outer loop
      vertex -15 4 23
      vertex -15 -4 21.5
      vertex -15 -4 23
    endloop
  endfacet
  facet normal -0 0 1
    outer loop
      vertex -15 4 23
      vertex -4 -4 23
      vertex -4 4 23
    endloop
  endfacet
  facet normal 0 0 1
    outer loop
      vertex -4 -4 23
      vertex -15 4 23
      vertex -15 -4 23
    endloop
  endfacet
  facet normal 0 0 1
    outer loop
      vertex -4 4 23
      vertex 4 4 23
      vertex 4 15 23
    endloop
  endfacet
  facet normal 0 0 1
    outer loop
      vertex -4 4 23
      vertex 4 15 23
      vertex -4 15 23
    endloop
  endfacet
  facet normal 0 0 1
    outer loop
      vertex 4 4 23
      vertex -4 4 23
      vertex 4 -4 23
    endloop
  endfacet
  facet normal 0 0 1
    outer loop
      vertex -4 -4 23
      vertex 4 -4 23
      vertex -4 4 23
    endloop
  endfacet
  facet normal 0 0 1
    outer loop
      vertex 4 -4 23
      vertex -4 -4 23
      vertex 4 -15 23
    endloop
  endfacet
  facet normal 0 0 1
    outer loop
      vertex 4 -15 23
      vertex -4 -4 23
      vertex -4 -15 23
    endloop
  endfacet
  facet normal -0 0 1
    outer loop
      vertex 4 4 23
      vertex 15 -4 23
      vertex 15 4 23
    endloop
  endfacet
  facet normal 0 0 1
    outer loop
      vertex 15 -4 23
      vertex 4 4 23
      vertex 4 -4 23
    endloop
  endfacet
  facet normal 1 -0 0
    outer loop
      vertex 15 -4 23
      vertex 15 4 21.5
      vertex 15 4 23
    endloop
  endfacet
  facet normal 1 0 0
    outer loop
      vertex 15 4 21.5
      vertex 15 -4 23
      vertex 15 -4 21.5
    endloop
  endfacet
  facet normal 0 0 -1
    outer loop
      vertex 4 -15 21.5
      vertex -4 -4 21.5
      vertex 4 -4 21.5
    endloop
  endfacet
  facet normal 0 -0 -1
    outer loop
      vertex -4 -4 21.5
      vertex 4 -15 21.5
      vertex -4 -15 21.5
    endloop
  endfacet
  facet normal 0 0 -1
    outer loop
      vertex 4 4 21.5
      vertex -4 15 21.5
      vertex 4 15 21.5
    endloop
  endfacet
  facet normal 0 -0 -1
    outer loop
      vertex -4 15 21.5
      vertex 4 4 21.5
      vertex -4 4 21.5
    endloop
  endfacet
  facet normal 0 0 -1
    outer loop
      vertex -15 -4 21.5
      vertex -4 4 21.5
      vertex -4 -4 21.5
    endloop
  endfacet
  facet normal -0 0 -1
    outer loop
      vertex -4 4 21.5
      vertex -15 -4 21.5
      vertex -15 4 21.5
    endloop
  endfacet
  facet normal 0 0 -1
    outer loop
      vertex 4 -4 21.5
      vertex 15 4 21.5
      vertex 15 -4 21.5
    endloop
  endfacet
  facet normal -0 0 -1
    outer loop
      vertex 15 4 21.5
      vertex 4 -4 21.5
      vertex 4 4 21.5
    endloop
  endfacet
  facet normal 0 -1 0
    outer loop
      vertex 4 -4 23
      vertex 4 -4 21.5
      vertex 15 -4 23
    endloop
  endfacet
  facet normal 0 -1 -0
    outer loop
      vertex 15 -4 23
      vertex 4 -4 21.5
      vertex 15 -4 21.5
    endloop
  endfacet
  facet normal 0 -1 0
    outer loop
      vertex -15 -4 21.5
      vertex -4 -4 23
      vertex -15 -4 23
    endloop
  endfacet
  facet normal 0 -1 0
    outer loop
      vertex -4 -4 21.5
      vertex -4 -4 23
      vertex -15 -4 21.5
    endloop
  endfacet
  facet normal 0 -1 -0
    outer loop
      vertex -4 -4 21.5
      vertex -4 -4 1.5
      vertex 4 -4 21.5
    endloop
  endfacet
  facet normal 0 -1 0
    outer loop
      vertex 4 -4 1.5
      vertex 4 -4 21.5
      vertex -4 -4 1.5
    endloop
  endfacet
  facet normal 0 1 0
    outer loop
      vertex -4 4 23
      vertex -4 4 21.5
      vertex -15 4 23
    endloop
  endfacet
  facet normal 0 1 0
    outer loop
      vertex -15 4 23
      vertex -4 4 21.5
      vertex -15 4 21.5
    endloop
  endfacet
  facet normal 0 1 -0
    outer loop
      vertex 15 4 21.5
      vertex 4 4 23
      vertex 15 4 23
    endloop
  endfacet
  facet normal 0 1 -0
    outer loop
      vertex 4 4 21.5
      vertex 4 4 23
      vertex 15 4 21.5
    endloop
  endfacet
  facet normal 0 1 0
    outer loop
      vertex 4 4 21.5
      vertex 4 4 1.5
      vertex -4 4 21.5
    endloop
  endfacet
  facet normal 0 1 0
    outer loop
      vertex -4 4 1.5
      vertex -4 4 21.5
      vertex 4 4 1.5
    endloop
  endfacet
  facet normal 0 1 -0
    outer loop
      vertex 4 15 21.5
      vertex -4 15 23
      vertex 4 15 23
    endloop
  endfacet
  facet normal 0 1 0
    outer loop
      vertex -4 15 23
      vertex 4 15 21.5
      vertex -4 15 21.5
    endloop
  endfacet
  facet normal -1 2.16744e-08 0
    outer loop
      vertex -4 4 21.5
      vertex -4 15 23
      vertex -4 15 21.5
    endloop
  endfacet
  facet normal -1 2.16744e-08 0
    outer loop
      vertex -4 15 23
      vertex -4 4 21.5
      vertex -4 4 23
    endloop
  endfacet
  facet normal -1 2.16744e-08 0
    outer loop
      vertex -4 -15 21.5
      vertex -4 -4 23
      vertex -4 -4 21.5
    endloop
  endfacet
  facet normal -1 2.16744e-08 0
    outer loop
      vertex -4 -4 23
      vertex -4 -15 21.5
      vertex -4 -15 23
    endloop
  endfacet
  facet normal 0 -1 0
    outer loop
      vertex -4 -15 21.5
      vertex 4 -15 23
      vertex -4 -15 23
    endloop
  endfacet
  facet normal 0 -1 -0
    outer loop
      vertex 4 -15 23
      vertex -4 -15 21.5
      vertex 4 -15 21.5
    endloop
  endfacet
  facet normal 1 -2.16744e-08 0
    outer loop
      vertex 4 -15 23
      vertex 4 -4 21.5
      vertex 4 -4 23
    endloop
  endfacet
  facet normal 1 -2.16744e-08 0
    outer loop
      vertex 4 -4 21.5
      vertex 4 -15 23
      vertex 4 -15 21.5
    endloop
  endfacet
  facet normal 1 -2.16744e-08 0
    outer loop
      vertex 4 4 23
      vertex 4 15 21.5
      vertex 4 15 23
    endloop
  endfacet
  facet normal 1 -2.16744e-08 0
    outer loop
      vertex 4 15 21.5
      vertex 4 4 23
      vertex 4 4 21.5
    endloop
  endfacet
  facet normal -1 0 0
    outer loop
      vertex -10 -10 0
      vertex -10 10 1.5
      vertex -10 10 0
    endloop
  endfacet
  facet normal -1 -0 0
    outer loop
      vertex -10 10 1.5
      vertex -10 -10 0
      vertex -10 -10 1.5
    endloop
  endfacet
  facet normal 0 0 1
    outer loop
      vertex 10 10 1.5
      vertex 4 4 1.5
      vertex 10 -10 1.5
    endloop
  endfacet
  facet normal 0 0 1
    outer loop
      vertex 10 10 1.5
      vertex -4 4 1.5
      vertex 4 4 1.5
    endloop
  endfacet
  facet normal 0 0 1
    outer loop
      vertex -4 4 1.5
      vertex -10 10 1.5
      vertex -4 -4 1.5
    endloop
  endfacet
  facet normal -0 0 1
    outer loop
      vertex -10 10 1.5
      vertex -4 4 1.5
      vertex 10 10 1.5
    endloop
  endfacet
  facet normal -0 0 1
    outer loop
      vertex 4 -4 1.5
      vertex 10 -10 1.5
      vertex 4 4 1.5
    endloop
  endfacet
  facet normal -0 0 1
    outer loop
      vertex -4 -4 1.5
      vertex 10 -10 1.5
      vertex 4 -4 1.5
    endloop
  endfacet
  facet normal 0 0 1
    outer loop
      vertex -4 -4 1.5
      vertex -10 -10 1.5
      vertex 10 -10 1.5
    endloop
  endfacet
  facet normal 0 0 1
    outer loop
      vertex -10 -10 1.5
      vertex -4 -4 1.5
      vertex -10 10 1.5
    endloop
  endfacet
  facet normal 1 -0 0
    outer loop
      vertex 10 -10 1.5
      vertex 10 10 0
      vertex 10 10 1.5
    endloop
  endfacet
  facet normal 1 0 0
    outer loop
      vertex 10 10 0
      vertex 10 -10 1.5
      vertex 10 -10 0
    endloop
  endfacet
  facet normal 0 0 -1
    outer loop
      vertex -10 -10 0
      vertex 10 10 0
      vertex 10 -10 0
    endloop
  endfacet
  facet normal -0 0 -1
    outer loop
      vertex 10 10 0
      vertex -10 -10 0
      vertex -10 10 0
    endloop
  endfacet
  facet normal 0 -1 0
    outer loop
      vertex -10 -10 0
      vertex 10 -10 1.5
      vertex -10 -10 1.5
    endloop
  endfacet
  facet normal 0 -1 -0
    outer loop
      vertex 10 -10 1.5
      vertex -10 -10 0
      vertex 10 -10 0
    endloop
  endfacet
  facet normal 0 1 -0
    outer loop
      vertex 10 10 0
      vertex -10 10 1.5
      vertex 10 10 1.5
    endloop
  endfacet
  facet normal 0 1 0
    outer loop
      vertex -10 10 1.5
      vertex 10 10 0
      vertex -10 10 0
    endloop
  endfacet
  facet normal -1 0 0
    outer loop
      vertex -4 -4 1.5
      vertex -4 4 21.5
      vertex -4 4 1.5
    endloop
  endfacet
  facet normal -1 -0 0
    outer loop
      vertex -4 4 21.5
      vertex -4 -4 1.5
      vertex -4 -4 21.5
    endloop
  endfacet
  facet normal 1 -0 0
    outer loop
      vertex 4 -4 21.5
      vertex 4 4 1.5
      vertex 4 4 21.5
    endloop
  endfacet
  facet normal 1 0 0
    outer loop
      vertex 4 4 1.5
      vertex 4 -4 21.5
      vertex 4 -4 1.5
    endloop
  endfacet
endsolid OpenSCAD_Model
