<?xml version="1.0" encoding="utf-8"?>
<!-- Generator: Fusion 360, Shaper Origin Export Add-In, Version 1.6.0  -->
<svg xmlns="http://www.w3.org/2000/svg" xmlns:xlink="http://www.w3.org/1999/xlink" xmlns:shaper="http://www.shapertools.com/namespaces/shaper" shaper:fusionaddin="version:1.6.0" width="11.43cm" height="2.54cm" version="1.1" x="0cm" y="0cm" viewBox="0 0 11.43 2.54" enable-background="new 0 0 11.43 2.54" xml:space="preserve"><path d="M-3.81,2.54 L-3.81,0 0,0 7.62,0 7.62,2.54 0,2.54 -3.81,2.54z" transform="matrix(1,0,0,-1,3.81,2.54)" fill="rgb(0,0,0)" shaper:cutDepth="0.1524" stroke-linecap="round" stroke-linejoin="round" /><path d="M-2.54,0.635 A0.635,0.635 270 0,0 -2.54,1.905 L-0,1.905 A0.635,0.635 90 0,0 -0,0.635 L-2.54,0.635z" transform="matrix(1,0,0,-1,3.81,2.54)" fill="rgb(108,108,108)" fill-rule="nonzero" shaper:cutDepth="0.0127" stroke-linecap="round" stroke-linejoin="round" /><path d="M6.096,2.54 L7.62,2.54 7.62,0 6.096,0 6.096,2.54z" transform="matrix(1,0,0,-1,3.81,2.54)" fill="rgb(166,166,166)" fill-rule="nonzero" shaper:cutDepth="0.1016" stroke-linecap="round" stroke-linejoin="round" /></svg>