<?xml version="1.0" encoding="utf-8"?>
<!-- Generator: Fusion 360, Shaper Origin Export Add-In, Version 1.6.0  -->
<svg xmlns="http://www.w3.org/2000/svg" xmlns:xlink="http://www.w3.org/1999/xlink" xmlns:shaper="http://www.shapertools.com/namespaces/shaper" shaper:fusionaddin="version:1.6.0" width="15.24cm" height="11.43cm" version="1.1" x="0cm" y="0cm" viewBox="0 0 15.24 11.43" enable-background="new 0 0 15.24 11.43" xml:space="preserve"><path d="M0,0 L11.43,0 A3.81,3.81 270 0,1 15.24,3.81 L15.24,11.43 10.16,11.43 10.16,9.906 A2.54,2.54 0 0,0 9.104134,7.8447027 L5.929134,5.5587028 A2.54,2.54 305.7538867 0,0 4.445,5.08 L0,5.08 0,0z" transform="matrix(1,0,0,-1,-0,11.43)" fill="rgb(0,0,0)" shaper:cutDepth="0.0254" stroke-linecap="round" stroke-linejoin="round" /><path d="M6.2769251,1.4035612 A1.3015938,1.3015938 270 0,0 5.8223299,3.9247819 A3.9435612,3.9435612 290.4420868 0,1 6.7492414,4.4196647 L9.9242414,6.7056646 A3.9435612,3.9435612 305.7538867 0,1 11.3282103,8.564042 A1.2926879,1.2926879 160.1054026 0,0 13.8364388,8.1241521 L13.8364388,3.81 A2.4064388,2.4064388 0 0,0 11.43,1.4035612 L6.2769251,1.4035612z" transform="matrix(1,0,0,-1,-0,11.43)" fill="rgb(150,150,150)" fill-rule="nonzero" shaper:cutDepth="0.0127" stroke-linecap="round" stroke-linejoin="round" /><path d="M1.905,2.54 a1.27,1.27 0 1,1 2.5400001,0 a1.27,1.27 0 1,1 -2.5400001,0z" transform="matrix(1,0,0,-1,-0,11.43)" fill="rgb(255,255,255)" stroke="rgb(0,0,0)" stroke-width="0.0010cm" stroke-linecap="round" stroke-linejoin="round" shaper:cutDepth="0.0254" /></svg>