<?xml version="1.0" encoding="utf-8"?>
<!-- Generator: Fusion 360, Shaper Origin Export Add-In, Version 1.6.0  -->
<svg xmlns="http://www.w3.org/2000/svg" xmlns:xlink="http://www.w3.org/1999/xlink" xmlns:shaper="http://www.shapertools.com/namespaces/shaper" shaper:fusionaddin="version:1.6.0" width="13.8364388cm" height="8.14684cm" version="1.1" x="0cm" y="0cm" viewBox="0 0 13.8364388 8.14684" enable-background="new 0 0 13.8364388 8.14684" xml:space="preserve"><path d="M-0,3.81 L0,1.27 1.27,1.27 1.27,3.81 0,3.81z" transform="matrix(1,0,0,-1,0,9.41684)" fill="rgb(0,0,0)" shaper:cutDepth="0" stroke-linecap="round" stroke-linejoin="round" /><path d="M11.43,1.4035612 A2.4064388,2.4064388 270 0,1 13.8364388,3.81 L13.8364388,8.1241521 A1.2926879,1.2926879 0 0,1 11.3282103,8.564042 A3.9435612,3.9435612 340.1054026 0,0 9.9242414,6.7056646 L6.7492414,4.4196647 A3.9435612,3.9435612 305.7538867 0,0 5.8223299,3.9247819 A1.3015938,1.3015938 110.4420868 0,1 6.2769251,1.4035612 L11.43,1.4035612z" transform="matrix(1,0,0,-1,0,9.41684)" fill="rgb(0,0,0)" shaper:cutDepth="0" stroke-linecap="round" stroke-linejoin="round" /></svg>