<?xml version="1.0" encoding="utf-8"?>
<!-- Generator: Adobe Illustrator 15.0.0, SVG Export Plug-In . SVG Version: 6.00 Build 0)  -->
<!DOCTYPE svg PUBLIC "-//W3C//DTD SVG 1.1//EN" "http://www.w3.org/Graphics/SVG/1.1/DTD/svg11.dtd">
<svg version="1.1" id="Layer_1" xmlns="http://www.w3.org/2000/svg" xmlns:xlink="http://www.w3.org/1999/xlink" x="0px" y="0px"
	 width="432px" height="144px" viewBox="0 0 432 144" enable-background="new 0 0 432 144" xml:space="preserve">
<path fill="#F8F8F7" d="M210.891,72.826h-15.887v10.306c0,0.999-0.812,1.812-1.811,1.812c-1.002,0-1.815-0.813-1.815-1.812V58.893
	c0-0.997,0.812-1.805,1.815-1.805c0.999,0,1.811,0.808,1.811,1.805v10.307h15.887V58.87c0-0.997,0.812-1.809,1.816-1.809
	c0.997,0,1.809,0.812,1.809,1.809v24.262c0,0.999-0.812,1.812-1.809,1.812c-1.004,0-1.816-0.813-1.816-1.812V72.826z"/>
<path fill="#F8F8F7" d="M306.804,59.125c0-0.996,0.812-1.813,1.817-1.813"/>
<path fill="#F8F8F7" d="M308.621,85.311c-1.006,0-1.817-0.812-1.817-1.812V59.125c0-0.996,0.812-1.813,1.817-1.813h15.55
	c1.007,0,1.819,0.818,1.819,1.813c0,0.997-0.812,1.81-1.819,1.81h-13.692v7.993h11.287c1.001,0,1.813,0.819,1.813,1.817
	c0,1-0.812,1.813-1.813,1.813h-11.337v9.13h13.742c1.007,0,1.819,0.807,1.819,1.811c0,1-0.812,1.812-1.819,1.812H308.621z"/>
<path fill="#F8F8F7" d="M356.615,74.927c3.405-1.292,5.829-4.583,5.829-8.437c0-4.971-4.043-9.024-9.021-9.024h-9.784
	c-0.996,0-1.803,0.812-1.803,1.818v24.208c0,1.006,0.807,1.818,1.803,1.818c1.015,0,1.82-0.812,1.82-1.818V75.51h7.06l6.659,9.072
	c0.355,0.473,0.9,0.729,1.457,0.729c0.378,0,0.757-0.117,1.082-0.362c0.802-0.599,0.967-1.737,0.368-2.539L356.615,74.927z
	 M345.46,71.878V61.093h7.964c2.977,0,5.399,2.426,5.399,5.397c0,2.974-2.423,5.388-5.399,5.388H345.46z"/>
<path fill="#F8F8F7" d="M165.42,85.07c-4.095,0-7.031-1.774-8.67-4.451c-0.518-0.846-0.251-1.949,0.598-2.472
	c0.847-0.513,1.948-0.249,2.464,0.598c0.381,0.62,1.867,2.642,5.142,2.743h0.07c0.013,0,1.357,0.084,2.499-0.023l0.177-0.01
	c2.235,0,5.551-1.245,5.551-4.684c0-2.224-1.902-3.691-5.352-4.125c-0.697-0.089-2.233-0.182-3.043-0.204h0.047
	c-0.047,0-0.092,0-0.141-0.005c-5.708-0.459-8.606-3.07-8.606-7.772c0-4.976,4.564-7.685,8.897-7.706
	c0.266-0.024,1.583-0.031,2.647,0.094c2.463,0.125,5.911,1.35,7.942,3.424c0.691,0.712,0.678,1.848-0.034,2.542
	c-0.349,0.344-0.798,0.508-1.256,0.508c-0.463,0-0.929-0.182-1.283-0.538c-1.134-1.168-3.437-2.123-5.882-2.354
	c-1.014-0.036-2.15,0.006-2.163,0.006h-0.121c-1.782,0-5.123,0.823-5.123,4.003c0,1.502,0.517,3.925,5.172,4.207
	c0.922,0.025,2.571,0.125,3.397,0.232c7.877,0.994,8.489,6.136,8.489,7.687c0,5.337-3.824,8.546-10.255,8.273L165.42,85.07z"/>
<path fill="#F8F8F7" d="M241.983,57.782c1.072-1.874,2.819-1.874,3.891,0l13.572,23.663c1.064,1.865-0.008,3.393-1.454,3.393
	c-1.448,0-3.616,0.004-5.775,0.004h-16.743h-5.614c-1.4,0-2.519-1.531-1.443-3.396L241.983,57.782z M254.884,81.221L243.923,61.96
	l-11.046,19.23L254.884,81.221z"/>
<path fill="#F8F8F7" d="M284.039,57.499h-9.978c-0.991,0-1.809,0.813-1.809,1.812v14.69v9.305c0,1.003,0.817,1.813,1.809,1.813
	c1.007,0,1.82-0.811,1.82-1.813v-7.492h8.157c5.05,0,9.151-4.11,9.151-9.161C293.19,61.606,289.089,57.499,284.039,57.499
	 M284.039,72.19h-8.157V61.129h8.157c3.054,0,5.529,2.476,5.529,5.523C289.568,69.707,287.093,72.19,284.039,72.19"/>
<path fill="none" stroke="#0F0F0F" stroke-width="3.3578" stroke-miterlimit="10" d="M81.179,110.898"/>
<path fill="#F8F8F7" d="M165.053,56.959"/>
<path fill="#F8F8F7" d="M166.499,57.782"/>
<g>
	<polygon fill="#F8F8F7" points="82.309,79.512 104.248,79.534 93.319,60.34 	"/>
	<path fill="#F8F8F7" d="M93.326,35.874c-19.782,0-35.871,16.092-35.871,35.868c0,19.781,16.089,35.877,35.871,35.877
		c19.784,0,35.876-16.096,35.876-35.877C129.202,51.966,113.11,35.874,93.326,35.874z M107.341,83.145
		c-1.444,0-3.602,0.002-5.755,0.002H84.902H79.3c-1.398,0-2.504-1.518-1.443-3.38L91.386,56.18c1.064-1.87,2.806-1.87,3.877,0
		l13.523,23.586C109.861,81.629,108.779,83.145,107.341,83.145z"/>
</g>
<g>
	<path fill="#F8F8F7" d="M373.616,57.432v0.975h-1.646v4.529h-1.157v-4.529h-1.654v-0.975H373.616z"/>
	<path fill="#F8F8F7" d="M378.397,57.432h1.655v5.503h-1.071v-3.722c0-0.107,0.001-0.257,0.004-0.45
		c0.002-0.193,0.003-0.341,0.003-0.446l-1.043,4.618h-1.117l-1.036-4.618c0,0.104,0.001,0.253,0.004,0.446s0.004,0.343,0.004,0.45
		v3.722h-1.071v-5.503h1.674l1.001,4.328L378.397,57.432z"/>
</g>
</svg>
