<?xml version="1.0" encoding="utf-8"?>
<!-- Generator: Fusion 360, Shaper Origin Export Add-In, Version 0.2  -->
<svg enable-background="new 0 0 11.93800038099289 6.604000210762025" height="6.604000210762025cm" shaper:fusionaddin="version:0.2" version="1.1" viewBox="0 0 11.93800038099289 6.604000210762025" width="11.93800038099289cm" x="0cm" xml:space="preserve" xmlns="http://www.w3.org/2000/svg" xmlns:shaper="http://www.shapertools.com/namespaces/shaper" xmlns:xlink="http://www.w3.org/1999/xlink" y="0cm"><title>Title</title><desc>Description</desc><path d="M11.407847775804491,6.604000210762022 A1.3472888624288148,1.3472888624288148 0 1,0 8.912152872694044,6.604000210762023 L8.281600086488128,6.604000210762025 8.281600086488126,6.604000210762025 8.242097239420318,6.393245867945085 8.196179807312381,6.1981658773753745 8.143896096955961,6.018750468622236 8.085317055584904,5.854971016617673 8.020540812980945,5.706775020137997 7.949697090138065,5.574081103492466 7.872951068856025,5.456774131813915 7.790506959445662,5.3547003883530815 7.702611925814604,5.267662578074516 7.609561555640075,5.195414103612657 7.511706277005557,5.137652893994795 7.409456872030204,5.094015547505836 7.303285621512078,5.064073034453384 7.193724475680987,5.047327460511895 7.081360638951894,5.04320964314138 6.966820673365972,5.051080245554446 6.850746194030124,5.070233516766259 6.733769364433143,5.099901186479975 6.4994649120176735,5.187414035574635 6.268007432903299,5.306342578793235 6.0420186779380165,5.448588405719841 5.605461606663721,5.7670683660938105 5.3880116450661975,5.924242934648094 5.163404367122759,6.06759366172549 4.924970578593332,6.188921614888996 4.666447602633976,6.28167557729159 4.528035849947515,6.315889423085369 4.382918767125446,6.341564363892596 4.230862562311052,6.358632689063824 4.071834405773268,6.367245586345385 3.7337068177338972,6.360750112366874 3.3720154097172514,6.327243485940268 2.9926804237047993,6.2744281655851 2.6034098923073166,6.21184285770866 2.2131169259189454,6.1502225207734975 1.8313291148416275,6.1008499612733535 1.4675862008312346,6.07489901018067 1.295326232267786,6.07401549751385 1.1308682210046044,6.082807986329974 0.9751438648995887,6.102352787311588 0.8289735465592228,6.133596471360286 0.6930646907663447,6.177354450825886 0.5680152917281265,6.2343153430425415 0.4543193375991311,6.305047460342724 0.3523766239342568,6.39001022024027 0.26250427826062955,6.489567473666182 0.1849477342637389,6.604000210762024 0.0,6.604000210762024 0.0,1.243655561613724 5.969000190496445,1.243655561613724 5.969000190496445,0.0 11.93800038099289,0.0 11.93800038099289,6.604000210762024 11.407847775804491,6.604000210762024" fill="rgb(0,0,0)" shaper:cutDepth="0.0" shaper:pathType="exterior" transform="matrix(1,0,0,-1,-0.0,6.604000210762025)" vector-effect="non-scaling-stroke" /><path d="M 8.89000028371811 2.540000081062317 m -2.1849906875612692, 0 a 2.1849906875612692,2.1849906875612692 0 1,0 4.3699813751225385,0 a 2.1849906875612692,2.1849906875612692 0 1,0 -4.3699813751225385,0" fill="rgb(255,255,255)" shaper:cutDepth="0.0" shaper:pathType="interior" stroke="rgb(0,0,0)" stroke-width="2" transform="matrix(1,0,0,-1,-0.0,6.604000210762025)" vector-effect="non-scaling-stroke" /><path d="M 3.302000105381012 3.8100001215934753 m -1.983803480991984, 0 a 1.983803480991984,1.983803480991984 0 1,0 3.967606961983968,0 a 1.983803480991984,1.983803480991984 0 1,0 -3.967606961983968,0" fill="rgb(255,255,255)" shaper:cutDepth="0.0" shaper:pathType="interior" stroke="rgb(0,0,0)" stroke-width="2" transform="matrix(1,0,0,-1,-0.0,6.604000210762025)" vector-effect="non-scaling-stroke" /></svg>