<?xml version="1.0" encoding="utf-8"?>
<!-- Generator: Fusion 360, Shaper Origin Export Add-In, Version 0.2  -->
<svg enable-background="new 0 0 10.41400033235552 9.091145995671248" height="9.091145995671248cm" shaper:fusionaddin="version:0.2" version="1.1" viewBox="0 0 10.41400033235552 9.091145995671248" width="10.41400033235552cm" x="0cm" xml:space="preserve" xmlns="http://www.w3.org/2000/svg" xmlns:shaper="http://www.shapertools.com/namespaces/shaper" xmlns:xlink="http://www.w3.org/1999/xlink" y="0cm"><title>Title</title><desc>Description</desc><path d="M0.0,0.0 L8.89000028371811,0.0 8.89000028371811,4.318000137805939 0.0,4.318000137805939 0.0,0.0" fill="none" shaper:cutDepth="0.0" shaper:pathType="guide" stroke="rgb(100,100,100)" stroke-width="2" transform="matrix(1,0,0,-1,-0.0,7.242405992888325)" vector-effect="non-scaling-stroke" /><path d="M 2.540000081062317 2.0320000648498535 m -1.0472688623297353, 0 a 1.0472688623297353,1.0472688623297353 0 1,0 2.0945377246594705,0 a 1.0472688623297353,1.0472688623297353 0 1,0 -2.0945377246594705,0" fill="none" shaper:cutDepth="0.0" shaper:pathType="guide" stroke="rgb(100,100,100)" stroke-width="2" transform="matrix(1,0,0,-1,-0.0,7.242405992888325)" vector-effect="non-scaling-stroke" /><path d="M 6.350000202655792 2.0320000648498535 m -0.9313385255926505, 0 a 0.9313385255926505,0.9313385255926505 0 1,0 1.862677051185301,0 a 0.9313385255926505,0.9313385255926505 0 1,0 -1.862677051185301,0" fill="none" shaper:cutDepth="0.0" shaper:pathType="guide" stroke="rgb(100,100,100)" stroke-width="2" transform="matrix(1,0,0,-1,-0.0,7.242405992888325)" vector-effect="non-scaling-stroke" /><path d="M0.0,5.588000178337097 L0.0,5.588000178337097 0.13038758530865388,5.850442148154041 0.26018175956881207,6.090051682915586 0.38938249474840436,6.30681272006137 0.5179905508551687,6.500715863027387 0.646008157286342,6.671773010728447 0.7734397334529185,6.820033075157046 0.9002926444036486,6.945598668663006 1.026577959337728,7.048642872530898 1.1523111852237566,7.129425338656275 1.2775129506616416,7.188307058213341 1.4022096747945176,7.225764729882944 1.526434268268295,7.242405992888324 1.6502269873038344,7.238988791428014 1.7736363960350923,7.216443660420353 1.8967203183453243,7.17589572745203 2.019546528714538,7.11867966706656 2.1421930309333566,7.046343525924452 2.26474823274055,6.960649739367856 2.5099889054506606,6.7572496158981155 3.004252224094615,6.286190689356799 3.2553086786750054,6.0565875663370905 3.5103850155107335,5.855158594799997 3.6397535001856003,5.769973989760873 3.7705068431068396,5.697379667981287 3.902761109023739,5.63871473608608 4.0366244776700375,5.594987574359242 4.172196001099054,5.566840652445716 4.309565214462771,5.5545481507023124 4.448812043292833,5.558024978677951 4.590006799883714,5.576839202249565 4.733210607167862,5.610240815658355 4.878476159967336,5.657203412942072 5.025848514287767,5.71646698926521 5.175365768607429,5.786577480774919 5.480955475873594,5.9527537953372835 5.795428705772046,6.141476119704172 6.118887324232525,6.337491984966346 6.451367018675996,6.52564150190886 6.7928511691454725,6.692018871940478 7.143283141000095,6.824941116181012 7.3218286873370895,6.875885839253579 7.502577450422561,6.915202210292643 7.685515891012408,6.942097347563247 7.870629860260782,6.955898637082345 8.057904863886499,6.956041404761458 8.247326306199465,6.9420591980983435 8.438879726272193,6.913575082324342 8.632551030613588,6.870292884290581 8.828326706356227,6.811987885592891 9.026194017286699,6.73849703077744 9.226141197268554,6.649709096451622 9.428157634022917,6.54555519956367 A1.9049999999999958,1.9049999999999958 0 0,0 10.41400033235552,4.876970513432483 L10.4140003323555,0.0" fill="none" shaper:cutDepth="0.0" shaper:pathType="guide" stroke="rgb(100,100,100)" stroke-width="2" transform="matrix(1,0,0,-1,-0.0,7.242405992888325)" vector-effect="non-scaling-stroke" /><path d="M0.3927093062783312,-1.4676779719906863 L0.3927093062783312,-1.4676779719906863 0.3561541791683059,-1.3895455549507085 0.342789872386558,-1.304277083547693 0.45627131948719735,-1.294355175169092 0.45627131948719735,-1.294355175169092 0.4683779106176473,-1.3526111469005366 0.4937884051586222,-1.4062863203602847 0.4937884051586222,-1.4062863203602847 0.5343790813401383,-1.4481585610680638 0.5852557111764979,-1.4769796344357549 0.5852557111764979,-1.4769796344357546 0.6535951842800175,-1.497689854229275 0.7247820783639979,-1.5039547893124636 0.7247820783639979,-1.5039547893124636 0.7865298981205422,-1.4993607606388026 0.8463250089670253,-1.4834909650403079 0.8463250089670252,-1.4834909650403079 0.8896929671543362,-1.4611078991571447 0.92476984749089,-1.4273703309613284 0.92476984749089,-1.4273703309613284 0.9439262120537417,-1.3905248787146203 0.9505046893144679,-1.3495456191617068 0.9505046893144679,-1.3495456191617068 0.9444944269052024,-1.3100430456482062 0.9256999779726099,-1.274821481378656 0.9256999779726099,-1.2748214813786563 0.8884699336101429,-1.242533785126398 0.8438445616746973,-1.2211813541966494 0.8438445616746973,-1.2211813541966494 0.681993990042312,-1.1768429490643557 0.6819939900423121,-1.1768429490643557 0.5926333531733694,-1.1532840296252558 0.5065008092905116,-1.1201022478657778 0.5065008092905116,-1.1201022478657778 0.45230278231779436,-1.084190485649489 0.40945246706257576,-1.035456261308771 0.40945246706257576,-1.035456261308771 0.38530265337137876,-0.9811951846603493 0.37751643250237216,-0.9222848626690922 0.3775164325023722,-0.922284862669092 0.3874779264692511,-0.855056964945061 0.41658382008324385,-0.7936105343419132 0.4165838200832438,-0.7936105343419131 0.4665827483433213,-0.739424984749463 0.5306853790069651,-0.7027633997517642 0.5306853790069651,-0.7027633997517642 0.6125321870285968,-0.6790163756014341 0.6974969197298121,-0.6717575403767642 0.6974969197298121,-0.6717575403767642 0.7883148854975331,-0.6791014919784265 0.8757805515314173,-0.7043136569577272 0.8757805515314173,-0.7043136569577273 0.9424614907074715,-0.743239648298829 0.99453303108464,-0.8001218053418216 0.99453303108464,-0.8001218053418215 1.0268017834651846,-0.8686232051546272 1.0391814399744104,-0.9433688732701357 0.9238396574045251,-0.9520504685956057 0.9238396574045252,-0.9520504685956057 0.9054316658813216,-0.8804210530081672 0.8608977485681604,-0.8218258830624636 0.8608977485681605,-0.8218258830624636 0.7857202658555773,-0.7862743575968488 0.702457814314468,-0.7777975412922914 0.7024578143144679,-0.7777975412922915 0.6193389080329185,-0.7848187708700577 0.5433977831388545,-0.8177951189595278 0.5433977831388545,-0.8177951189595278 0.5068587188707641,-0.8601420612120381 0.49347834179650063,-0.9142233344632206 0.49347834179650063,-0.9142233344632205 0.5021512919367316,-0.9584994587433555 0.528825028636558,-0.9948385569172914 0.528825028636558,-0.9948385569172915 0.6160772170551236,-1.0360878634810111 0.7102092791582179,-1.0596408459263857 0.7102092791582179,-1.0596408459263857 0.9114373017335963,-1.11762180057345 0.9114373017335963,-1.11762180057345 0.9765025829154931,-1.1559575428988182 1.028639464476211,-1.2103293153363284 1.028639464476211,-1.2103293153363284 1.0574061705409203,-1.272059775472686 1.066466598608596,-1.339623710783106 1.0664665986085962,-1.3396237107831057 1.0557911941223417,-1.41103741475639 1.024918763735397,-1.4763595077115115 1.0249187637353967,-1.4763595077115115 0.9725158831836314,-1.534910757175045 0.9055462170625758,-1.5761984798031863 0.9055462170625758,-1.5761984798031863 0.8199266470950883,-1.6035391933824352 0.7303630996728968,-1.6118551704007202 0.7303630996728968,-1.6118551704007205 0.6250581181156925,-1.604307540097564 0.5235540259862971,-1.5758884164410647 0.5235540259862971,-1.5758884164410647 0.450005382072998,-1.5315696472068614 0.3927093062783312,-1.467677971990686" fill="none" shaper:cutDepth="0.0" shaper:pathType="guide" stroke="rgb(100,100,100)" stroke-width="2" transform="matrix(1,0,0,-1,-0.0,7.242405992888325)" vector-effect="non-scaling-stroke" /><path d="M1.362572579481704,-1.0428976627903994 L1.362572579481704,-1.0428976627903994 1.326600544941126,-1.0868372101477128 1.3070720721269677,-1.1405661317425784 1.1979314375902246,-1.1256833287793215 1.1979314375902246,-1.1256833287793215 1.2159260799875224,-1.066222659219465 1.2469206739450527,-1.0125119301396426 1.2469206739450525,-1.0125119301396426 1.2914887425184294,-0.9724284421198799 1.3455193329835962,-0.9461593839245852 1.3455193329835962,-0.9461593839245852 1.4192071518738565,-0.9280733944350674 1.4949676085496972,-0.9229049893933352 1.4949676085496972,-0.9229049893933352 1.564415533538393,-0.9268200161475477 1.6320134688402244,-0.9427487465458926 1.6320134688402246,-0.9427487465458926 1.6740585900700882,-0.9627397089264981 1.7095281172777246,-0.9926681729870852 1.7095281172777246,-0.9926681729870852 1.7314571514699422,-1.0285308568076037 1.7442547369981836,-1.0686325046139775 1.7442547369981836,-1.0686325046139773 1.7498356390977927,-1.1715719911175784 1.749835639097793,-1.3204000803547915 1.749835639097793,-1.3204000803547915 1.7569670964265893,-1.5172872754651126 1.7569670964265893,-1.5172872754651126 1.785182385542495,-1.5963522407132207 1.6686003495241235,-1.5963522407132205 1.6686003495241235,-1.5963522407132205 1.6462761450792383,-1.5151168319302617 1.6462761450792383,-1.5151168319302615 1.5897219979635386,-1.557417573598662 1.5269035388017724,-1.5895309659558352 1.5269035388017724,-1.5895309659558352 1.466357192530302,-1.6060026966374714 1.4038102913881372,-1.611235043676477 1.4038102913881372,-1.6112350436764773 1.3151437359377718,-1.600371517300749 1.2369988251710962,-1.5582150432187136 1.2369988251710962,-1.5582150432187136 1.192900410373444,-1.4969510417212688 1.1787078071619104,-1.4227194401341494 1.1787078071619104,-1.4227194401341494 1.1840441039125944,-1.3771116673601544 1.2007219482446743,-1.3343527528363284 1.200721948244674,-1.3343527528363284 1.2257108070621874,-1.2987926929123192 1.258392839529617,-1.2701705905514773 1.2583928395296167,-1.2701705905514773 1.3386980582262111,-1.2335837098675786 1.338698058226211,-1.2335837098675784 1.437916784384353,-1.216840526731592 1.437916784384353,-1.216840526731592 1.6369743634248801,-1.1783932658749636 1.6369743634248803,-1.1783932658749636 1.6375944901491235,-1.1492477866726931 1.6375944901491235,-1.1492477866726931 1.6319143252123305,-1.0975277423029988 1.6059685040498806,-1.0531295749264773 1.6059685040498803,-1.0531295749264773 1.5460832348560878,-1.0226844951172966 1.4788445521379538,-1.0153024407940923 1.478844552137954,-1.015302440794092 1.418394489605194,-1.0202020405473704 1.362572579481704,-1.0428976627903996" fill="none" shaper:cutDepth="0.0" shaper:pathType="guide" stroke="rgb(100,100,100)" stroke-width="2" transform="matrix(1,0,0,-1,-0.0,7.242405992888325)" vector-effect="non-scaling-stroke" /><path d="M1.6369743634248803,-1.3067574712353762 L1.6369743634248803,-1.26582976308642 1.6369743634248803,-1.26582976308642 1.5470585865552666,-1.2920742163611099 1.4546599675203393,-1.3079977246838626 1.4546599675203393,-1.3079977246838626 1.3573016215349265,-1.330321929128748 1.3573016215349267,-1.3303219291287478 1.3132732201601098,-1.3665988656598145 1.3132732201601098,-1.3665988656598147 1.2977702904726098,-1.4196188661175784 1.2977702904726098,-1.4196188661175784 1.3062611981649503,-1.4606385424185806 1.3315667201067038,-1.4940328809338626 1.331566720106704,-1.4940328809338626 1.3781361375824364,-1.5178992972465988 1.4304753829027246,-1.523798486860376 1.4304753829027246,-1.5237984868603762 1.4897052143597163,-1.5171655128884378 1.5451970387483664,-1.4955831977444707 1.5451970387483667,-1.4955831977444705 1.5881867624012997,-1.462775963370886 1.6189910460496972,-1.4183786126690918 1.6189910460496972,-1.418378612669092 1.6338304436662456,-1.363601221122591 1.6369743634248801,-1.3067574712353764" fill="none" shaper:cutDepth="0.0" shaper:pathType="guide" stroke="rgb(100,100,100)" stroke-width="2" transform="matrix(1,0,0,-1,-0.0,7.242405992888325)" vector-effect="non-scaling-stroke" /><path d="M2.0344695139909814,-1.5963522407132205 L1.9228483725572656,-1.5963522407132205 1.9228483725572656,-0.937787792356592 2.022687225439651,-0.937787792356592 2.022687225439651,-1.0301852437573489 2.022687225439651,-1.0301852437573489 2.0591498393488044,-0.9862226291417973 2.105162768461807,-0.9523605319577273 2.1051627684618066,-0.9523605319577273 2.1617826294864524,-0.9298675786844736 2.2223649312044214,-0.9229049893933352 2.2223649312044214,-0.9229049893933352 2.2846632061749728,-0.9293904136866391 2.342357544996841,-0.953290722044092 2.342357544996841,-0.953290722044092 2.3825997069178486,-0.9901362208124379 2.408400206663711,-1.0382467719632205 2.408400206663711,-1.0382467719632205 2.4490076279471658,-0.9909907775940567 2.4950774371155773,-0.9535589239842963 2.5505277102474673,-0.9329978968897169 2.611798434355361,-0.9229049893933353 2.6117984343553613,-0.9229049893933352 2.693017847060756,-0.9344608340194984 2.7624870825792383,-0.9771652432995852 2.7624870825792383,-0.9771652432995852 2.805028173139012,-1.0552341226851465 2.8151971388841703,-1.1442868324833926 2.81519713888417,-1.5963522407132205 2.7041961241746972,-1.5963522407132205 2.7041961241746972,-1.1814938398915347 2.7041961241746972,-1.1814938398915347 2.6933440257097314,-1.085065624387842 2.6933440257097314,-1.085065624387842 2.6776924437862992,-1.0580174345259699 2.6539665747667387,-1.037626645238977 2.6539665747667383,-1.0376266452389773 2.5869938422227925,-1.0196432682591496 2.586993842222793,-1.0196432682591494 2.5244760815097105,-1.0307724307040362 2.471652178862197,-1.0658419939595276 2.4716521788621972,-1.0658419939595278 2.434303339446985,-1.1349362353888874 2.4257632781053613,-1.213739952715021 2.4257632781053613,-1.5963522407132205 2.3141423750902246,-1.5963522407132205 2.3141423750902246,-1.1684713574963626 2.3141423750902246,-1.1684713574963626 2.309117483454963,-1.1103734664843257 2.2868572760606836,-1.0568502756672913 2.2868572760606836,-1.0568502756672915 2.247051423264098,-1.0272929464017364 2.197560219862564,-1.0196432682591494 2.1975602198625634,-1.0196432682591494 2.1522299548898483,-1.0258399895615573 2.1104338456178735,-1.0444479796010075 2.1104338456178735,-1.0444479796010073 2.0753040683941566,-1.0757811745139507 2.052452831366164,-1.1170016738492068 2.0524528313661645,-1.1170016738492068 2.0376300482702483,-1.1850011551096724 2.034469513990982,-1.2546676608639773 2.0344695139909814,-1.5963522407132205" fill="none" shaper:cutDepth="0.0" shaper:pathType="guide" stroke="rgb(100,100,100)" stroke-width="2" transform="matrix(1,0,0,-1,-0.0,7.242405992888325)" vector-effect="non-scaling-stroke" /><path d="M3.0923894930864404,-1.8487400027829226 L2.9807683516527246,-1.8487400027829226 2.9807683516527246,-0.937787792356592 3.0824674654985498,-0.937787792356592 3.0824674654985498,-1.0233639689999636 3.0824674654985498,-1.0233639689999636 3.118898038707936,-0.9811307638583138 3.1637028742815088,-0.9480197640973147 3.1637028742815088,-0.9480197640973147 3.2169244986500445,-0.9284506832916921 3.2734636355424955,-0.9229049893933352 3.273463635542495,-0.9229049893933352 3.3512220881370087,-0.9332825589834489 3.4222919035936425,-0.9663132044392642 3.4222919035936425,-0.9663132044392642 3.4801331609830335,-1.02020852382841 3.5196501303697656,-1.0887863251286565 3.5196501303697656,-1.0887863251286563 3.544708462500072,-1.1737901727767124 3.552516369917495,-1.2621091219502505 3.552516369917495,-1.2621091219502505 3.544065275371616,-1.355078450515382 3.5162395525957177,-1.4441135140973147 3.5162395525957177,-1.4441135140973147 3.472941162545769,-1.5141810541078071 3.4108196784044336,-1.5681369515973147 3.4108196784044336,-1.5681369515973147 3.3411648521736357,-1.6000854578498382 3.265402226545913,-1.6112350436764773 3.265402226545913,-1.6112350436764773 3.213841932302488,-1.6056717601740491 3.165253310301406,-1.5876705857831057 3.165253310301406,-1.5876705857831057 3.092389493086441,-1.5281393739300786 3.0923894930864404,-1.8487400027829226" fill="none" shaper:cutDepth="0.0" shaper:pathType="guide" stroke="rgb(100,100,100)" stroke-width="2" transform="matrix(1,0,0,-1,-0.0,7.242405992888325)" vector-effect="non-scaling-stroke" /><path d="M3.684601454832656,-1.5963522407132205 L3.684601454832656,-0.6872604700642642 3.796222596266372,-0.6872604700642642 3.796222596266372,-1.5963522407132205 3.684601454832656,-1.5963522407132205" fill="none" shaper:cutDepth="0.0" shaper:pathType="guide" stroke="rgb(100,100,100)" stroke-width="2" transform="matrix(1,0,0,-1,-0.0,7.242405992888325)" vector-effect="non-scaling-stroke" /><path d="M4.351227431395157,-1.4872116061764773 L4.351227431395157,-1.4872116061764773 4.393157886617884,-1.440907020176335 4.420060305693252,-1.384272179277521 4.535402445891006,-1.3985348555165347 4.535402445891006,-1.3985348555165347 4.498190188981817,-1.485674350840102 4.434322981932266,-1.5554244729596194 4.434322981932266,-1.5554244729596194 4.344846403125628,-1.5989261563819386 4.2458075572038725,-1.6112350436764773 4.2458075572038725,-1.6112350436764773 4.121523625529631,-1.5910554308108578 4.067187902960552,-1.561433431613258 4.01667418966542,-1.5222482892590579 4.01667418966542,-1.5222482892590579 3.9783801612481184,-1.465939722475339 3.949975468773674,-1.406115429735438 3.932028203108413,-1.2726510974484502 3.932028203108413,-1.27265109744845 3.9500272547328565,-1.1350283770374103 3.9787692273443507,-1.0730967579598327 4.0176042605424955,-1.0146823140698489 4.0176042605424955,-1.0146823140698489 4.066126132695279,-0.9751003236071127 4.118522001740079,-0.9447542709070805 4.239606289961441,-0.9229049893933352 4.239606289961441,-0.9229049893933352 4.357383328144455,-0.9444549870785114 4.455407290556534,-1.012821993501764 4.455407290556534,-1.0128219935017642 4.493420595976213,-1.0701331982948261 4.521542352763018,-1.1308839700435385 4.539122729399307,-1.26582976308642 4.539122729399307,-1.26582976308642 4.538502841093644,-1.2955954286175786 4.047370104887588,-1.2955954286175784 4.047370104887588,-1.2955954286175784 4.063183753605425,-1.3844467785757628 4.108761696913346,-1.461786768110376 4.108761696913345,-1.4617867681103762 4.17140888140089,-1.5053070232132073 4.246427683928116,-1.5194577189999634 4.246427683928116,-1.5194577189999636 4.301532625339938,-1.5119529193497967 4.351227431395157,-1.4872116061764773" fill="none" shaper:cutDepth="0.0" shaper:pathType="guide" stroke="rgb(100,100,100)" stroke-width="2" transform="matrix(1,0,0,-1,-0.0,7.242405992888325)" vector-effect="non-scaling-stroke" /><path d="M4.053571133711441,-1.20381804433642 L4.421300559141739,-1.20381804433642 4.421300559141739,-1.20381804433642 4.409503281757631,-1.1381759641949007 4.379132895567521,-1.079174480112177 4.37913289556752,-1.0791744801121768 4.317594867507049,-1.030664726095828 4.240846543409927,-1.0146823140698489 4.240846543409927,-1.0146823140698489 4.170904999479845,-1.0272184002242835 4.11155214796315,-1.0661520573216494 4.11155214796315,-1.0661520573216494 4.069547887044387,-1.1293735089009902 4.053571133711441,-1.20381804433642" fill="none" shaper:cutDepth="0.0" shaper:pathType="guide" stroke="rgb(100,100,100)" stroke-width="2" transform="matrix(1,0,0,-1,-0.0,7.242405992888325)" vector-effect="non-scaling-stroke" /><path d="M5.051649718382461,-1.4676779719906863 L5.051649718382461,-1.4676779719906863 5.015094811113231,-1.3895454742219653 5.001730113127335,-1.3042770835476933 5.11521163473378,-1.294355175169092 5.11521163473378,-1.294355175169092 5.127318278616301,-1.3526111250769082 5.1527287055040425,-1.406286320360285 5.152728705504043,-1.4062863203602847 5.193319287843796,-1.448158720951324 5.244196086027725,-1.4769796344357549 5.244196086027725,-1.4769796344357546 5.312535559131245,-1.497689854229275 5.383722453215224,-1.5039547893124636 5.383722453215225,-1.5039547893124636 5.445470270687661,-1.4993607506786026 5.505265383818252,-1.4834909650403079 5.505265383818252,-1.4834909650403079 5.548633245366853,-1.4611079788857582 5.5837098647142485,-1.4273703309613284 5.5837098647142485,-1.4273703309613284 5.602866500281008,-1.39052495996371 5.609444766142471,-1.3495456191617066 5.609444766142471,-1.3495456191617068 5.6034344043236,-1.3100431075557875 5.584640174009904,-1.2748214813786563 5.584640174009903,-1.2748214813786563 5.547410235102975,-1.2425337304032902 5.50278487692128,-1.2211813541966492 5.50278487692128,-1.2211813541966494 5.340934424498184,-1.1768429490643557 5.340934424498184,-1.1768429490643557 5.251573735897649,-1.1532840924367844 5.165441184141738,-1.1201022478657778 5.165441184141739,-1.1201022478657778 5.111243062677558,-1.084190614966848 5.068392901518449,-1.035456261308771 5.068392901518448,-1.035456261308771 5.044243098430818,-0.9811951724280268 5.036456732847793,-0.9222848626690922 5.036456732847793,-0.922284862669092 5.046418410673934,-0.8550570450034958 5.0755240012193745,-0.7936105343419131 5.075524001219375,-0.7936105343419131 5.125522842340346,-0.7394249808703802 5.189625411131485,-0.7027633997517642 5.189625411131485,-0.7027633997517642 5.271472430496977,-0.6790164016790754 5.356437354185684,-0.6717575403767642 5.356437354185684,-0.6717575403767642 5.44725512219058,-0.6791014640849515 5.534720568754776,-0.7043136569577273 5.534720568754776,-0.7043136569577273 5.6014016313298525,-0.7432395060826413 5.6534730483079985,-0.8001218053418216 5.6534730483079985,-0.8001218053418215 5.6857419711965305,-0.8686231730412236 5.698121695616348,-0.9433688732701359 5.582780032255752,-0.9520504685956057 5.582780032255752,-0.9520504685956057 5.564371787565319,-0.8804211362401074 5.519838004210098,-0.8218258830624637 5.519838004210098,-0.8218258830624636 5.4446604302945785,-0.7862743510092411 5.361397891142472,-0.7777975412922915 5.361397891142471,-0.7777975412922915 5.2782790190787265,-0.7848188199523206 5.202337889769181,-0.8177951189595278 5.20233788976918,-0.8177951189595278 5.165799029544259,-0.8601421179839324 5.152418761351211,-0.9142233344632206 5.152418761351211,-0.9142233344632205 5.161091351561796,-0.9584995530581705 5.1877652693773335,-0.9948385569172915 5.187765269377334,-0.9948385569172915 5.275017385062662,-1.0360878359513113 5.369149355986221,-1.059640845926386 5.369149355986221,-1.0596408459263857 5.570377497770889,-1.11762180057345 5.570377497770889,-1.11762180057345 5.635442710445706,-1.1559576839529289 5.687579779722793,-1.2103293153363284 5.687579779722793,-1.2103293153363284 5.716346482330618,-1.2720597679498378 5.725406794645888,-1.3396237107831057 5.725406794645889,-1.3396237107831057 5.714731832383061,-1.4110375310607695 5.683859019377335,-1.4763595077115117 5.683859019377334,-1.4763595077115115 5.631456120223877,-1.5349106240959445 5.564486651518448,-1.576198479803186 5.564486651518448,-1.5761984798031863 5.478866982151999,-1.60353916390243 5.389303355314834,-1.6118551704007205 5.389303355314834,-1.6118551704007205 5.283998372094197,-1.604307605682076 5.182494311430557,-1.5758884164410645 5.182494311430557,-1.5758884164410647 5.108945623718886,-1.5315697600416633 5.051649718382462,-1.4676779719906863" fill="none" shaper:cutDepth="0.0" shaper:pathType="guide" stroke="rgb(100,100,100)" stroke-width="2" transform="matrix(1,0,0,-1,-0.0,7.242405992888325)" vector-effect="non-scaling-stroke" /><path d="M5.876095442869766,-1.5963522407132205 L5.876095442869766,-0.6872604700642642 5.987716345884903,-0.6872604700642642 5.987716345884903,-1.2056784245091494 6.251886515715225,-0.937787792356592 6.39637389669667,-0.937787792356592 6.144606261351211,-1.1821139666157778 6.421798377134903,-1.5963522407132205 6.284132628538711,-1.5963522407132205 6.066471247770889,-1.2596286150532778 5.987716345884903,-1.3352829429226931 5.987716345884903,-1.5963522407132205 5.876095442869766,-1.5963522407132205" fill="none" shaper:cutDepth="0.0" shaper:pathType="guide" stroke="rgb(100,100,100)" stroke-width="2" transform="matrix(1,0,0,-1,-0.0,7.242405992888325)" vector-effect="non-scaling-stroke" /><path d="M6.892467169859512,-1.4872116061764773 L6.892467169859512,-1.4872116061764773 6.9343980241840235,-1.440907164436922 6.961300520994766,-1.3842721792775212 7.076642184355362,-1.3985348555165347 7.076642184355362,-1.3985348555165347 7.039430009585001,-1.4856742125589983 6.975563197233779,-1.5554244729596194 6.97556319723378,-1.5554244729596194 6.886086506573389,-1.598926188706761 6.787047534086808,-1.611235043676477 6.787047534086807,-1.6112350436764773 6.662763690950976,-1.591055468506168 6.608428035596723,-1.5614334621114307 6.557914404966934,-1.5222482892590579 6.557914404966934,-1.5222482892590579 6.519620244551556,-1.4659397641213883 6.49121545807433,-1.4061154903364723 6.473268179991348,-1.27265109744845 6.473268179991348,-1.27265109744845 6.491267444645682,-1.135028451717978 6.520009350859378,-1.0730968093705289 6.55884423742543,-1.0146823140698489 6.55884423742543,-1.0146823140698489 6.607366109578214,-0.9751003236071127 6.659761978623014,-0.9447542709070805 6.780846266844375,-0.9229049893933352 6.780846266844375,-0.9229049893933352 6.898623172373223,-0.9444550306958976 6.996647029020888,-1.0128219935017642 6.996647029020889,-1.0128219935017642 7.0346606003987056,-1.0701331156997156 7.062782545598118,-1.1308838500943803 7.080362944700821,-1.26582976308642 7.080362944700821,-1.26582976308642 7.0797425795579985,-1.2955954286175784 6.588609843351944,-1.2955954286175784 6.588609843351944,-1.2955954286175784 6.6044239213523035,-1.384446678590074 6.650001673796279,-1.4617867681103764 6.65000167379628,-1.4617867681103762 6.712648662770747,-1.5053071421976723 6.787667422392472,-1.5194577189999636 6.787667422392471,-1.5194577189999636 6.842772363804294,-1.5119529193497967 6.892467169859512,-1.4872116061764773" fill="none" shaper:cutDepth="0.0" shaper:pathType="guide" stroke="rgb(100,100,100)" stroke-width="2" transform="matrix(1,0,0,-1,-0.0,7.242405992888325)" vector-effect="non-scaling-stroke" /><path d="M6.594811110594375,-1.20381804433642 L6.962540774443252,-1.20381804433642 6.962540774443252,-1.20381804433642 6.950743483648047,-1.1381758464349516 6.920372634031875,-1.0791744801121768 6.920372634031875,-1.0791744801121768 6.858834815199788,-1.0306646007107496 6.782086520292862,-1.0146823140698489 6.782086520292862,-1.0146823140698489 6.712144893370971,-1.0272182422044998 6.652792124846084,-1.0661520573216494 6.652792124846084,-1.0661520573216494 6.610787863927322,-1.1293735089009902 6.594811110594375,-1.20381804433642" fill="none" shaper:cutDepth="0.0" shaper:pathType="guide" stroke="rgb(100,100,100)" stroke-width="2" transform="matrix(1,0,0,-1,-0.0,7.242405992888325)" vector-effect="non-scaling-stroke" /><path d="M7.41150537023793,-1.5008541556912478 L7.41150537023793,-1.5008541556912478 7.460494666197403,-1.4965133878308352 7.476617961027725,-1.5951119872647341 7.476617961027725,-1.5951119872647341 7.392281680204971,-1.6050338956433352 7.392281680204971,-1.6050338956433352 7.343840174939942,-1.6013989712840828 7.298023848631485,-1.5858102056103762 7.298023848631485,-1.5858102056103762 7.270274579256808,-1.564400559668559 7.250895171263321,-1.5352707120495852 7.250895171263321,-1.5352707120495852 7.238729685190063,-1.4700506558816762 7.23725238332997,-1.403495809705835 7.237252383329971,-1.02460422244845 7.155397086241348,-1.02460422244845 7.155397086241348,-0.937787792356592 7.237252383329971,-0.937787792356592 7.237252383329971,-0.7746969672757205 7.348253398039444,-0.7077243539410647 7.348253398039444,-0.937787792356592 7.460494666197403,-0.937787792356592 7.460494666197403,-1.02460422244845 7.348253398039444,-1.02460422244845 7.348253398039444,-1.4096969577389773 7.348253398039444,-1.4096969577389773 7.354144721129044,-1.4710885497647341 7.354144721129043,-1.4710885497647341 7.373368411162003,-1.4927926274853762 7.373368411162002,-1.4927926274853762 7.411505370237929,-1.5008541556912478" fill="none" shaper:cutDepth="0.0" shaper:pathType="guide" stroke="rgb(100,100,100)" stroke-width="2" transform="matrix(1,0,0,-1,-0.0,7.242405992888325)" vector-effect="non-scaling-stroke" /><path d="M7.943565993406875,-1.4791500779706057 L7.943565993406875,-1.4791500779706057 7.982207926108309,-1.4221841260668822 7.999376444914444,-1.3551266404706057 8.10913720617543,-1.3693893763142642 8.10913720617543,-1.3693893763142642 8.07913814620349,-1.4666984687448288 8.017049937346084,-1.5470528813916264 8.017049937346084,-1.5470528813916262 7.932099802304752,-1.5960414488210364 7.835045485594375,-1.611235043676477 7.835045485594375,-1.6112350436764773 7.716611832910215,-1.5905798742169992 7.617694525816544,-1.5228682967740117 7.617694525816543,-1.5228682967740115 7.580099423834825,-1.4653842222495659 7.552440039775971,-1.4044945420501553 7.53552880773793,-1.2695504638272341 7.53552880773793,-1.2695504638272341 7.543448849296858,-1.1743217615992287 7.570875315764053,-1.082895180852991 7.570875315764053,-1.082895180852991 7.61460955323713,-1.0138301252946815 7.678465991118058,-0.9629025074559268 7.678465991118057,-0.9629025074559268 7.754473091460673,-0.9327551319047551 7.835665373900039,-0.9229049893933353 7.8356653739000395,-0.9229049893933352 7.928247966788237,-0.9349176631703022 8.011158614256484,-0.9771652432995852 8.011158614256484,-0.9771652432995852 8.068983220902005,-1.0460652827724795 8.098595290281873,-1.1312643500882205 7.9900747824693745,-1.1480075332242068 7.990074782469375,-1.1480075332242068 7.970657162109156,-1.0935518491354224 7.935194163420303,-1.0481686207371768 7.935194163420303,-1.0481686207371768 7.89070792933332,-1.0226996864016322 7.840006499388321,-1.0146823140698489 7.840006499388321,-1.0146823140698489 7.764561633745092,-1.0293611926546722 7.702960639097793,-1.0751437160092407 7.702960639097793,-1.075143716009241 7.659796343014262,-1.1657382297915082 7.650250582792863,-1.266449889810663 7.650250582792862,-1.266449889810663 7.659241296052659,-1.3676376684100586 7.701100020506484,-1.4593063804226933 7.701100020506485,-1.4593063804226931 7.760436898394472,-1.5047546949945148 7.833805232145888,-1.5194577189999636 7.833805232145889,-1.5194577189999636 7.892647769915316,-1.5099228881638087 7.943565993406875,-1.4791500779706055" fill="none" shaper:cutDepth="0.0" shaper:pathType="guide" stroke="rgb(100,100,100)" stroke-width="2" transform="matrix(1,0,0,-1,-0.0,7.242405992888325)" vector-effect="non-scaling-stroke" /><path d="M8.316256671049697,-1.5963522407132205 L8.20463576803456,-1.5963522407132205 8.20463576803456,-0.6872604700642642 8.316256671049697,-0.6872604700642642 8.316256671049697,-1.0134421202260073 8.316256671049697,-1.0134421202260073 8.4044977015155,-0.9455968743520293 8.513453631498914,-0.9229049893933353 8.513453631498916,-0.9229049893933352 8.578854378419985,-0.9294310949657157 8.640578417875869,-0.9517404052334842 8.640578417875869,-0.9517404052334841 8.685917986460607,-0.985108739566404 8.717783122160535,-1.031425497205835 8.717783122160537,-1.0314254972058352 8.736911201817197,-1.1039282116791673 8.741037516691787,-1.1790133925992068 8.741037516691787,-1.5963522407132205 8.629415660002334,-1.5963522407132205 8.629415660002334,-1.1790133925992068 8.629415660002334,-1.1790133925992068 8.6227444720775,-1.1143689646952963 8.593138842680556,-1.0571603390294133 8.593138842680556,-1.057160339029413 8.546008984780046,-1.027290520667185 8.490510134794812,-1.019023141534906 8.490510134794814,-1.0190231415349063 8.442098141782767,-1.0255323926078719 8.397181658842664,-1.0447579833584841 8.397181658842666,-1.0447579833584841 8.360242325888592,-1.0745049902870873 8.334859995939835,-1.1145211669522341 8.334859995939834,-1.1145211669522341 8.319724168889627,-1.1743290052569937 8.316256671049697,-1.2360641571599065 8.316256671049697,-1.5963522407132205" fill="none" shaper:cutDepth="0.0" shaper:pathType="guide" stroke="rgb(100,100,100)" stroke-width="2" transform="matrix(1,0,0,-1,-0.0,7.242405992888325)" vector-effect="non-scaling-stroke" /><path d="M3.0818473387743066,-1.2707907172757205 L3.0818473387743066,-1.2707907172757205 3.0913404511873863,-1.3695740518063728 3.133317141630752,-1.45868625369845 3.133317141630752,-1.45868625369845 3.188691212398663,-1.5035283799167483 3.257960705854995,-1.5194577189999636 3.257960705854995,-1.5194577189999636 3.3288780526227826,-1.5028154310823427 3.385394721129043,-1.4565158101635989 3.385394721129043,-1.4565158101635989 3.4286739779271795,-1.3639620046025729 3.4384147215868066,-1.2614889952260075 3.4384147215868066,-1.2614889952260073 3.428634186579034,-1.1624523853865487 3.3866349745775293,-1.0729733320790347 3.3866349745775293,-1.0729733320790347 3.3320009041647447,-1.0270935787915396 3.2629217196489404,-1.0103415462094363 3.2629217196489404,-1.0103415462094363 3.1922234203181015,-1.028822058306929 3.1367277194047998,-1.0770040961819705 3.1367277194047998,-1.0770040961819705 3.092609193761464,-1.1688459750444524 3.081847338774306,-1.2707907172757205" fill="none" shaper:cutDepth="0.0" shaper:pathType="guide" stroke="rgb(100,100,100)" stroke-width="2" transform="matrix(1,0,0,-1,-0.0,7.242405992888325)" vector-effect="non-scaling-stroke" /></svg>