<?xml version="1.0" encoding="utf-8"?>
<!-- Generator: Fusion 360, Shaper Origin Export Add-In, Version 0.2  -->
<svg enable-background="new 0 0 10.41400033235552 7.242405992888324" height="7.242405992888324cm" shaper:fusionaddin="version:0.2" version="1.1" viewBox="0 0 10.41400033235552 7.242405992888324" width="10.41400033235552cm" x="0cm" xml:space="preserve" xmlns="http://www.w3.org/2000/svg" xmlns:shaper="http://www.shapertools.com/namespaces/shaper" xmlns:xlink="http://www.w3.org/1999/xlink" y="0cm"><title>Title</title><desc>Description</desc><path d="M0.0,0.0 L8.89000028371811,0.0 8.89000028371811,4.318000137805939 0.0,4.318000137805939 0.0,0.0" fill="none" shaper:cutDepth="0.0" shaper:pathType="guide" stroke="rgb(100,100,100)" stroke-width="2" transform="matrix(1,0,0,-1,-0.0,7.242405992888324)" vector-effect="non-scaling-stroke" /><path d="M 2.540000081062317 2.0320000648498535 m -1.0472688623297353, 0 a 1.0472688623297353,1.0472688623297353 0 1,0 2.0945377246594705,0 a 1.0472688623297353,1.0472688623297353 0 1,0 -2.0945377246594705,0" fill="none" shaper:cutDepth="0.0" shaper:pathType="guide" stroke="rgb(100,100,100)" stroke-width="2" transform="matrix(1,0,0,-1,-0.0,7.242405992888324)" vector-effect="non-scaling-stroke" /><path d="M 6.350000202655792 2.0320000648498535 m -0.9313385255926505, 0 a 0.9313385255926505,0.9313385255926505 0 1,0 1.862677051185301,0 a 0.9313385255926505,0.9313385255926505 0 1,0 -1.862677051185301,0" fill="none" shaper:cutDepth="0.0" shaper:pathType="guide" stroke="rgb(100,100,100)" stroke-width="2" transform="matrix(1,0,0,-1,-0.0,7.242405992888324)" vector-effect="non-scaling-stroke" /><path d="M0.0,5.588000178337097 L0.0,5.588000178337097 0.13038758530865388,5.850442148154041 0.26018175956881207,6.090051682915586 0.38938249474840436,6.30681272006137 0.5179905508551687,6.500715863027387 0.646008157286342,6.671773010728447 0.7734397334529185,6.820033075157046 0.9002926444036486,6.945598668663006 1.026577959337728,7.048642872530898 1.1523111852237566,7.129425338656275 1.2775129506616416,7.188307058213341 1.4022096747945176,7.225764729882944 1.526434268268295,7.242405992888324 1.6502269873038344,7.238988791428014 1.7736363960350923,7.216443660420353 1.8967203183453243,7.17589572745203 2.019546528714538,7.11867966706656 2.1421930309333566,7.046343525924452 2.26474823274055,6.960649739367856 2.5099889054506606,6.7572496158981155 3.004252224094615,6.286190689356799 3.2553086786750054,6.0565875663370905 3.5103850155107335,5.855158594799997 3.6397535001856003,5.769973989760873 3.7705068431068396,5.697379667981287 3.902761109023739,5.63871473608608 4.0366244776700375,5.594987574359242 4.172196001099054,5.566840652445716 4.309565214462771,5.5545481507023124 4.448812043292833,5.558024978677951 4.590006799883714,5.576839202249565 4.733210607167862,5.610240815658355 4.878476159967336,5.657203412942072 5.025848514287767,5.71646698926521 5.175365768607429,5.786577480774919 5.480955475873594,5.9527537953372835 5.795428705772046,6.141476119704172 6.118887324232525,6.337491984966346 6.451367018675996,6.52564150190886 6.7928511691454725,6.692018871940478 7.143283141000095,6.824941116181012 7.3218286873370895,6.875885839253579 7.502577450422561,6.915202210292643 7.685515891012408,6.942097347563247 7.870629860260782,6.955898637082345 8.057904863886499,6.956041404761458 8.247326306199465,6.9420591980983435 8.438879726272193,6.913575082324342 8.632551030613588,6.870292884290581 8.828326706356227,6.811987885592891 9.026194017286699,6.73849703077744 9.226141197268554,6.649709096451622 9.428157634022917,6.54555519956367 A1.9049999999999958,1.9049999999999958 0 0,0 10.41400033235552,4.876970513432483 L10.4140003323555,0.0" fill="none" shaper:cutDepth="0.0" shaper:pathType="guide" stroke="rgb(100,100,100)" stroke-width="2" transform="matrix(1,0,0,-1,-0.0,7.242405992888324)" vector-effect="non-scaling-stroke" /></svg>